%TF.GenerationSoftware,KiCad,Pcbnew,8.0.1*%
%TF.CreationDate,2024-05-07T15:17:13+02:00*%
%TF.ProjectId,WCH-Eth-Base,5743482d-4574-4682-9d42-6173652e6b69,rev?*%
%TF.SameCoordinates,Original*%
%TF.FileFunction,Legend,Bot*%
%TF.FilePolarity,Positive*%
%FSLAX46Y46*%
G04 Gerber Fmt 4.6, Leading zero omitted, Abs format (unit mm)*
G04 Created by KiCad (PCBNEW 8.0.1) date 2024-05-07 15:17:13*
%MOMM*%
%LPD*%
G01*
G04 APERTURE LIST*
G04 Aperture macros list*
%AMRoundRect*
0 Rectangle with rounded corners*
0 $1 Rounding radius*
0 $2 $3 $4 $5 $6 $7 $8 $9 X,Y pos of 4 corners*
0 Add a 4 corners polygon primitive as box body*
4,1,4,$2,$3,$4,$5,$6,$7,$8,$9,$2,$3,0*
0 Add four circle primitives for the rounded corners*
1,1,$1+$1,$2,$3*
1,1,$1+$1,$4,$5*
1,1,$1+$1,$6,$7*
1,1,$1+$1,$8,$9*
0 Add four rect primitives between the rounded corners*
20,1,$1+$1,$2,$3,$4,$5,0*
20,1,$1+$1,$4,$5,$6,$7,0*
20,1,$1+$1,$6,$7,$8,$9,0*
20,1,$1+$1,$8,$9,$2,$3,0*%
%AMRotRect*
0 Rectangle, with rotation*
0 The origin of the aperture is its center*
0 $1 length*
0 $2 width*
0 $3 Rotation angle, in degrees counterclockwise*
0 Add horizontal line*
21,1,$1,$2,0,0,$3*%
G04 Aperture macros list end*
%ADD10C,0.150000*%
%ADD11C,0.120000*%
%ADD12C,0.250000*%
%ADD13C,3.300000*%
%ADD14C,1.520000*%
%ADD15C,2.500000*%
%ADD16O,0.550000X0.700000*%
%ADD17O,0.900000X1.900000*%
%ADD18C,0.990600*%
%ADD19O,2.600000X3.000000*%
%ADD20C,1.800000*%
%ADD21R,0.700000X3.000000*%
%ADD22C,1.524000*%
%ADD23RoundRect,0.140000X0.140000X0.170000X-0.140000X0.170000X-0.140000X-0.170000X0.140000X-0.170000X0*%
%ADD24RoundRect,0.140000X0.170000X-0.140000X0.170000X0.140000X-0.170000X0.140000X-0.170000X-0.140000X0*%
%ADD25RoundRect,0.135000X-0.185000X0.135000X-0.185000X-0.135000X0.185000X-0.135000X0.185000X0.135000X0*%
%ADD26RoundRect,0.135000X0.135000X0.185000X-0.135000X0.185000X-0.135000X-0.185000X0.135000X-0.185000X0*%
%ADD27RoundRect,0.135000X0.185000X-0.135000X0.185000X0.135000X-0.185000X0.135000X-0.185000X-0.135000X0*%
%ADD28R,0.550000X0.800000*%
%ADD29R,0.500000X0.500000*%
%ADD30R,1.400000X1.200000*%
%ADD31RoundRect,0.150000X-0.150000X0.512500X-0.150000X-0.512500X0.150000X-0.512500X0.150000X0.512500X0*%
%ADD32RoundRect,0.150000X0.512500X0.150000X-0.512500X0.150000X-0.512500X-0.150000X0.512500X-0.150000X0*%
%ADD33RoundRect,0.250000X0.650000X-0.325000X0.650000X0.325000X-0.650000X0.325000X-0.650000X-0.325000X0*%
%ADD34R,2.350000X3.500000*%
%ADD35RoundRect,0.140000X-0.170000X0.140000X-0.170000X-0.140000X0.170000X-0.140000X0.170000X0.140000X0*%
%ADD36RoundRect,0.075000X0.459619X0.565685X-0.565685X-0.459619X-0.459619X-0.565685X0.565685X0.459619X0*%
%ADD37RoundRect,0.075000X-0.459619X0.565685X-0.565685X0.459619X0.459619X-0.565685X0.565685X-0.459619X0*%
%ADD38RoundRect,0.162500X0.447500X0.162500X-0.447500X0.162500X-0.447500X-0.162500X0.447500X-0.162500X0*%
%ADD39RoundRect,0.112500X0.112500X-0.187500X0.112500X0.187500X-0.112500X0.187500X-0.112500X-0.187500X0*%
%ADD40RoundRect,0.150000X0.150000X-0.512500X0.150000X0.512500X-0.150000X0.512500X-0.150000X-0.512500X0*%
%ADD41RoundRect,0.050000X0.309359X-0.238649X-0.238649X0.309359X-0.309359X0.238649X0.238649X-0.309359X0*%
%ADD42RoundRect,0.050000X0.309359X0.238649X0.238649X0.309359X-0.309359X-0.238649X-0.238649X-0.309359X0*%
%ADD43RotRect,5.810000X6.310000X135.000000*%
G04 APERTURE END LIST*
D10*
X45067233Y14915981D02*
X45067233Y14201696D01*
X45067233Y14201696D02*
X45114852Y14058839D01*
X45114852Y14058839D02*
X45210090Y13963600D01*
X45210090Y13963600D02*
X45352947Y13915981D01*
X45352947Y13915981D02*
X45448185Y13915981D01*
X44162471Y14582648D02*
X44162471Y13915981D01*
X44400566Y14963600D02*
X44638661Y14249315D01*
X44638661Y14249315D02*
X44019614Y14249315D01*
X-24750734Y16396020D02*
X-24703115Y16348400D01*
X-24703115Y16348400D02*
X-24560258Y16300781D01*
X-24560258Y16300781D02*
X-24465020Y16300781D01*
X-24465020Y16300781D02*
X-24322163Y16348400D01*
X-24322163Y16348400D02*
X-24226925Y16443639D01*
X-24226925Y16443639D02*
X-24179306Y16538877D01*
X-24179306Y16538877D02*
X-24131687Y16729353D01*
X-24131687Y16729353D02*
X-24131687Y16872210D01*
X-24131687Y16872210D02*
X-24179306Y17062686D01*
X-24179306Y17062686D02*
X-24226925Y17157924D01*
X-24226925Y17157924D02*
X-24322163Y17253162D01*
X-24322163Y17253162D02*
X-24465020Y17300781D01*
X-24465020Y17300781D02*
X-24560258Y17300781D01*
X-24560258Y17300781D02*
X-24703115Y17253162D01*
X-24703115Y17253162D02*
X-24750734Y17205543D01*
X-25655496Y17300781D02*
X-25179306Y17300781D01*
X-25179306Y17300781D02*
X-25131687Y16824591D01*
X-25131687Y16824591D02*
X-25179306Y16872210D01*
X-25179306Y16872210D02*
X-25274544Y16919829D01*
X-25274544Y16919829D02*
X-25512639Y16919829D01*
X-25512639Y16919829D02*
X-25607877Y16872210D01*
X-25607877Y16872210D02*
X-25655496Y16824591D01*
X-25655496Y16824591D02*
X-25703115Y16729353D01*
X-25703115Y16729353D02*
X-25703115Y16491258D01*
X-25703115Y16491258D02*
X-25655496Y16396020D01*
X-25655496Y16396020D02*
X-25607877Y16348400D01*
X-25607877Y16348400D02*
X-25512639Y16300781D01*
X-25512639Y16300781D02*
X-25274544Y16300781D01*
X-25274544Y16300781D02*
X-25179306Y16348400D01*
X-25179306Y16348400D02*
X-25131687Y16396020D01*
X18740780Y16241058D02*
X18788400Y16288677D01*
X18788400Y16288677D02*
X18836019Y16431534D01*
X18836019Y16431534D02*
X18836019Y16526772D01*
X18836019Y16526772D02*
X18788400Y16669629D01*
X18788400Y16669629D02*
X18693161Y16764867D01*
X18693161Y16764867D02*
X18597923Y16812486D01*
X18597923Y16812486D02*
X18407447Y16860105D01*
X18407447Y16860105D02*
X18264590Y16860105D01*
X18264590Y16860105D02*
X18074114Y16812486D01*
X18074114Y16812486D02*
X17978876Y16764867D01*
X17978876Y16764867D02*
X17883638Y16669629D01*
X17883638Y16669629D02*
X17836019Y16526772D01*
X17836019Y16526772D02*
X17836019Y16431534D01*
X17836019Y16431534D02*
X17883638Y16288677D01*
X17883638Y16288677D02*
X17931257Y16241058D01*
X17931257Y15860105D02*
X17883638Y15812486D01*
X17883638Y15812486D02*
X17836019Y15717248D01*
X17836019Y15717248D02*
X17836019Y15479153D01*
X17836019Y15479153D02*
X17883638Y15383915D01*
X17883638Y15383915D02*
X17931257Y15336296D01*
X17931257Y15336296D02*
X18026495Y15288677D01*
X18026495Y15288677D02*
X18121733Y15288677D01*
X18121733Y15288677D02*
X18264590Y15336296D01*
X18264590Y15336296D02*
X18836019Y15907724D01*
X18836019Y15907724D02*
X18836019Y15288677D01*
X17836019Y14955343D02*
X17836019Y14336296D01*
X17836019Y14336296D02*
X18216971Y14669629D01*
X18216971Y14669629D02*
X18216971Y14526772D01*
X18216971Y14526772D02*
X18264590Y14431534D01*
X18264590Y14431534D02*
X18312209Y14383915D01*
X18312209Y14383915D02*
X18407447Y14336296D01*
X18407447Y14336296D02*
X18645542Y14336296D01*
X18645542Y14336296D02*
X18740780Y14383915D01*
X18740780Y14383915D02*
X18788400Y14431534D01*
X18788400Y14431534D02*
X18836019Y14526772D01*
X18836019Y14526772D02*
X18836019Y14812486D01*
X18836019Y14812486D02*
X18788400Y14907724D01*
X18788400Y14907724D02*
X18740780Y14955343D01*
X26056419Y30360858D02*
X25580228Y30694191D01*
X26056419Y30932286D02*
X25056419Y30932286D01*
X25056419Y30932286D02*
X25056419Y30551334D01*
X25056419Y30551334D02*
X25104038Y30456096D01*
X25104038Y30456096D02*
X25151657Y30408477D01*
X25151657Y30408477D02*
X25246895Y30360858D01*
X25246895Y30360858D02*
X25389752Y30360858D01*
X25389752Y30360858D02*
X25484990Y30408477D01*
X25484990Y30408477D02*
X25532609Y30456096D01*
X25532609Y30456096D02*
X25580228Y30551334D01*
X25580228Y30551334D02*
X25580228Y30932286D01*
X25151657Y29979905D02*
X25104038Y29932286D01*
X25104038Y29932286D02*
X25056419Y29837048D01*
X25056419Y29837048D02*
X25056419Y29598953D01*
X25056419Y29598953D02*
X25104038Y29503715D01*
X25104038Y29503715D02*
X25151657Y29456096D01*
X25151657Y29456096D02*
X25246895Y29408477D01*
X25246895Y29408477D02*
X25342133Y29408477D01*
X25342133Y29408477D02*
X25484990Y29456096D01*
X25484990Y29456096D02*
X26056419Y30027524D01*
X26056419Y30027524D02*
X26056419Y29408477D01*
X26056419Y28932286D02*
X26056419Y28741810D01*
X26056419Y28741810D02*
X26008800Y28646572D01*
X26008800Y28646572D02*
X25961180Y28598953D01*
X25961180Y28598953D02*
X25818323Y28503715D01*
X25818323Y28503715D02*
X25627847Y28456096D01*
X25627847Y28456096D02*
X25246895Y28456096D01*
X25246895Y28456096D02*
X25151657Y28503715D01*
X25151657Y28503715D02*
X25104038Y28551334D01*
X25104038Y28551334D02*
X25056419Y28646572D01*
X25056419Y28646572D02*
X25056419Y28837048D01*
X25056419Y28837048D02*
X25104038Y28932286D01*
X25104038Y28932286D02*
X25151657Y28979905D01*
X25151657Y28979905D02*
X25246895Y29027524D01*
X25246895Y29027524D02*
X25484990Y29027524D01*
X25484990Y29027524D02*
X25580228Y28979905D01*
X25580228Y28979905D02*
X25627847Y28932286D01*
X25627847Y28932286D02*
X25675466Y28837048D01*
X25675466Y28837048D02*
X25675466Y28646572D01*
X25675466Y28646572D02*
X25627847Y28551334D01*
X25627847Y28551334D02*
X25580228Y28503715D01*
X25580228Y28503715D02*
X25484990Y28456096D01*
X15641980Y16241058D02*
X15689600Y16288677D01*
X15689600Y16288677D02*
X15737219Y16431534D01*
X15737219Y16431534D02*
X15737219Y16526772D01*
X15737219Y16526772D02*
X15689600Y16669629D01*
X15689600Y16669629D02*
X15594361Y16764867D01*
X15594361Y16764867D02*
X15499123Y16812486D01*
X15499123Y16812486D02*
X15308647Y16860105D01*
X15308647Y16860105D02*
X15165790Y16860105D01*
X15165790Y16860105D02*
X14975314Y16812486D01*
X14975314Y16812486D02*
X14880076Y16764867D01*
X14880076Y16764867D02*
X14784838Y16669629D01*
X14784838Y16669629D02*
X14737219Y16526772D01*
X14737219Y16526772D02*
X14737219Y16431534D01*
X14737219Y16431534D02*
X14784838Y16288677D01*
X14784838Y16288677D02*
X14832457Y16241058D01*
X14832457Y15860105D02*
X14784838Y15812486D01*
X14784838Y15812486D02*
X14737219Y15717248D01*
X14737219Y15717248D02*
X14737219Y15479153D01*
X14737219Y15479153D02*
X14784838Y15383915D01*
X14784838Y15383915D02*
X14832457Y15336296D01*
X14832457Y15336296D02*
X14927695Y15288677D01*
X14927695Y15288677D02*
X15022933Y15288677D01*
X15022933Y15288677D02*
X15165790Y15336296D01*
X15165790Y15336296D02*
X15737219Y15907724D01*
X15737219Y15907724D02*
X15737219Y15288677D01*
X15737219Y14336296D02*
X15737219Y14907724D01*
X15737219Y14622010D02*
X14737219Y14622010D01*
X14737219Y14622010D02*
X14880076Y14717248D01*
X14880076Y14717248D02*
X14975314Y14812486D01*
X14975314Y14812486D02*
X15022933Y14907724D01*
X24836780Y16241058D02*
X24884400Y16288677D01*
X24884400Y16288677D02*
X24932019Y16431534D01*
X24932019Y16431534D02*
X24932019Y16526772D01*
X24932019Y16526772D02*
X24884400Y16669629D01*
X24884400Y16669629D02*
X24789161Y16764867D01*
X24789161Y16764867D02*
X24693923Y16812486D01*
X24693923Y16812486D02*
X24503447Y16860105D01*
X24503447Y16860105D02*
X24360590Y16860105D01*
X24360590Y16860105D02*
X24170114Y16812486D01*
X24170114Y16812486D02*
X24074876Y16764867D01*
X24074876Y16764867D02*
X23979638Y16669629D01*
X23979638Y16669629D02*
X23932019Y16526772D01*
X23932019Y16526772D02*
X23932019Y16431534D01*
X23932019Y16431534D02*
X23979638Y16288677D01*
X23979638Y16288677D02*
X24027257Y16241058D01*
X24027257Y15860105D02*
X23979638Y15812486D01*
X23979638Y15812486D02*
X23932019Y15717248D01*
X23932019Y15717248D02*
X23932019Y15479153D01*
X23932019Y15479153D02*
X23979638Y15383915D01*
X23979638Y15383915D02*
X24027257Y15336296D01*
X24027257Y15336296D02*
X24122495Y15288677D01*
X24122495Y15288677D02*
X24217733Y15288677D01*
X24217733Y15288677D02*
X24360590Y15336296D01*
X24360590Y15336296D02*
X24932019Y15907724D01*
X24932019Y15907724D02*
X24932019Y15288677D01*
X23932019Y14383915D02*
X23932019Y14860105D01*
X23932019Y14860105D02*
X24408209Y14907724D01*
X24408209Y14907724D02*
X24360590Y14860105D01*
X24360590Y14860105D02*
X24312971Y14764867D01*
X24312971Y14764867D02*
X24312971Y14526772D01*
X24312971Y14526772D02*
X24360590Y14431534D01*
X24360590Y14431534D02*
X24408209Y14383915D01*
X24408209Y14383915D02*
X24503447Y14336296D01*
X24503447Y14336296D02*
X24741542Y14336296D01*
X24741542Y14336296D02*
X24836780Y14383915D01*
X24836780Y14383915D02*
X24884400Y14431534D01*
X24884400Y14431534D02*
X24932019Y14526772D01*
X24932019Y14526772D02*
X24932019Y14764867D01*
X24932019Y14764867D02*
X24884400Y14860105D01*
X24884400Y14860105D02*
X24836780Y14907724D01*
X23807657Y11027581D02*
X24140990Y11503772D01*
X24379085Y11027581D02*
X24379085Y12027581D01*
X24379085Y12027581D02*
X23998133Y12027581D01*
X23998133Y12027581D02*
X23902895Y11979962D01*
X23902895Y11979962D02*
X23855276Y11932343D01*
X23855276Y11932343D02*
X23807657Y11837105D01*
X23807657Y11837105D02*
X23807657Y11694248D01*
X23807657Y11694248D02*
X23855276Y11599010D01*
X23855276Y11599010D02*
X23902895Y11551391D01*
X23902895Y11551391D02*
X23998133Y11503772D01*
X23998133Y11503772D02*
X24379085Y11503772D01*
X22950514Y11694248D02*
X22950514Y11027581D01*
X23188609Y12075200D02*
X23426704Y11360915D01*
X23426704Y11360915D02*
X22807657Y11360915D01*
X22521942Y12027581D02*
X21902895Y12027581D01*
X21902895Y12027581D02*
X22236228Y11646629D01*
X22236228Y11646629D02*
X22093371Y11646629D01*
X22093371Y11646629D02*
X21998133Y11599010D01*
X21998133Y11599010D02*
X21950514Y11551391D01*
X21950514Y11551391D02*
X21902895Y11456153D01*
X21902895Y11456153D02*
X21902895Y11218058D01*
X21902895Y11218058D02*
X21950514Y11122820D01*
X21950514Y11122820D02*
X21998133Y11075200D01*
X21998133Y11075200D02*
X22093371Y11027581D01*
X22093371Y11027581D02*
X22379085Y11027581D01*
X22379085Y11027581D02*
X22474323Y11075200D01*
X22474323Y11075200D02*
X22521942Y11122820D01*
X41077057Y12941620D02*
X41124676Y12894000D01*
X41124676Y12894000D02*
X41267533Y12846381D01*
X41267533Y12846381D02*
X41362771Y12846381D01*
X41362771Y12846381D02*
X41505628Y12894000D01*
X41505628Y12894000D02*
X41600866Y12989239D01*
X41600866Y12989239D02*
X41648485Y13084477D01*
X41648485Y13084477D02*
X41696104Y13274953D01*
X41696104Y13274953D02*
X41696104Y13417810D01*
X41696104Y13417810D02*
X41648485Y13608286D01*
X41648485Y13608286D02*
X41600866Y13703524D01*
X41600866Y13703524D02*
X41505628Y13798762D01*
X41505628Y13798762D02*
X41362771Y13846381D01*
X41362771Y13846381D02*
X41267533Y13846381D01*
X41267533Y13846381D02*
X41124676Y13798762D01*
X41124676Y13798762D02*
X41077057Y13751143D01*
X40124676Y12846381D02*
X40696104Y12846381D01*
X40410390Y12846381D02*
X40410390Y13846381D01*
X40410390Y13846381D02*
X40505628Y13703524D01*
X40505628Y13703524D02*
X40600866Y13608286D01*
X40600866Y13608286D02*
X40696104Y13560667D01*
X39172295Y12846381D02*
X39743723Y12846381D01*
X39458009Y12846381D02*
X39458009Y13846381D01*
X39458009Y13846381D02*
X39553247Y13703524D01*
X39553247Y13703524D02*
X39648485Y13608286D01*
X39648485Y13608286D02*
X39743723Y13560667D01*
X-9525781Y27060858D02*
X-10001972Y27394191D01*
X-9525781Y27632286D02*
X-10525781Y27632286D01*
X-10525781Y27632286D02*
X-10525781Y27251334D01*
X-10525781Y27251334D02*
X-10478162Y27156096D01*
X-10478162Y27156096D02*
X-10430543Y27108477D01*
X-10430543Y27108477D02*
X-10335305Y27060858D01*
X-10335305Y27060858D02*
X-10192448Y27060858D01*
X-10192448Y27060858D02*
X-10097210Y27108477D01*
X-10097210Y27108477D02*
X-10049591Y27156096D01*
X-10049591Y27156096D02*
X-10001972Y27251334D01*
X-10001972Y27251334D02*
X-10001972Y27632286D01*
X-9525781Y26108477D02*
X-9525781Y26679905D01*
X-9525781Y26394191D02*
X-10525781Y26394191D01*
X-10525781Y26394191D02*
X-10382924Y26489429D01*
X-10382924Y26489429D02*
X-10287686Y26584667D01*
X-10287686Y26584667D02*
X-10240067Y26679905D01*
X-10097210Y25537048D02*
X-10144829Y25632286D01*
X-10144829Y25632286D02*
X-10192448Y25679905D01*
X-10192448Y25679905D02*
X-10287686Y25727524D01*
X-10287686Y25727524D02*
X-10335305Y25727524D01*
X-10335305Y25727524D02*
X-10430543Y25679905D01*
X-10430543Y25679905D02*
X-10478162Y25632286D01*
X-10478162Y25632286D02*
X-10525781Y25537048D01*
X-10525781Y25537048D02*
X-10525781Y25346572D01*
X-10525781Y25346572D02*
X-10478162Y25251334D01*
X-10478162Y25251334D02*
X-10430543Y25203715D01*
X-10430543Y25203715D02*
X-10335305Y25156096D01*
X-10335305Y25156096D02*
X-10287686Y25156096D01*
X-10287686Y25156096D02*
X-10192448Y25203715D01*
X-10192448Y25203715D02*
X-10144829Y25251334D01*
X-10144829Y25251334D02*
X-10097210Y25346572D01*
X-10097210Y25346572D02*
X-10097210Y25537048D01*
X-10097210Y25537048D02*
X-10049591Y25632286D01*
X-10049591Y25632286D02*
X-10001972Y25679905D01*
X-10001972Y25679905D02*
X-9906734Y25727524D01*
X-9906734Y25727524D02*
X-9716258Y25727524D01*
X-9716258Y25727524D02*
X-9621020Y25679905D01*
X-9621020Y25679905D02*
X-9573400Y25632286D01*
X-9573400Y25632286D02*
X-9525781Y25537048D01*
X-9525781Y25537048D02*
X-9525781Y25346572D01*
X-9525781Y25346572D02*
X-9573400Y25251334D01*
X-9573400Y25251334D02*
X-9621020Y25203715D01*
X-9621020Y25203715D02*
X-9716258Y25156096D01*
X-9716258Y25156096D02*
X-9906734Y25156096D01*
X-9906734Y25156096D02*
X-10001972Y25203715D01*
X-10001972Y25203715D02*
X-10049591Y25251334D01*
X-10049591Y25251334D02*
X-10097210Y25346572D01*
X40228685Y-3824872D02*
X40228685Y-2824872D01*
X40228685Y-2824872D02*
X39990590Y-2824872D01*
X39990590Y-2824872D02*
X39847733Y-2872491D01*
X39847733Y-2872491D02*
X39752495Y-2967729D01*
X39752495Y-2967729D02*
X39704876Y-3062967D01*
X39704876Y-3062967D02*
X39657257Y-3253443D01*
X39657257Y-3253443D02*
X39657257Y-3396300D01*
X39657257Y-3396300D02*
X39704876Y-3586776D01*
X39704876Y-3586776D02*
X39752495Y-3682014D01*
X39752495Y-3682014D02*
X39847733Y-3777253D01*
X39847733Y-3777253D02*
X39990590Y-3824872D01*
X39990590Y-3824872D02*
X40228685Y-3824872D01*
X38704876Y-3824872D02*
X39276304Y-3824872D01*
X38990590Y-3824872D02*
X38990590Y-2824872D01*
X38990590Y-2824872D02*
X39085828Y-2967729D01*
X39085828Y-2967729D02*
X39181066Y-3062967D01*
X39181066Y-3062967D02*
X39276304Y-3110586D01*
X38371542Y-2824872D02*
X37752495Y-2824872D01*
X37752495Y-2824872D02*
X38085828Y-3205824D01*
X38085828Y-3205824D02*
X37942971Y-3205824D01*
X37942971Y-3205824D02*
X37847733Y-3253443D01*
X37847733Y-3253443D02*
X37800114Y-3301062D01*
X37800114Y-3301062D02*
X37752495Y-3396300D01*
X37752495Y-3396300D02*
X37752495Y-3634395D01*
X37752495Y-3634395D02*
X37800114Y-3729633D01*
X37800114Y-3729633D02*
X37847733Y-3777253D01*
X37847733Y-3777253D02*
X37942971Y-3824872D01*
X37942971Y-3824872D02*
X38228685Y-3824872D01*
X38228685Y-3824872D02*
X38323923Y-3777253D01*
X38323923Y-3777253D02*
X38371542Y-3729633D01*
X33361390Y38449572D02*
X33361390Y37973381D01*
X33694723Y38973381D02*
X33361390Y38449572D01*
X33361390Y38449572D02*
X33028057Y38973381D01*
X32742342Y38878143D02*
X32694723Y38925762D01*
X32694723Y38925762D02*
X32599485Y38973381D01*
X32599485Y38973381D02*
X32361390Y38973381D01*
X32361390Y38973381D02*
X32266152Y38925762D01*
X32266152Y38925762D02*
X32218533Y38878143D01*
X32218533Y38878143D02*
X32170914Y38782905D01*
X32170914Y38782905D02*
X32170914Y38687667D01*
X32170914Y38687667D02*
X32218533Y38544810D01*
X32218533Y38544810D02*
X32789961Y37973381D01*
X32789961Y37973381D02*
X32170914Y37973381D01*
X39701419Y15951105D02*
X40510942Y15951105D01*
X40510942Y15951105D02*
X40606180Y15903486D01*
X40606180Y15903486D02*
X40653800Y15855867D01*
X40653800Y15855867D02*
X40701419Y15760629D01*
X40701419Y15760629D02*
X40701419Y15570153D01*
X40701419Y15570153D02*
X40653800Y15474915D01*
X40653800Y15474915D02*
X40606180Y15427296D01*
X40606180Y15427296D02*
X40510942Y15379677D01*
X40510942Y15379677D02*
X39701419Y15379677D01*
X39701419Y14998724D02*
X39701419Y14379677D01*
X39701419Y14379677D02*
X40082371Y14713010D01*
X40082371Y14713010D02*
X40082371Y14570153D01*
X40082371Y14570153D02*
X40129990Y14474915D01*
X40129990Y14474915D02*
X40177609Y14427296D01*
X40177609Y14427296D02*
X40272847Y14379677D01*
X40272847Y14379677D02*
X40510942Y14379677D01*
X40510942Y14379677D02*
X40606180Y14427296D01*
X40606180Y14427296D02*
X40653800Y14474915D01*
X40653800Y14474915D02*
X40701419Y14570153D01*
X40701419Y14570153D02*
X40701419Y14855867D01*
X40701419Y14855867D02*
X40653800Y14951105D01*
X40653800Y14951105D02*
X40606180Y14998724D01*
X43943494Y-3799472D02*
X43943494Y-2799472D01*
X43943494Y-2799472D02*
X43705399Y-2799472D01*
X43705399Y-2799472D02*
X43562542Y-2847091D01*
X43562542Y-2847091D02*
X43467304Y-2942329D01*
X43467304Y-2942329D02*
X43419685Y-3037567D01*
X43419685Y-3037567D02*
X43372066Y-3228043D01*
X43372066Y-3228043D02*
X43372066Y-3370900D01*
X43372066Y-3370900D02*
X43419685Y-3561376D01*
X43419685Y-3561376D02*
X43467304Y-3656614D01*
X43467304Y-3656614D02*
X43562542Y-3751853D01*
X43562542Y-3751853D02*
X43705399Y-3799472D01*
X43705399Y-3799472D02*
X43943494Y-3799472D01*
X42419685Y-3799472D02*
X42991113Y-3799472D01*
X42705399Y-3799472D02*
X42705399Y-2799472D01*
X42705399Y-2799472D02*
X42800637Y-2942329D01*
X42800637Y-2942329D02*
X42895875Y-3037567D01*
X42895875Y-3037567D02*
X42991113Y-3085186D01*
X45744619Y2833667D02*
X45268428Y3167000D01*
X45744619Y3405095D02*
X44744619Y3405095D01*
X44744619Y3405095D02*
X44744619Y3024143D01*
X44744619Y3024143D02*
X44792238Y2928905D01*
X44792238Y2928905D02*
X44839857Y2881286D01*
X44839857Y2881286D02*
X44935095Y2833667D01*
X44935095Y2833667D02*
X45077952Y2833667D01*
X45077952Y2833667D02*
X45173190Y2881286D01*
X45173190Y2881286D02*
X45220809Y2928905D01*
X45220809Y2928905D02*
X45268428Y3024143D01*
X45268428Y3024143D02*
X45268428Y3405095D01*
X44744619Y2500333D02*
X44744619Y1881286D01*
X44744619Y1881286D02*
X45125571Y2214619D01*
X45125571Y2214619D02*
X45125571Y2071762D01*
X45125571Y2071762D02*
X45173190Y1976524D01*
X45173190Y1976524D02*
X45220809Y1928905D01*
X45220809Y1928905D02*
X45316047Y1881286D01*
X45316047Y1881286D02*
X45554142Y1881286D01*
X45554142Y1881286D02*
X45649380Y1928905D01*
X45649380Y1928905D02*
X45697000Y1976524D01*
X45697000Y1976524D02*
X45744619Y2071762D01*
X45744619Y2071762D02*
X45744619Y2357476D01*
X45744619Y2357476D02*
X45697000Y2452714D01*
X45697000Y2452714D02*
X45649380Y2500333D01*
X50147457Y54156781D02*
X50480790Y54632972D01*
X50718885Y54156781D02*
X50718885Y55156781D01*
X50718885Y55156781D02*
X50337933Y55156781D01*
X50337933Y55156781D02*
X50242695Y55109162D01*
X50242695Y55109162D02*
X50195076Y55061543D01*
X50195076Y55061543D02*
X50147457Y54966305D01*
X50147457Y54966305D02*
X50147457Y54823448D01*
X50147457Y54823448D02*
X50195076Y54728210D01*
X50195076Y54728210D02*
X50242695Y54680591D01*
X50242695Y54680591D02*
X50337933Y54632972D01*
X50337933Y54632972D02*
X50718885Y54632972D01*
X49766504Y55061543D02*
X49718885Y55109162D01*
X49718885Y55109162D02*
X49623647Y55156781D01*
X49623647Y55156781D02*
X49385552Y55156781D01*
X49385552Y55156781D02*
X49290314Y55109162D01*
X49290314Y55109162D02*
X49242695Y55061543D01*
X49242695Y55061543D02*
X49195076Y54966305D01*
X49195076Y54966305D02*
X49195076Y54871067D01*
X49195076Y54871067D02*
X49242695Y54728210D01*
X49242695Y54728210D02*
X49814123Y54156781D01*
X49814123Y54156781D02*
X49195076Y54156781D01*
X48576028Y55156781D02*
X48480790Y55156781D01*
X48480790Y55156781D02*
X48385552Y55109162D01*
X48385552Y55109162D02*
X48337933Y55061543D01*
X48337933Y55061543D02*
X48290314Y54966305D01*
X48290314Y54966305D02*
X48242695Y54775829D01*
X48242695Y54775829D02*
X48242695Y54537734D01*
X48242695Y54537734D02*
X48290314Y54347258D01*
X48290314Y54347258D02*
X48337933Y54252020D01*
X48337933Y54252020D02*
X48385552Y54204400D01*
X48385552Y54204400D02*
X48480790Y54156781D01*
X48480790Y54156781D02*
X48576028Y54156781D01*
X48576028Y54156781D02*
X48671266Y54204400D01*
X48671266Y54204400D02*
X48718885Y54252020D01*
X48718885Y54252020D02*
X48766504Y54347258D01*
X48766504Y54347258D02*
X48814123Y54537734D01*
X48814123Y54537734D02*
X48814123Y54775829D01*
X48814123Y54775829D02*
X48766504Y54966305D01*
X48766504Y54966305D02*
X48718885Y55061543D01*
X48718885Y55061543D02*
X48671266Y55109162D01*
X48671266Y55109162D02*
X48576028Y55156781D01*
X15721819Y18372058D02*
X15245628Y18705391D01*
X15721819Y18943486D02*
X14721819Y18943486D01*
X14721819Y18943486D02*
X14721819Y18562534D01*
X14721819Y18562534D02*
X14769438Y18467296D01*
X14769438Y18467296D02*
X14817057Y18419677D01*
X14817057Y18419677D02*
X14912295Y18372058D01*
X14912295Y18372058D02*
X15055152Y18372058D01*
X15055152Y18372058D02*
X15150390Y18419677D01*
X15150390Y18419677D02*
X15198009Y18467296D01*
X15198009Y18467296D02*
X15245628Y18562534D01*
X15245628Y18562534D02*
X15245628Y18943486D01*
X14721819Y18038724D02*
X14721819Y17419677D01*
X14721819Y17419677D02*
X15102771Y17753010D01*
X15102771Y17753010D02*
X15102771Y17610153D01*
X15102771Y17610153D02*
X15150390Y17514915D01*
X15150390Y17514915D02*
X15198009Y17467296D01*
X15198009Y17467296D02*
X15293247Y17419677D01*
X15293247Y17419677D02*
X15531342Y17419677D01*
X15531342Y17419677D02*
X15626580Y17467296D01*
X15626580Y17467296D02*
X15674200Y17514915D01*
X15674200Y17514915D02*
X15721819Y17610153D01*
X15721819Y17610153D02*
X15721819Y17895867D01*
X15721819Y17895867D02*
X15674200Y17991105D01*
X15674200Y17991105D02*
X15626580Y18038724D01*
X14721819Y17086343D02*
X14721819Y16467296D01*
X14721819Y16467296D02*
X15102771Y16800629D01*
X15102771Y16800629D02*
X15102771Y16657772D01*
X15102771Y16657772D02*
X15150390Y16562534D01*
X15150390Y16562534D02*
X15198009Y16514915D01*
X15198009Y16514915D02*
X15293247Y16467296D01*
X15293247Y16467296D02*
X15531342Y16467296D01*
X15531342Y16467296D02*
X15626580Y16514915D01*
X15626580Y16514915D02*
X15674200Y16562534D01*
X15674200Y16562534D02*
X15721819Y16657772D01*
X15721819Y16657772D02*
X15721819Y16943486D01*
X15721819Y16943486D02*
X15674200Y17038724D01*
X15674200Y17038724D02*
X15626580Y17086343D01*
X12699219Y18372058D02*
X12223028Y18705391D01*
X12699219Y18943486D02*
X11699219Y18943486D01*
X11699219Y18943486D02*
X11699219Y18562534D01*
X11699219Y18562534D02*
X11746838Y18467296D01*
X11746838Y18467296D02*
X11794457Y18419677D01*
X11794457Y18419677D02*
X11889695Y18372058D01*
X11889695Y18372058D02*
X12032552Y18372058D01*
X12032552Y18372058D02*
X12127790Y18419677D01*
X12127790Y18419677D02*
X12175409Y18467296D01*
X12175409Y18467296D02*
X12223028Y18562534D01*
X12223028Y18562534D02*
X12223028Y18943486D01*
X11699219Y18038724D02*
X11699219Y17419677D01*
X11699219Y17419677D02*
X12080171Y17753010D01*
X12080171Y17753010D02*
X12080171Y17610153D01*
X12080171Y17610153D02*
X12127790Y17514915D01*
X12127790Y17514915D02*
X12175409Y17467296D01*
X12175409Y17467296D02*
X12270647Y17419677D01*
X12270647Y17419677D02*
X12508742Y17419677D01*
X12508742Y17419677D02*
X12603980Y17467296D01*
X12603980Y17467296D02*
X12651600Y17514915D01*
X12651600Y17514915D02*
X12699219Y17610153D01*
X12699219Y17610153D02*
X12699219Y17895867D01*
X12699219Y17895867D02*
X12651600Y17991105D01*
X12651600Y17991105D02*
X12603980Y18038724D01*
X11794457Y17038724D02*
X11746838Y16991105D01*
X11746838Y16991105D02*
X11699219Y16895867D01*
X11699219Y16895867D02*
X11699219Y16657772D01*
X11699219Y16657772D02*
X11746838Y16562534D01*
X11746838Y16562534D02*
X11794457Y16514915D01*
X11794457Y16514915D02*
X11889695Y16467296D01*
X11889695Y16467296D02*
X11984933Y16467296D01*
X11984933Y16467296D02*
X12127790Y16514915D01*
X12127790Y16514915D02*
X12699219Y17086343D01*
X12699219Y17086343D02*
X12699219Y16467296D01*
X49419489Y57835381D02*
X49419489Y58835381D01*
X48371871Y57930620D02*
X48419490Y57883000D01*
X48419490Y57883000D02*
X48562347Y57835381D01*
X48562347Y57835381D02*
X48657585Y57835381D01*
X48657585Y57835381D02*
X48800442Y57883000D01*
X48800442Y57883000D02*
X48895680Y57978239D01*
X48895680Y57978239D02*
X48943299Y58073477D01*
X48943299Y58073477D02*
X48990918Y58263953D01*
X48990918Y58263953D02*
X48990918Y58406810D01*
X48990918Y58406810D02*
X48943299Y58597286D01*
X48943299Y58597286D02*
X48895680Y58692524D01*
X48895680Y58692524D02*
X48800442Y58787762D01*
X48800442Y58787762D02*
X48657585Y58835381D01*
X48657585Y58835381D02*
X48562347Y58835381D01*
X48562347Y58835381D02*
X48419490Y58787762D01*
X48419490Y58787762D02*
X48371871Y58740143D01*
X48038537Y58835381D02*
X47419490Y58835381D01*
X47419490Y58835381D02*
X47752823Y58454429D01*
X47752823Y58454429D02*
X47609966Y58454429D01*
X47609966Y58454429D02*
X47514728Y58406810D01*
X47514728Y58406810D02*
X47467109Y58359191D01*
X47467109Y58359191D02*
X47419490Y58263953D01*
X47419490Y58263953D02*
X47419490Y58025858D01*
X47419490Y58025858D02*
X47467109Y57930620D01*
X47467109Y57930620D02*
X47514728Y57883000D01*
X47514728Y57883000D02*
X47609966Y57835381D01*
X47609966Y57835381D02*
X47895680Y57835381D01*
X47895680Y57835381D02*
X47990918Y57883000D01*
X47990918Y57883000D02*
X48038537Y57930620D01*
X34361780Y16241058D02*
X34409400Y16288677D01*
X34409400Y16288677D02*
X34457019Y16431534D01*
X34457019Y16431534D02*
X34457019Y16526772D01*
X34457019Y16526772D02*
X34409400Y16669629D01*
X34409400Y16669629D02*
X34314161Y16764867D01*
X34314161Y16764867D02*
X34218923Y16812486D01*
X34218923Y16812486D02*
X34028447Y16860105D01*
X34028447Y16860105D02*
X33885590Y16860105D01*
X33885590Y16860105D02*
X33695114Y16812486D01*
X33695114Y16812486D02*
X33599876Y16764867D01*
X33599876Y16764867D02*
X33504638Y16669629D01*
X33504638Y16669629D02*
X33457019Y16526772D01*
X33457019Y16526772D02*
X33457019Y16431534D01*
X33457019Y16431534D02*
X33504638Y16288677D01*
X33504638Y16288677D02*
X33552257Y16241058D01*
X33552257Y15860105D02*
X33504638Y15812486D01*
X33504638Y15812486D02*
X33457019Y15717248D01*
X33457019Y15717248D02*
X33457019Y15479153D01*
X33457019Y15479153D02*
X33504638Y15383915D01*
X33504638Y15383915D02*
X33552257Y15336296D01*
X33552257Y15336296D02*
X33647495Y15288677D01*
X33647495Y15288677D02*
X33742733Y15288677D01*
X33742733Y15288677D02*
X33885590Y15336296D01*
X33885590Y15336296D02*
X34457019Y15907724D01*
X34457019Y15907724D02*
X34457019Y15288677D01*
X34457019Y14812486D02*
X34457019Y14622010D01*
X34457019Y14622010D02*
X34409400Y14526772D01*
X34409400Y14526772D02*
X34361780Y14479153D01*
X34361780Y14479153D02*
X34218923Y14383915D01*
X34218923Y14383915D02*
X34028447Y14336296D01*
X34028447Y14336296D02*
X33647495Y14336296D01*
X33647495Y14336296D02*
X33552257Y14383915D01*
X33552257Y14383915D02*
X33504638Y14431534D01*
X33504638Y14431534D02*
X33457019Y14526772D01*
X33457019Y14526772D02*
X33457019Y14717248D01*
X33457019Y14717248D02*
X33504638Y14812486D01*
X33504638Y14812486D02*
X33552257Y14860105D01*
X33552257Y14860105D02*
X33647495Y14907724D01*
X33647495Y14907724D02*
X33885590Y14907724D01*
X33885590Y14907724D02*
X33980828Y14860105D01*
X33980828Y14860105D02*
X34028447Y14812486D01*
X34028447Y14812486D02*
X34076066Y14717248D01*
X34076066Y14717248D02*
X34076066Y14526772D01*
X34076066Y14526772D02*
X34028447Y14431534D01*
X34028447Y14431534D02*
X33980828Y14383915D01*
X33980828Y14383915D02*
X33885590Y14336296D01*
X13762819Y30360858D02*
X13286628Y30694191D01*
X13762819Y30932286D02*
X12762819Y30932286D01*
X12762819Y30932286D02*
X12762819Y30551334D01*
X12762819Y30551334D02*
X12810438Y30456096D01*
X12810438Y30456096D02*
X12858057Y30408477D01*
X12858057Y30408477D02*
X12953295Y30360858D01*
X12953295Y30360858D02*
X13096152Y30360858D01*
X13096152Y30360858D02*
X13191390Y30408477D01*
X13191390Y30408477D02*
X13239009Y30456096D01*
X13239009Y30456096D02*
X13286628Y30551334D01*
X13286628Y30551334D02*
X13286628Y30932286D01*
X12858057Y29979905D02*
X12810438Y29932286D01*
X12810438Y29932286D02*
X12762819Y29837048D01*
X12762819Y29837048D02*
X12762819Y29598953D01*
X12762819Y29598953D02*
X12810438Y29503715D01*
X12810438Y29503715D02*
X12858057Y29456096D01*
X12858057Y29456096D02*
X12953295Y29408477D01*
X12953295Y29408477D02*
X13048533Y29408477D01*
X13048533Y29408477D02*
X13191390Y29456096D01*
X13191390Y29456096D02*
X13762819Y30027524D01*
X13762819Y30027524D02*
X13762819Y29408477D01*
X12762819Y28503715D02*
X12762819Y28979905D01*
X12762819Y28979905D02*
X13239009Y29027524D01*
X13239009Y29027524D02*
X13191390Y28979905D01*
X13191390Y28979905D02*
X13143771Y28884667D01*
X13143771Y28884667D02*
X13143771Y28646572D01*
X13143771Y28646572D02*
X13191390Y28551334D01*
X13191390Y28551334D02*
X13239009Y28503715D01*
X13239009Y28503715D02*
X13334247Y28456096D01*
X13334247Y28456096D02*
X13572342Y28456096D01*
X13572342Y28456096D02*
X13667580Y28503715D01*
X13667580Y28503715D02*
X13715200Y28551334D01*
X13715200Y28551334D02*
X13762819Y28646572D01*
X13762819Y28646572D02*
X13762819Y28884667D01*
X13762819Y28884667D02*
X13715200Y28979905D01*
X13715200Y28979905D02*
X13667580Y29027524D01*
X44576219Y2859067D02*
X44100028Y3192400D01*
X44576219Y3430495D02*
X43576219Y3430495D01*
X43576219Y3430495D02*
X43576219Y3049543D01*
X43576219Y3049543D02*
X43623838Y2954305D01*
X43623838Y2954305D02*
X43671457Y2906686D01*
X43671457Y2906686D02*
X43766695Y2859067D01*
X43766695Y2859067D02*
X43909552Y2859067D01*
X43909552Y2859067D02*
X44004790Y2906686D01*
X44004790Y2906686D02*
X44052409Y2954305D01*
X44052409Y2954305D02*
X44100028Y3049543D01*
X44100028Y3049543D02*
X44100028Y3430495D01*
X43671457Y2478114D02*
X43623838Y2430495D01*
X43623838Y2430495D02*
X43576219Y2335257D01*
X43576219Y2335257D02*
X43576219Y2097162D01*
X43576219Y2097162D02*
X43623838Y2001924D01*
X43623838Y2001924D02*
X43671457Y1954305D01*
X43671457Y1954305D02*
X43766695Y1906686D01*
X43766695Y1906686D02*
X43861933Y1906686D01*
X43861933Y1906686D02*
X44004790Y1954305D01*
X44004790Y1954305D02*
X44576219Y2525733D01*
X44576219Y2525733D02*
X44576219Y1906686D01*
X22932219Y30360858D02*
X22456028Y30694191D01*
X22932219Y30932286D02*
X21932219Y30932286D01*
X21932219Y30932286D02*
X21932219Y30551334D01*
X21932219Y30551334D02*
X21979838Y30456096D01*
X21979838Y30456096D02*
X22027457Y30408477D01*
X22027457Y30408477D02*
X22122695Y30360858D01*
X22122695Y30360858D02*
X22265552Y30360858D01*
X22265552Y30360858D02*
X22360790Y30408477D01*
X22360790Y30408477D02*
X22408409Y30456096D01*
X22408409Y30456096D02*
X22456028Y30551334D01*
X22456028Y30551334D02*
X22456028Y30932286D01*
X22027457Y29979905D02*
X21979838Y29932286D01*
X21979838Y29932286D02*
X21932219Y29837048D01*
X21932219Y29837048D02*
X21932219Y29598953D01*
X21932219Y29598953D02*
X21979838Y29503715D01*
X21979838Y29503715D02*
X22027457Y29456096D01*
X22027457Y29456096D02*
X22122695Y29408477D01*
X22122695Y29408477D02*
X22217933Y29408477D01*
X22217933Y29408477D02*
X22360790Y29456096D01*
X22360790Y29456096D02*
X22932219Y30027524D01*
X22932219Y30027524D02*
X22932219Y29408477D01*
X22360790Y28837048D02*
X22313171Y28932286D01*
X22313171Y28932286D02*
X22265552Y28979905D01*
X22265552Y28979905D02*
X22170314Y29027524D01*
X22170314Y29027524D02*
X22122695Y29027524D01*
X22122695Y29027524D02*
X22027457Y28979905D01*
X22027457Y28979905D02*
X21979838Y28932286D01*
X21979838Y28932286D02*
X21932219Y28837048D01*
X21932219Y28837048D02*
X21932219Y28646572D01*
X21932219Y28646572D02*
X21979838Y28551334D01*
X21979838Y28551334D02*
X22027457Y28503715D01*
X22027457Y28503715D02*
X22122695Y28456096D01*
X22122695Y28456096D02*
X22170314Y28456096D01*
X22170314Y28456096D02*
X22265552Y28503715D01*
X22265552Y28503715D02*
X22313171Y28551334D01*
X22313171Y28551334D02*
X22360790Y28646572D01*
X22360790Y28646572D02*
X22360790Y28837048D01*
X22360790Y28837048D02*
X22408409Y28932286D01*
X22408409Y28932286D02*
X22456028Y28979905D01*
X22456028Y28979905D02*
X22551266Y29027524D01*
X22551266Y29027524D02*
X22741742Y29027524D01*
X22741742Y29027524D02*
X22836980Y28979905D01*
X22836980Y28979905D02*
X22884600Y28932286D01*
X22884600Y28932286D02*
X22932219Y28837048D01*
X22932219Y28837048D02*
X22932219Y28646572D01*
X22932219Y28646572D02*
X22884600Y28551334D01*
X22884600Y28551334D02*
X22836980Y28503715D01*
X22836980Y28503715D02*
X22741742Y28456096D01*
X22741742Y28456096D02*
X22551266Y28456096D01*
X22551266Y28456096D02*
X22456028Y28503715D01*
X22456028Y28503715D02*
X22408409Y28551334D01*
X22408409Y28551334D02*
X22360790Y28646572D01*
X7111780Y23071058D02*
X7159400Y23118677D01*
X7159400Y23118677D02*
X7207019Y23261534D01*
X7207019Y23261534D02*
X7207019Y23356772D01*
X7207019Y23356772D02*
X7159400Y23499629D01*
X7159400Y23499629D02*
X7064161Y23594867D01*
X7064161Y23594867D02*
X6968923Y23642486D01*
X6968923Y23642486D02*
X6778447Y23690105D01*
X6778447Y23690105D02*
X6635590Y23690105D01*
X6635590Y23690105D02*
X6445114Y23642486D01*
X6445114Y23642486D02*
X6349876Y23594867D01*
X6349876Y23594867D02*
X6254638Y23499629D01*
X6254638Y23499629D02*
X6207019Y23356772D01*
X6207019Y23356772D02*
X6207019Y23261534D01*
X6207019Y23261534D02*
X6254638Y23118677D01*
X6254638Y23118677D02*
X6302257Y23071058D01*
X6207019Y22737724D02*
X6207019Y22118677D01*
X6207019Y22118677D02*
X6587971Y22452010D01*
X6587971Y22452010D02*
X6587971Y22309153D01*
X6587971Y22309153D02*
X6635590Y22213915D01*
X6635590Y22213915D02*
X6683209Y22166296D01*
X6683209Y22166296D02*
X6778447Y22118677D01*
X6778447Y22118677D02*
X7016542Y22118677D01*
X7016542Y22118677D02*
X7111780Y22166296D01*
X7111780Y22166296D02*
X7159400Y22213915D01*
X7159400Y22213915D02*
X7207019Y22309153D01*
X7207019Y22309153D02*
X7207019Y22594867D01*
X7207019Y22594867D02*
X7159400Y22690105D01*
X7159400Y22690105D02*
X7111780Y22737724D01*
X6207019Y21499629D02*
X6207019Y21404391D01*
X6207019Y21404391D02*
X6254638Y21309153D01*
X6254638Y21309153D02*
X6302257Y21261534D01*
X6302257Y21261534D02*
X6397495Y21213915D01*
X6397495Y21213915D02*
X6587971Y21166296D01*
X6587971Y21166296D02*
X6826066Y21166296D01*
X6826066Y21166296D02*
X7016542Y21213915D01*
X7016542Y21213915D02*
X7111780Y21261534D01*
X7111780Y21261534D02*
X7159400Y21309153D01*
X7159400Y21309153D02*
X7207019Y21404391D01*
X7207019Y21404391D02*
X7207019Y21499629D01*
X7207019Y21499629D02*
X7159400Y21594867D01*
X7159400Y21594867D02*
X7111780Y21642486D01*
X7111780Y21642486D02*
X7016542Y21690105D01*
X7016542Y21690105D02*
X6826066Y21737724D01*
X6826066Y21737724D02*
X6587971Y21737724D01*
X6587971Y21737724D02*
X6397495Y21690105D01*
X6397495Y21690105D02*
X6302257Y21642486D01*
X6302257Y21642486D02*
X6254638Y21594867D01*
X6254638Y21594867D02*
X6207019Y21499629D01*
X43905466Y55704581D02*
X44381656Y55704581D01*
X44381656Y55704581D02*
X44381656Y56704581D01*
X43048323Y55704581D02*
X43619751Y55704581D01*
X43334037Y55704581D02*
X43334037Y56704581D01*
X43334037Y56704581D02*
X43429275Y56561724D01*
X43429275Y56561724D02*
X43524513Y56466486D01*
X43524513Y56466486D02*
X43619751Y56418867D01*
X34932857Y10824381D02*
X35266190Y11300572D01*
X35504285Y10824381D02*
X35504285Y11824381D01*
X35504285Y11824381D02*
X35123333Y11824381D01*
X35123333Y11824381D02*
X35028095Y11776762D01*
X35028095Y11776762D02*
X34980476Y11729143D01*
X34980476Y11729143D02*
X34932857Y11633905D01*
X34932857Y11633905D02*
X34932857Y11491048D01*
X34932857Y11491048D02*
X34980476Y11395810D01*
X34980476Y11395810D02*
X35028095Y11348191D01*
X35028095Y11348191D02*
X35123333Y11300572D01*
X35123333Y11300572D02*
X35504285Y11300572D01*
X34075714Y11491048D02*
X34075714Y10824381D01*
X34313809Y11872000D02*
X34551904Y11157715D01*
X34551904Y11157715D02*
X33932857Y11157715D01*
X33123333Y11491048D02*
X33123333Y10824381D01*
X33361428Y11872000D02*
X33599523Y11157715D01*
X33599523Y11157715D02*
X32980476Y11157715D01*
X27964619Y18372058D02*
X27488428Y18705391D01*
X27964619Y18943486D02*
X26964619Y18943486D01*
X26964619Y18943486D02*
X26964619Y18562534D01*
X26964619Y18562534D02*
X27012238Y18467296D01*
X27012238Y18467296D02*
X27059857Y18419677D01*
X27059857Y18419677D02*
X27155095Y18372058D01*
X27155095Y18372058D02*
X27297952Y18372058D01*
X27297952Y18372058D02*
X27393190Y18419677D01*
X27393190Y18419677D02*
X27440809Y18467296D01*
X27440809Y18467296D02*
X27488428Y18562534D01*
X27488428Y18562534D02*
X27488428Y18943486D01*
X26964619Y18038724D02*
X26964619Y17419677D01*
X26964619Y17419677D02*
X27345571Y17753010D01*
X27345571Y17753010D02*
X27345571Y17610153D01*
X27345571Y17610153D02*
X27393190Y17514915D01*
X27393190Y17514915D02*
X27440809Y17467296D01*
X27440809Y17467296D02*
X27536047Y17419677D01*
X27536047Y17419677D02*
X27774142Y17419677D01*
X27774142Y17419677D02*
X27869380Y17467296D01*
X27869380Y17467296D02*
X27917000Y17514915D01*
X27917000Y17514915D02*
X27964619Y17610153D01*
X27964619Y17610153D02*
X27964619Y17895867D01*
X27964619Y17895867D02*
X27917000Y17991105D01*
X27917000Y17991105D02*
X27869380Y18038724D01*
X26964619Y17086343D02*
X26964619Y16419677D01*
X26964619Y16419677D02*
X27964619Y16848248D01*
X17855980Y21648658D02*
X17903600Y21696277D01*
X17903600Y21696277D02*
X17951219Y21839134D01*
X17951219Y21839134D02*
X17951219Y21934372D01*
X17951219Y21934372D02*
X17903600Y22077229D01*
X17903600Y22077229D02*
X17808361Y22172467D01*
X17808361Y22172467D02*
X17713123Y22220086D01*
X17713123Y22220086D02*
X17522647Y22267705D01*
X17522647Y22267705D02*
X17379790Y22267705D01*
X17379790Y22267705D02*
X17189314Y22220086D01*
X17189314Y22220086D02*
X17094076Y22172467D01*
X17094076Y22172467D02*
X16998838Y22077229D01*
X16998838Y22077229D02*
X16951219Y21934372D01*
X16951219Y21934372D02*
X16951219Y21839134D01*
X16951219Y21839134D02*
X16998838Y21696277D01*
X16998838Y21696277D02*
X17046457Y21648658D01*
X17046457Y21267705D02*
X16998838Y21220086D01*
X16998838Y21220086D02*
X16951219Y21124848D01*
X16951219Y21124848D02*
X16951219Y20886753D01*
X16951219Y20886753D02*
X16998838Y20791515D01*
X16998838Y20791515D02*
X17046457Y20743896D01*
X17046457Y20743896D02*
X17141695Y20696277D01*
X17141695Y20696277D02*
X17236933Y20696277D01*
X17236933Y20696277D02*
X17379790Y20743896D01*
X17379790Y20743896D02*
X17951219Y21315324D01*
X17951219Y21315324D02*
X17951219Y20696277D01*
X17046457Y20315324D02*
X16998838Y20267705D01*
X16998838Y20267705D02*
X16951219Y20172467D01*
X16951219Y20172467D02*
X16951219Y19934372D01*
X16951219Y19934372D02*
X16998838Y19839134D01*
X16998838Y19839134D02*
X17046457Y19791515D01*
X17046457Y19791515D02*
X17141695Y19743896D01*
X17141695Y19743896D02*
X17236933Y19743896D01*
X17236933Y19743896D02*
X17379790Y19791515D01*
X17379790Y19791515D02*
X17951219Y20362943D01*
X17951219Y20362943D02*
X17951219Y19743896D01*
X-32072343Y27708581D02*
X-31739010Y28184772D01*
X-31500915Y27708581D02*
X-31500915Y28708581D01*
X-31500915Y28708581D02*
X-31881867Y28708581D01*
X-31881867Y28708581D02*
X-31977105Y28660962D01*
X-31977105Y28660962D02*
X-32024724Y28613343D01*
X-32024724Y28613343D02*
X-32072343Y28518105D01*
X-32072343Y28518105D02*
X-32072343Y28375248D01*
X-32072343Y28375248D02*
X-32024724Y28280010D01*
X-32024724Y28280010D02*
X-31977105Y28232391D01*
X-31977105Y28232391D02*
X-31881867Y28184772D01*
X-31881867Y28184772D02*
X-31500915Y28184772D01*
X-33024724Y27708581D02*
X-32453296Y27708581D01*
X-32739010Y27708581D02*
X-32739010Y28708581D01*
X-32739010Y28708581D02*
X-32643772Y28565724D01*
X-32643772Y28565724D02*
X-32548534Y28470486D01*
X-32548534Y28470486D02*
X-32453296Y28422867D01*
X-33977105Y27708581D02*
X-33405677Y27708581D01*
X-33691391Y27708581D02*
X-33691391Y28708581D01*
X-33691391Y28708581D02*
X-33596153Y28565724D01*
X-33596153Y28565724D02*
X-33500915Y28470486D01*
X-33500915Y28470486D02*
X-33405677Y28422867D01*
X27859380Y16241058D02*
X27907000Y16288677D01*
X27907000Y16288677D02*
X27954619Y16431534D01*
X27954619Y16431534D02*
X27954619Y16526772D01*
X27954619Y16526772D02*
X27907000Y16669629D01*
X27907000Y16669629D02*
X27811761Y16764867D01*
X27811761Y16764867D02*
X27716523Y16812486D01*
X27716523Y16812486D02*
X27526047Y16860105D01*
X27526047Y16860105D02*
X27383190Y16860105D01*
X27383190Y16860105D02*
X27192714Y16812486D01*
X27192714Y16812486D02*
X27097476Y16764867D01*
X27097476Y16764867D02*
X27002238Y16669629D01*
X27002238Y16669629D02*
X26954619Y16526772D01*
X26954619Y16526772D02*
X26954619Y16431534D01*
X26954619Y16431534D02*
X27002238Y16288677D01*
X27002238Y16288677D02*
X27049857Y16241058D01*
X27049857Y15860105D02*
X27002238Y15812486D01*
X27002238Y15812486D02*
X26954619Y15717248D01*
X26954619Y15717248D02*
X26954619Y15479153D01*
X26954619Y15479153D02*
X27002238Y15383915D01*
X27002238Y15383915D02*
X27049857Y15336296D01*
X27049857Y15336296D02*
X27145095Y15288677D01*
X27145095Y15288677D02*
X27240333Y15288677D01*
X27240333Y15288677D02*
X27383190Y15336296D01*
X27383190Y15336296D02*
X27954619Y15907724D01*
X27954619Y15907724D02*
X27954619Y15288677D01*
X26954619Y14431534D02*
X26954619Y14622010D01*
X26954619Y14622010D02*
X27002238Y14717248D01*
X27002238Y14717248D02*
X27049857Y14764867D01*
X27049857Y14764867D02*
X27192714Y14860105D01*
X27192714Y14860105D02*
X27383190Y14907724D01*
X27383190Y14907724D02*
X27764142Y14907724D01*
X27764142Y14907724D02*
X27859380Y14860105D01*
X27859380Y14860105D02*
X27907000Y14812486D01*
X27907000Y14812486D02*
X27954619Y14717248D01*
X27954619Y14717248D02*
X27954619Y14526772D01*
X27954619Y14526772D02*
X27907000Y14431534D01*
X27907000Y14431534D02*
X27859380Y14383915D01*
X27859380Y14383915D02*
X27764142Y14336296D01*
X27764142Y14336296D02*
X27526047Y14336296D01*
X27526047Y14336296D02*
X27430809Y14383915D01*
X27430809Y14383915D02*
X27383190Y14431534D01*
X27383190Y14431534D02*
X27335571Y14526772D01*
X27335571Y14526772D02*
X27335571Y14717248D01*
X27335571Y14717248D02*
X27383190Y14812486D01*
X27383190Y14812486D02*
X27430809Y14860105D01*
X27430809Y14860105D02*
X27526047Y14907724D01*
X87599380Y33960467D02*
X87647000Y34008086D01*
X87647000Y34008086D02*
X87694619Y34150943D01*
X87694619Y34150943D02*
X87694619Y34246181D01*
X87694619Y34246181D02*
X87647000Y34389038D01*
X87647000Y34389038D02*
X87551761Y34484276D01*
X87551761Y34484276D02*
X87456523Y34531895D01*
X87456523Y34531895D02*
X87266047Y34579514D01*
X87266047Y34579514D02*
X87123190Y34579514D01*
X87123190Y34579514D02*
X86932714Y34531895D01*
X86932714Y34531895D02*
X86837476Y34484276D01*
X86837476Y34484276D02*
X86742238Y34389038D01*
X86742238Y34389038D02*
X86694619Y34246181D01*
X86694619Y34246181D02*
X86694619Y34150943D01*
X86694619Y34150943D02*
X86742238Y34008086D01*
X86742238Y34008086D02*
X86789857Y33960467D01*
X86694619Y33627133D02*
X86694619Y33008086D01*
X86694619Y33008086D02*
X87075571Y33341419D01*
X87075571Y33341419D02*
X87075571Y33198562D01*
X87075571Y33198562D02*
X87123190Y33103324D01*
X87123190Y33103324D02*
X87170809Y33055705D01*
X87170809Y33055705D02*
X87266047Y33008086D01*
X87266047Y33008086D02*
X87504142Y33008086D01*
X87504142Y33008086D02*
X87599380Y33055705D01*
X87599380Y33055705D02*
X87647000Y33103324D01*
X87647000Y33103324D02*
X87694619Y33198562D01*
X87694619Y33198562D02*
X87694619Y33484276D01*
X87694619Y33484276D02*
X87647000Y33579514D01*
X87647000Y33579514D02*
X87599380Y33627133D01*
X18871419Y18372058D02*
X18395228Y18705391D01*
X18871419Y18943486D02*
X17871419Y18943486D01*
X17871419Y18943486D02*
X17871419Y18562534D01*
X17871419Y18562534D02*
X17919038Y18467296D01*
X17919038Y18467296D02*
X17966657Y18419677D01*
X17966657Y18419677D02*
X18061895Y18372058D01*
X18061895Y18372058D02*
X18204752Y18372058D01*
X18204752Y18372058D02*
X18299990Y18419677D01*
X18299990Y18419677D02*
X18347609Y18467296D01*
X18347609Y18467296D02*
X18395228Y18562534D01*
X18395228Y18562534D02*
X18395228Y18943486D01*
X17871419Y18038724D02*
X17871419Y17419677D01*
X17871419Y17419677D02*
X18252371Y17753010D01*
X18252371Y17753010D02*
X18252371Y17610153D01*
X18252371Y17610153D02*
X18299990Y17514915D01*
X18299990Y17514915D02*
X18347609Y17467296D01*
X18347609Y17467296D02*
X18442847Y17419677D01*
X18442847Y17419677D02*
X18680942Y17419677D01*
X18680942Y17419677D02*
X18776180Y17467296D01*
X18776180Y17467296D02*
X18823800Y17514915D01*
X18823800Y17514915D02*
X18871419Y17610153D01*
X18871419Y17610153D02*
X18871419Y17895867D01*
X18871419Y17895867D02*
X18823800Y17991105D01*
X18823800Y17991105D02*
X18776180Y18038724D01*
X18204752Y16562534D02*
X18871419Y16562534D01*
X17823800Y16800629D02*
X18538085Y17038724D01*
X18538085Y17038724D02*
X18538085Y16419677D01*
X-32072343Y17758581D02*
X-31739010Y18234772D01*
X-31500915Y17758581D02*
X-31500915Y18758581D01*
X-31500915Y18758581D02*
X-31881867Y18758581D01*
X-31881867Y18758581D02*
X-31977105Y18710962D01*
X-31977105Y18710962D02*
X-32024724Y18663343D01*
X-32024724Y18663343D02*
X-32072343Y18568105D01*
X-32072343Y18568105D02*
X-32072343Y18425248D01*
X-32072343Y18425248D02*
X-32024724Y18330010D01*
X-32024724Y18330010D02*
X-31977105Y18282391D01*
X-31977105Y18282391D02*
X-31881867Y18234772D01*
X-31881867Y18234772D02*
X-31500915Y18234772D01*
X-33024724Y17758581D02*
X-32453296Y17758581D01*
X-32739010Y17758581D02*
X-32739010Y18758581D01*
X-32739010Y18758581D02*
X-32643772Y18615724D01*
X-32643772Y18615724D02*
X-32548534Y18520486D01*
X-32548534Y18520486D02*
X-32453296Y18472867D01*
X-33881867Y18758581D02*
X-33691391Y18758581D01*
X-33691391Y18758581D02*
X-33596153Y18710962D01*
X-33596153Y18710962D02*
X-33548534Y18663343D01*
X-33548534Y18663343D02*
X-33453296Y18520486D01*
X-33453296Y18520486D02*
X-33405677Y18330010D01*
X-33405677Y18330010D02*
X-33405677Y17949058D01*
X-33405677Y17949058D02*
X-33453296Y17853820D01*
X-33453296Y17853820D02*
X-33500915Y17806200D01*
X-33500915Y17806200D02*
X-33596153Y17758581D01*
X-33596153Y17758581D02*
X-33786629Y17758581D01*
X-33786629Y17758581D02*
X-33881867Y17806200D01*
X-33881867Y17806200D02*
X-33929486Y17853820D01*
X-33929486Y17853820D02*
X-33977105Y17949058D01*
X-33977105Y17949058D02*
X-33977105Y18187153D01*
X-33977105Y18187153D02*
X-33929486Y18282391D01*
X-33929486Y18282391D02*
X-33881867Y18330010D01*
X-33881867Y18330010D02*
X-33786629Y18377629D01*
X-33786629Y18377629D02*
X-33596153Y18377629D01*
X-33596153Y18377629D02*
X-33500915Y18330010D01*
X-33500915Y18330010D02*
X-33453296Y18282391D01*
X-33453296Y18282391D02*
X-33405677Y18187153D01*
X48462419Y2782867D02*
X47986228Y3116200D01*
X48462419Y3354295D02*
X47462419Y3354295D01*
X47462419Y3354295D02*
X47462419Y2973343D01*
X47462419Y2973343D02*
X47510038Y2878105D01*
X47510038Y2878105D02*
X47557657Y2830486D01*
X47557657Y2830486D02*
X47652895Y2782867D01*
X47652895Y2782867D02*
X47795752Y2782867D01*
X47795752Y2782867D02*
X47890990Y2830486D01*
X47890990Y2830486D02*
X47938609Y2878105D01*
X47938609Y2878105D02*
X47986228Y2973343D01*
X47986228Y2973343D02*
X47986228Y3354295D01*
X47462419Y1878105D02*
X47462419Y2354295D01*
X47462419Y2354295D02*
X47938609Y2401914D01*
X47938609Y2401914D02*
X47890990Y2354295D01*
X47890990Y2354295D02*
X47843371Y2259057D01*
X47843371Y2259057D02*
X47843371Y2020962D01*
X47843371Y2020962D02*
X47890990Y1925724D01*
X47890990Y1925724D02*
X47938609Y1878105D01*
X47938609Y1878105D02*
X48033847Y1830486D01*
X48033847Y1830486D02*
X48271942Y1830486D01*
X48271942Y1830486D02*
X48367180Y1878105D01*
X48367180Y1878105D02*
X48414800Y1925724D01*
X48414800Y1925724D02*
X48462419Y2020962D01*
X48462419Y2020962D02*
X48462419Y2259057D01*
X48462419Y2259057D02*
X48414800Y2354295D01*
X48414800Y2354295D02*
X48367180Y2401914D01*
X22300419Y18372058D02*
X21824228Y18705391D01*
X22300419Y18943486D02*
X21300419Y18943486D01*
X21300419Y18943486D02*
X21300419Y18562534D01*
X21300419Y18562534D02*
X21348038Y18467296D01*
X21348038Y18467296D02*
X21395657Y18419677D01*
X21395657Y18419677D02*
X21490895Y18372058D01*
X21490895Y18372058D02*
X21633752Y18372058D01*
X21633752Y18372058D02*
X21728990Y18419677D01*
X21728990Y18419677D02*
X21776609Y18467296D01*
X21776609Y18467296D02*
X21824228Y18562534D01*
X21824228Y18562534D02*
X21824228Y18943486D01*
X21300419Y18038724D02*
X21300419Y17419677D01*
X21300419Y17419677D02*
X21681371Y17753010D01*
X21681371Y17753010D02*
X21681371Y17610153D01*
X21681371Y17610153D02*
X21728990Y17514915D01*
X21728990Y17514915D02*
X21776609Y17467296D01*
X21776609Y17467296D02*
X21871847Y17419677D01*
X21871847Y17419677D02*
X22109942Y17419677D01*
X22109942Y17419677D02*
X22205180Y17467296D01*
X22205180Y17467296D02*
X22252800Y17514915D01*
X22252800Y17514915D02*
X22300419Y17610153D01*
X22300419Y17610153D02*
X22300419Y17895867D01*
X22300419Y17895867D02*
X22252800Y17991105D01*
X22252800Y17991105D02*
X22205180Y18038724D01*
X21300419Y16514915D02*
X21300419Y16991105D01*
X21300419Y16991105D02*
X21776609Y17038724D01*
X21776609Y17038724D02*
X21728990Y16991105D01*
X21728990Y16991105D02*
X21681371Y16895867D01*
X21681371Y16895867D02*
X21681371Y16657772D01*
X21681371Y16657772D02*
X21728990Y16562534D01*
X21728990Y16562534D02*
X21776609Y16514915D01*
X21776609Y16514915D02*
X21871847Y16467296D01*
X21871847Y16467296D02*
X22109942Y16467296D01*
X22109942Y16467296D02*
X22205180Y16514915D01*
X22205180Y16514915D02*
X22252800Y16562534D01*
X22252800Y16562534D02*
X22300419Y16657772D01*
X22300419Y16657772D02*
X22300419Y16895867D01*
X22300419Y16895867D02*
X22252800Y16991105D01*
X22252800Y16991105D02*
X22205180Y17038724D01*
X-18900734Y19740781D02*
X-18567401Y20216972D01*
X-18329306Y19740781D02*
X-18329306Y20740781D01*
X-18329306Y20740781D02*
X-18710258Y20740781D01*
X-18710258Y20740781D02*
X-18805496Y20693162D01*
X-18805496Y20693162D02*
X-18853115Y20645543D01*
X-18853115Y20645543D02*
X-18900734Y20550305D01*
X-18900734Y20550305D02*
X-18900734Y20407448D01*
X-18900734Y20407448D02*
X-18853115Y20312210D01*
X-18853115Y20312210D02*
X-18805496Y20264591D01*
X-18805496Y20264591D02*
X-18710258Y20216972D01*
X-18710258Y20216972D02*
X-18329306Y20216972D01*
X-19472163Y20312210D02*
X-19376925Y20359829D01*
X-19376925Y20359829D02*
X-19329306Y20407448D01*
X-19329306Y20407448D02*
X-19281687Y20502686D01*
X-19281687Y20502686D02*
X-19281687Y20550305D01*
X-19281687Y20550305D02*
X-19329306Y20645543D01*
X-19329306Y20645543D02*
X-19376925Y20693162D01*
X-19376925Y20693162D02*
X-19472163Y20740781D01*
X-19472163Y20740781D02*
X-19662639Y20740781D01*
X-19662639Y20740781D02*
X-19757877Y20693162D01*
X-19757877Y20693162D02*
X-19805496Y20645543D01*
X-19805496Y20645543D02*
X-19853115Y20550305D01*
X-19853115Y20550305D02*
X-19853115Y20502686D01*
X-19853115Y20502686D02*
X-19805496Y20407448D01*
X-19805496Y20407448D02*
X-19757877Y20359829D01*
X-19757877Y20359829D02*
X-19662639Y20312210D01*
X-19662639Y20312210D02*
X-19472163Y20312210D01*
X-19472163Y20312210D02*
X-19376925Y20264591D01*
X-19376925Y20264591D02*
X-19329306Y20216972D01*
X-19329306Y20216972D02*
X-19281687Y20121734D01*
X-19281687Y20121734D02*
X-19281687Y19931258D01*
X-19281687Y19931258D02*
X-19329306Y19836020D01*
X-19329306Y19836020D02*
X-19376925Y19788400D01*
X-19376925Y19788400D02*
X-19472163Y19740781D01*
X-19472163Y19740781D02*
X-19662639Y19740781D01*
X-19662639Y19740781D02*
X-19757877Y19788400D01*
X-19757877Y19788400D02*
X-19805496Y19836020D01*
X-19805496Y19836020D02*
X-19853115Y19931258D01*
X-19853115Y19931258D02*
X-19853115Y20121734D01*
X-19853115Y20121734D02*
X-19805496Y20216972D01*
X-19805496Y20216972D02*
X-19757877Y20264591D01*
X-19757877Y20264591D02*
X-19662639Y20312210D01*
X52526419Y2759467D02*
X52050228Y3092800D01*
X52526419Y3330895D02*
X51526419Y3330895D01*
X51526419Y3330895D02*
X51526419Y2949943D01*
X51526419Y2949943D02*
X51574038Y2854705D01*
X51574038Y2854705D02*
X51621657Y2807086D01*
X51621657Y2807086D02*
X51716895Y2759467D01*
X51716895Y2759467D02*
X51859752Y2759467D01*
X51859752Y2759467D02*
X51954990Y2807086D01*
X51954990Y2807086D02*
X52002609Y2854705D01*
X52002609Y2854705D02*
X52050228Y2949943D01*
X52050228Y2949943D02*
X52050228Y3330895D01*
X52526419Y2283276D02*
X52526419Y2092800D01*
X52526419Y2092800D02*
X52478800Y1997562D01*
X52478800Y1997562D02*
X52431180Y1949943D01*
X52431180Y1949943D02*
X52288323Y1854705D01*
X52288323Y1854705D02*
X52097847Y1807086D01*
X52097847Y1807086D02*
X51716895Y1807086D01*
X51716895Y1807086D02*
X51621657Y1854705D01*
X51621657Y1854705D02*
X51574038Y1902324D01*
X51574038Y1902324D02*
X51526419Y1997562D01*
X51526419Y1997562D02*
X51526419Y2188038D01*
X51526419Y2188038D02*
X51574038Y2283276D01*
X51574038Y2283276D02*
X51621657Y2330895D01*
X51621657Y2330895D02*
X51716895Y2378514D01*
X51716895Y2378514D02*
X51954990Y2378514D01*
X51954990Y2378514D02*
X52050228Y2330895D01*
X52050228Y2330895D02*
X52097847Y2283276D01*
X52097847Y2283276D02*
X52145466Y2188038D01*
X52145466Y2188038D02*
X52145466Y1997562D01*
X52145466Y1997562D02*
X52097847Y1902324D01*
X52097847Y1902324D02*
X52050228Y1854705D01*
X52050228Y1854705D02*
X51954990Y1807086D01*
X-27620734Y20336020D02*
X-27573115Y20288400D01*
X-27573115Y20288400D02*
X-27430258Y20240781D01*
X-27430258Y20240781D02*
X-27335020Y20240781D01*
X-27335020Y20240781D02*
X-27192163Y20288400D01*
X-27192163Y20288400D02*
X-27096925Y20383639D01*
X-27096925Y20383639D02*
X-27049306Y20478877D01*
X-27049306Y20478877D02*
X-27001687Y20669353D01*
X-27001687Y20669353D02*
X-27001687Y20812210D01*
X-27001687Y20812210D02*
X-27049306Y21002686D01*
X-27049306Y21002686D02*
X-27096925Y21097924D01*
X-27096925Y21097924D02*
X-27192163Y21193162D01*
X-27192163Y21193162D02*
X-27335020Y21240781D01*
X-27335020Y21240781D02*
X-27430258Y21240781D01*
X-27430258Y21240781D02*
X-27573115Y21193162D01*
X-27573115Y21193162D02*
X-27620734Y21145543D01*
X-28096925Y20240781D02*
X-28287401Y20240781D01*
X-28287401Y20240781D02*
X-28382639Y20288400D01*
X-28382639Y20288400D02*
X-28430258Y20336020D01*
X-28430258Y20336020D02*
X-28525496Y20478877D01*
X-28525496Y20478877D02*
X-28573115Y20669353D01*
X-28573115Y20669353D02*
X-28573115Y21050305D01*
X-28573115Y21050305D02*
X-28525496Y21145543D01*
X-28525496Y21145543D02*
X-28477877Y21193162D01*
X-28477877Y21193162D02*
X-28382639Y21240781D01*
X-28382639Y21240781D02*
X-28192163Y21240781D01*
X-28192163Y21240781D02*
X-28096925Y21193162D01*
X-28096925Y21193162D02*
X-28049306Y21145543D01*
X-28049306Y21145543D02*
X-28001687Y21050305D01*
X-28001687Y21050305D02*
X-28001687Y20812210D01*
X-28001687Y20812210D02*
X-28049306Y20716972D01*
X-28049306Y20716972D02*
X-28096925Y20669353D01*
X-28096925Y20669353D02*
X-28192163Y20621734D01*
X-28192163Y20621734D02*
X-28382639Y20621734D01*
X-28382639Y20621734D02*
X-28477877Y20669353D01*
X-28477877Y20669353D02*
X-28525496Y20716972D01*
X-28525496Y20716972D02*
X-28573115Y20812210D01*
X12619380Y16241058D02*
X12667000Y16288677D01*
X12667000Y16288677D02*
X12714619Y16431534D01*
X12714619Y16431534D02*
X12714619Y16526772D01*
X12714619Y16526772D02*
X12667000Y16669629D01*
X12667000Y16669629D02*
X12571761Y16764867D01*
X12571761Y16764867D02*
X12476523Y16812486D01*
X12476523Y16812486D02*
X12286047Y16860105D01*
X12286047Y16860105D02*
X12143190Y16860105D01*
X12143190Y16860105D02*
X11952714Y16812486D01*
X11952714Y16812486D02*
X11857476Y16764867D01*
X11857476Y16764867D02*
X11762238Y16669629D01*
X11762238Y16669629D02*
X11714619Y16526772D01*
X11714619Y16526772D02*
X11714619Y16431534D01*
X11714619Y16431534D02*
X11762238Y16288677D01*
X11762238Y16288677D02*
X11809857Y16241058D01*
X11809857Y15860105D02*
X11762238Y15812486D01*
X11762238Y15812486D02*
X11714619Y15717248D01*
X11714619Y15717248D02*
X11714619Y15479153D01*
X11714619Y15479153D02*
X11762238Y15383915D01*
X11762238Y15383915D02*
X11809857Y15336296D01*
X11809857Y15336296D02*
X11905095Y15288677D01*
X11905095Y15288677D02*
X12000333Y15288677D01*
X12000333Y15288677D02*
X12143190Y15336296D01*
X12143190Y15336296D02*
X12714619Y15907724D01*
X12714619Y15907724D02*
X12714619Y15288677D01*
X11714619Y14669629D02*
X11714619Y14574391D01*
X11714619Y14574391D02*
X11762238Y14479153D01*
X11762238Y14479153D02*
X11809857Y14431534D01*
X11809857Y14431534D02*
X11905095Y14383915D01*
X11905095Y14383915D02*
X12095571Y14336296D01*
X12095571Y14336296D02*
X12333666Y14336296D01*
X12333666Y14336296D02*
X12524142Y14383915D01*
X12524142Y14383915D02*
X12619380Y14431534D01*
X12619380Y14431534D02*
X12667000Y14479153D01*
X12667000Y14479153D02*
X12714619Y14574391D01*
X12714619Y14574391D02*
X12714619Y14669629D01*
X12714619Y14669629D02*
X12667000Y14764867D01*
X12667000Y14764867D02*
X12619380Y14812486D01*
X12619380Y14812486D02*
X12524142Y14860105D01*
X12524142Y14860105D02*
X12333666Y14907724D01*
X12333666Y14907724D02*
X12095571Y14907724D01*
X12095571Y14907724D02*
X11905095Y14860105D01*
X11905095Y14860105D02*
X11809857Y14812486D01*
X11809857Y14812486D02*
X11762238Y14764867D01*
X11762238Y14764867D02*
X11714619Y14669629D01*
X40153419Y8186658D02*
X39677228Y8519991D01*
X40153419Y8758086D02*
X39153419Y8758086D01*
X39153419Y8758086D02*
X39153419Y8377134D01*
X39153419Y8377134D02*
X39201038Y8281896D01*
X39201038Y8281896D02*
X39248657Y8234277D01*
X39248657Y8234277D02*
X39343895Y8186658D01*
X39343895Y8186658D02*
X39486752Y8186658D01*
X39486752Y8186658D02*
X39581990Y8234277D01*
X39581990Y8234277D02*
X39629609Y8281896D01*
X39629609Y8281896D02*
X39677228Y8377134D01*
X39677228Y8377134D02*
X39677228Y8758086D01*
X40153419Y7234277D02*
X40153419Y7805705D01*
X40153419Y7519991D02*
X39153419Y7519991D01*
X39153419Y7519991D02*
X39296276Y7615229D01*
X39296276Y7615229D02*
X39391514Y7710467D01*
X39391514Y7710467D02*
X39439133Y7805705D01*
X39486752Y6377134D02*
X40153419Y6377134D01*
X39105800Y6615229D02*
X39820085Y6853324D01*
X39820085Y6853324D02*
X39820085Y6234277D01*
X10740219Y30360858D02*
X10264028Y30694191D01*
X10740219Y30932286D02*
X9740219Y30932286D01*
X9740219Y30932286D02*
X9740219Y30551334D01*
X9740219Y30551334D02*
X9787838Y30456096D01*
X9787838Y30456096D02*
X9835457Y30408477D01*
X9835457Y30408477D02*
X9930695Y30360858D01*
X9930695Y30360858D02*
X10073552Y30360858D01*
X10073552Y30360858D02*
X10168790Y30408477D01*
X10168790Y30408477D02*
X10216409Y30456096D01*
X10216409Y30456096D02*
X10264028Y30551334D01*
X10264028Y30551334D02*
X10264028Y30932286D01*
X9835457Y29979905D02*
X9787838Y29932286D01*
X9787838Y29932286D02*
X9740219Y29837048D01*
X9740219Y29837048D02*
X9740219Y29598953D01*
X9740219Y29598953D02*
X9787838Y29503715D01*
X9787838Y29503715D02*
X9835457Y29456096D01*
X9835457Y29456096D02*
X9930695Y29408477D01*
X9930695Y29408477D02*
X10025933Y29408477D01*
X10025933Y29408477D02*
X10168790Y29456096D01*
X10168790Y29456096D02*
X10740219Y30027524D01*
X10740219Y30027524D02*
X10740219Y29408477D01*
X10073552Y28551334D02*
X10740219Y28551334D01*
X9692600Y28789429D02*
X10406885Y29027524D01*
X10406885Y29027524D02*
X10406885Y28408477D01*
X48058294Y-3824872D02*
X48058294Y-2824872D01*
X48058294Y-2824872D02*
X47820199Y-2824872D01*
X47820199Y-2824872D02*
X47677342Y-2872491D01*
X47677342Y-2872491D02*
X47582104Y-2967729D01*
X47582104Y-2967729D02*
X47534485Y-3062967D01*
X47534485Y-3062967D02*
X47486866Y-3253443D01*
X47486866Y-3253443D02*
X47486866Y-3396300D01*
X47486866Y-3396300D02*
X47534485Y-3586776D01*
X47534485Y-3586776D02*
X47582104Y-3682014D01*
X47582104Y-3682014D02*
X47677342Y-3777253D01*
X47677342Y-3777253D02*
X47820199Y-3824872D01*
X47820199Y-3824872D02*
X48058294Y-3824872D01*
X47105913Y-2920110D02*
X47058294Y-2872491D01*
X47058294Y-2872491D02*
X46963056Y-2824872D01*
X46963056Y-2824872D02*
X46724961Y-2824872D01*
X46724961Y-2824872D02*
X46629723Y-2872491D01*
X46629723Y-2872491D02*
X46582104Y-2920110D01*
X46582104Y-2920110D02*
X46534485Y-3015348D01*
X46534485Y-3015348D02*
X46534485Y-3110586D01*
X46534485Y-3110586D02*
X46582104Y-3253443D01*
X46582104Y-3253443D02*
X47153532Y-3824872D01*
X47153532Y-3824872D02*
X46534485Y-3824872D01*
X-34962343Y21913820D02*
X-34914724Y21866200D01*
X-34914724Y21866200D02*
X-34771867Y21818581D01*
X-34771867Y21818581D02*
X-34676629Y21818581D01*
X-34676629Y21818581D02*
X-34533772Y21866200D01*
X-34533772Y21866200D02*
X-34438534Y21961439D01*
X-34438534Y21961439D02*
X-34390915Y22056677D01*
X-34390915Y22056677D02*
X-34343296Y22247153D01*
X-34343296Y22247153D02*
X-34343296Y22390010D01*
X-34343296Y22390010D02*
X-34390915Y22580486D01*
X-34390915Y22580486D02*
X-34438534Y22675724D01*
X-34438534Y22675724D02*
X-34533772Y22770962D01*
X-34533772Y22770962D02*
X-34676629Y22818581D01*
X-34676629Y22818581D02*
X-34771867Y22818581D01*
X-34771867Y22818581D02*
X-34914724Y22770962D01*
X-34914724Y22770962D02*
X-34962343Y22723343D01*
X-35914724Y21818581D02*
X-35343296Y21818581D01*
X-35629010Y21818581D02*
X-35629010Y22818581D01*
X-35629010Y22818581D02*
X-35533772Y22675724D01*
X-35533772Y22675724D02*
X-35438534Y22580486D01*
X-35438534Y22580486D02*
X-35343296Y22532867D01*
X-36248058Y22818581D02*
X-36914724Y22818581D01*
X-36914724Y22818581D02*
X-36486153Y21818581D01*
X43433219Y2859067D02*
X42957028Y3192400D01*
X43433219Y3430495D02*
X42433219Y3430495D01*
X42433219Y3430495D02*
X42433219Y3049543D01*
X42433219Y3049543D02*
X42480838Y2954305D01*
X42480838Y2954305D02*
X42528457Y2906686D01*
X42528457Y2906686D02*
X42623695Y2859067D01*
X42623695Y2859067D02*
X42766552Y2859067D01*
X42766552Y2859067D02*
X42861790Y2906686D01*
X42861790Y2906686D02*
X42909409Y2954305D01*
X42909409Y2954305D02*
X42957028Y3049543D01*
X42957028Y3049543D02*
X42957028Y3430495D01*
X43433219Y1906686D02*
X43433219Y2478114D01*
X43433219Y2192400D02*
X42433219Y2192400D01*
X42433219Y2192400D02*
X42576076Y2287638D01*
X42576076Y2287638D02*
X42671314Y2382876D01*
X42671314Y2382876D02*
X42718933Y2478114D01*
X53644019Y3210258D02*
X53167828Y3543591D01*
X53644019Y3781686D02*
X52644019Y3781686D01*
X52644019Y3781686D02*
X52644019Y3400734D01*
X52644019Y3400734D02*
X52691638Y3305496D01*
X52691638Y3305496D02*
X52739257Y3257877D01*
X52739257Y3257877D02*
X52834495Y3210258D01*
X52834495Y3210258D02*
X52977352Y3210258D01*
X52977352Y3210258D02*
X53072590Y3257877D01*
X53072590Y3257877D02*
X53120209Y3305496D01*
X53120209Y3305496D02*
X53167828Y3400734D01*
X53167828Y3400734D02*
X53167828Y3781686D01*
X53644019Y2257877D02*
X53644019Y2829305D01*
X53644019Y2543591D02*
X52644019Y2543591D01*
X52644019Y2543591D02*
X52786876Y2638829D01*
X52786876Y2638829D02*
X52882114Y2734067D01*
X52882114Y2734067D02*
X52929733Y2829305D01*
X52644019Y1638829D02*
X52644019Y1543591D01*
X52644019Y1543591D02*
X52691638Y1448353D01*
X52691638Y1448353D02*
X52739257Y1400734D01*
X52739257Y1400734D02*
X52834495Y1353115D01*
X52834495Y1353115D02*
X53024971Y1305496D01*
X53024971Y1305496D02*
X53263066Y1305496D01*
X53263066Y1305496D02*
X53453542Y1353115D01*
X53453542Y1353115D02*
X53548780Y1400734D01*
X53548780Y1400734D02*
X53596400Y1448353D01*
X53596400Y1448353D02*
X53644019Y1543591D01*
X53644019Y1543591D02*
X53644019Y1638829D01*
X53644019Y1638829D02*
X53596400Y1734067D01*
X53596400Y1734067D02*
X53548780Y1781686D01*
X53548780Y1781686D02*
X53453542Y1829305D01*
X53453542Y1829305D02*
X53263066Y1876924D01*
X53263066Y1876924D02*
X53024971Y1876924D01*
X53024971Y1876924D02*
X52834495Y1829305D01*
X52834495Y1829305D02*
X52739257Y1781686D01*
X52739257Y1781686D02*
X52691638Y1734067D01*
X52691638Y1734067D02*
X52644019Y1638829D01*
X47062219Y8135858D02*
X46586028Y8469191D01*
X47062219Y8707286D02*
X46062219Y8707286D01*
X46062219Y8707286D02*
X46062219Y8326334D01*
X46062219Y8326334D02*
X46109838Y8231096D01*
X46109838Y8231096D02*
X46157457Y8183477D01*
X46157457Y8183477D02*
X46252695Y8135858D01*
X46252695Y8135858D02*
X46395552Y8135858D01*
X46395552Y8135858D02*
X46490790Y8183477D01*
X46490790Y8183477D02*
X46538409Y8231096D01*
X46538409Y8231096D02*
X46586028Y8326334D01*
X46586028Y8326334D02*
X46586028Y8707286D01*
X47062219Y7183477D02*
X47062219Y7754905D01*
X47062219Y7469191D02*
X46062219Y7469191D01*
X46062219Y7469191D02*
X46205076Y7564429D01*
X46205076Y7564429D02*
X46300314Y7659667D01*
X46300314Y7659667D02*
X46347933Y7754905D01*
X46157457Y6802524D02*
X46109838Y6754905D01*
X46109838Y6754905D02*
X46062219Y6659667D01*
X46062219Y6659667D02*
X46062219Y6421572D01*
X46062219Y6421572D02*
X46109838Y6326334D01*
X46109838Y6326334D02*
X46157457Y6278715D01*
X46157457Y6278715D02*
X46252695Y6231096D01*
X46252695Y6231096D02*
X46347933Y6231096D01*
X46347933Y6231096D02*
X46490790Y6278715D01*
X46490790Y6278715D02*
X47062219Y6850143D01*
X47062219Y6850143D02*
X47062219Y6231096D01*
X34467019Y18372058D02*
X33990828Y18705391D01*
X34467019Y18943486D02*
X33467019Y18943486D01*
X33467019Y18943486D02*
X33467019Y18562534D01*
X33467019Y18562534D02*
X33514638Y18467296D01*
X33514638Y18467296D02*
X33562257Y18419677D01*
X33562257Y18419677D02*
X33657495Y18372058D01*
X33657495Y18372058D02*
X33800352Y18372058D01*
X33800352Y18372058D02*
X33895590Y18419677D01*
X33895590Y18419677D02*
X33943209Y18467296D01*
X33943209Y18467296D02*
X33990828Y18562534D01*
X33990828Y18562534D02*
X33990828Y18943486D01*
X33467019Y18038724D02*
X33467019Y17419677D01*
X33467019Y17419677D02*
X33847971Y17753010D01*
X33847971Y17753010D02*
X33847971Y17610153D01*
X33847971Y17610153D02*
X33895590Y17514915D01*
X33895590Y17514915D02*
X33943209Y17467296D01*
X33943209Y17467296D02*
X34038447Y17419677D01*
X34038447Y17419677D02*
X34276542Y17419677D01*
X34276542Y17419677D02*
X34371780Y17467296D01*
X34371780Y17467296D02*
X34419400Y17514915D01*
X34419400Y17514915D02*
X34467019Y17610153D01*
X34467019Y17610153D02*
X34467019Y17895867D01*
X34467019Y17895867D02*
X34419400Y17991105D01*
X34419400Y17991105D02*
X34371780Y18038724D01*
X34467019Y16943486D02*
X34467019Y16753010D01*
X34467019Y16753010D02*
X34419400Y16657772D01*
X34419400Y16657772D02*
X34371780Y16610153D01*
X34371780Y16610153D02*
X34228923Y16514915D01*
X34228923Y16514915D02*
X34038447Y16467296D01*
X34038447Y16467296D02*
X33657495Y16467296D01*
X33657495Y16467296D02*
X33562257Y16514915D01*
X33562257Y16514915D02*
X33514638Y16562534D01*
X33514638Y16562534D02*
X33467019Y16657772D01*
X33467019Y16657772D02*
X33467019Y16848248D01*
X33467019Y16848248D02*
X33514638Y16943486D01*
X33514638Y16943486D02*
X33562257Y16991105D01*
X33562257Y16991105D02*
X33657495Y17038724D01*
X33657495Y17038724D02*
X33895590Y17038724D01*
X33895590Y17038724D02*
X33990828Y16991105D01*
X33990828Y16991105D02*
X34038447Y16943486D01*
X34038447Y16943486D02*
X34086066Y16848248D01*
X34086066Y16848248D02*
X34086066Y16657772D01*
X34086066Y16657772D02*
X34038447Y16562534D01*
X34038447Y16562534D02*
X33990828Y16514915D01*
X33990828Y16514915D02*
X33895590Y16467296D01*
X4514619Y23096458D02*
X4038428Y23429791D01*
X4514619Y23667886D02*
X3514619Y23667886D01*
X3514619Y23667886D02*
X3514619Y23286934D01*
X3514619Y23286934D02*
X3562238Y23191696D01*
X3562238Y23191696D02*
X3609857Y23144077D01*
X3609857Y23144077D02*
X3705095Y23096458D01*
X3705095Y23096458D02*
X3847952Y23096458D01*
X3847952Y23096458D02*
X3943190Y23144077D01*
X3943190Y23144077D02*
X3990809Y23191696D01*
X3990809Y23191696D02*
X4038428Y23286934D01*
X4038428Y23286934D02*
X4038428Y23667886D01*
X3847952Y22239315D02*
X4514619Y22239315D01*
X3467000Y22477410D02*
X4181285Y22715505D01*
X4181285Y22715505D02*
X4181285Y22096458D01*
X3514619Y21525029D02*
X3514619Y21429791D01*
X3514619Y21429791D02*
X3562238Y21334553D01*
X3562238Y21334553D02*
X3609857Y21286934D01*
X3609857Y21286934D02*
X3705095Y21239315D01*
X3705095Y21239315D02*
X3895571Y21191696D01*
X3895571Y21191696D02*
X4133666Y21191696D01*
X4133666Y21191696D02*
X4324142Y21239315D01*
X4324142Y21239315D02*
X4419380Y21286934D01*
X4419380Y21286934D02*
X4467000Y21334553D01*
X4467000Y21334553D02*
X4514619Y21429791D01*
X4514619Y21429791D02*
X4514619Y21525029D01*
X4514619Y21525029D02*
X4467000Y21620267D01*
X4467000Y21620267D02*
X4419380Y21667886D01*
X4419380Y21667886D02*
X4324142Y21715505D01*
X4324142Y21715505D02*
X4133666Y21763124D01*
X4133666Y21763124D02*
X3895571Y21763124D01*
X3895571Y21763124D02*
X3705095Y21715505D01*
X3705095Y21715505D02*
X3609857Y21667886D01*
X3609857Y21667886D02*
X3562238Y21620267D01*
X3562238Y21620267D02*
X3514619Y21525029D01*
X19935019Y30360858D02*
X19458828Y30694191D01*
X19935019Y30932286D02*
X18935019Y30932286D01*
X18935019Y30932286D02*
X18935019Y30551334D01*
X18935019Y30551334D02*
X18982638Y30456096D01*
X18982638Y30456096D02*
X19030257Y30408477D01*
X19030257Y30408477D02*
X19125495Y30360858D01*
X19125495Y30360858D02*
X19268352Y30360858D01*
X19268352Y30360858D02*
X19363590Y30408477D01*
X19363590Y30408477D02*
X19411209Y30456096D01*
X19411209Y30456096D02*
X19458828Y30551334D01*
X19458828Y30551334D02*
X19458828Y30932286D01*
X19030257Y29979905D02*
X18982638Y29932286D01*
X18982638Y29932286D02*
X18935019Y29837048D01*
X18935019Y29837048D02*
X18935019Y29598953D01*
X18935019Y29598953D02*
X18982638Y29503715D01*
X18982638Y29503715D02*
X19030257Y29456096D01*
X19030257Y29456096D02*
X19125495Y29408477D01*
X19125495Y29408477D02*
X19220733Y29408477D01*
X19220733Y29408477D02*
X19363590Y29456096D01*
X19363590Y29456096D02*
X19935019Y30027524D01*
X19935019Y30027524D02*
X19935019Y29408477D01*
X18935019Y29075143D02*
X18935019Y28408477D01*
X18935019Y28408477D02*
X19935019Y28837048D01*
X31546019Y18372058D02*
X31069828Y18705391D01*
X31546019Y18943486D02*
X30546019Y18943486D01*
X30546019Y18943486D02*
X30546019Y18562534D01*
X30546019Y18562534D02*
X30593638Y18467296D01*
X30593638Y18467296D02*
X30641257Y18419677D01*
X30641257Y18419677D02*
X30736495Y18372058D01*
X30736495Y18372058D02*
X30879352Y18372058D01*
X30879352Y18372058D02*
X30974590Y18419677D01*
X30974590Y18419677D02*
X31022209Y18467296D01*
X31022209Y18467296D02*
X31069828Y18562534D01*
X31069828Y18562534D02*
X31069828Y18943486D01*
X30546019Y18038724D02*
X30546019Y17419677D01*
X30546019Y17419677D02*
X30926971Y17753010D01*
X30926971Y17753010D02*
X30926971Y17610153D01*
X30926971Y17610153D02*
X30974590Y17514915D01*
X30974590Y17514915D02*
X31022209Y17467296D01*
X31022209Y17467296D02*
X31117447Y17419677D01*
X31117447Y17419677D02*
X31355542Y17419677D01*
X31355542Y17419677D02*
X31450780Y17467296D01*
X31450780Y17467296D02*
X31498400Y17514915D01*
X31498400Y17514915D02*
X31546019Y17610153D01*
X31546019Y17610153D02*
X31546019Y17895867D01*
X31546019Y17895867D02*
X31498400Y17991105D01*
X31498400Y17991105D02*
X31450780Y18038724D01*
X30974590Y16848248D02*
X30926971Y16943486D01*
X30926971Y16943486D02*
X30879352Y16991105D01*
X30879352Y16991105D02*
X30784114Y17038724D01*
X30784114Y17038724D02*
X30736495Y17038724D01*
X30736495Y17038724D02*
X30641257Y16991105D01*
X30641257Y16991105D02*
X30593638Y16943486D01*
X30593638Y16943486D02*
X30546019Y16848248D01*
X30546019Y16848248D02*
X30546019Y16657772D01*
X30546019Y16657772D02*
X30593638Y16562534D01*
X30593638Y16562534D02*
X30641257Y16514915D01*
X30641257Y16514915D02*
X30736495Y16467296D01*
X30736495Y16467296D02*
X30784114Y16467296D01*
X30784114Y16467296D02*
X30879352Y16514915D01*
X30879352Y16514915D02*
X30926971Y16562534D01*
X30926971Y16562534D02*
X30974590Y16657772D01*
X30974590Y16657772D02*
X30974590Y16848248D01*
X30974590Y16848248D02*
X31022209Y16943486D01*
X31022209Y16943486D02*
X31069828Y16991105D01*
X31069828Y16991105D02*
X31165066Y17038724D01*
X31165066Y17038724D02*
X31355542Y17038724D01*
X31355542Y17038724D02*
X31450780Y16991105D01*
X31450780Y16991105D02*
X31498400Y16943486D01*
X31498400Y16943486D02*
X31546019Y16848248D01*
X31546019Y16848248D02*
X31546019Y16657772D01*
X31546019Y16657772D02*
X31498400Y16562534D01*
X31498400Y16562534D02*
X31450780Y16514915D01*
X31450780Y16514915D02*
X31355542Y16467296D01*
X31355542Y16467296D02*
X31165066Y16467296D01*
X31165066Y16467296D02*
X31069828Y16514915D01*
X31069828Y16514915D02*
X31022209Y16562534D01*
X31022209Y16562534D02*
X30974590Y16657772D01*
X59136210Y6209514D02*
X59708630Y5637094D01*
X59708630Y5637094D02*
X59742302Y5536079D01*
X59742302Y5536079D02*
X59742302Y5468735D01*
X59742302Y5468735D02*
X59708630Y5367720D01*
X59708630Y5367720D02*
X59573943Y5233033D01*
X59573943Y5233033D02*
X59472928Y5199361D01*
X59472928Y5199361D02*
X59405584Y5199361D01*
X59405584Y5199361D02*
X59304569Y5233033D01*
X59304569Y5233033D02*
X58732149Y5805453D01*
X58732149Y4391239D02*
X59136210Y4795300D01*
X58934180Y4593270D02*
X58227073Y5300376D01*
X58227073Y5300376D02*
X58395432Y5266705D01*
X58395432Y5266705D02*
X58530119Y5266705D01*
X58530119Y5266705D02*
X58631134Y5300376D01*
X-24750734Y18366020D02*
X-24703115Y18318400D01*
X-24703115Y18318400D02*
X-24560258Y18270781D01*
X-24560258Y18270781D02*
X-24465020Y18270781D01*
X-24465020Y18270781D02*
X-24322163Y18318400D01*
X-24322163Y18318400D02*
X-24226925Y18413639D01*
X-24226925Y18413639D02*
X-24179306Y18508877D01*
X-24179306Y18508877D02*
X-24131687Y18699353D01*
X-24131687Y18699353D02*
X-24131687Y18842210D01*
X-24131687Y18842210D02*
X-24179306Y19032686D01*
X-24179306Y19032686D02*
X-24226925Y19127924D01*
X-24226925Y19127924D02*
X-24322163Y19223162D01*
X-24322163Y19223162D02*
X-24465020Y19270781D01*
X-24465020Y19270781D02*
X-24560258Y19270781D01*
X-24560258Y19270781D02*
X-24703115Y19223162D01*
X-24703115Y19223162D02*
X-24750734Y19175543D01*
X-25607877Y18937448D02*
X-25607877Y18270781D01*
X-25369782Y19318400D02*
X-25131687Y18604115D01*
X-25131687Y18604115D02*
X-25750734Y18604115D01*
X37257380Y36406058D02*
X37305000Y36453677D01*
X37305000Y36453677D02*
X37352619Y36596534D01*
X37352619Y36596534D02*
X37352619Y36691772D01*
X37352619Y36691772D02*
X37305000Y36834629D01*
X37305000Y36834629D02*
X37209761Y36929867D01*
X37209761Y36929867D02*
X37114523Y36977486D01*
X37114523Y36977486D02*
X36924047Y37025105D01*
X36924047Y37025105D02*
X36781190Y37025105D01*
X36781190Y37025105D02*
X36590714Y36977486D01*
X36590714Y36977486D02*
X36495476Y36929867D01*
X36495476Y36929867D02*
X36400238Y36834629D01*
X36400238Y36834629D02*
X36352619Y36691772D01*
X36352619Y36691772D02*
X36352619Y36596534D01*
X36352619Y36596534D02*
X36400238Y36453677D01*
X36400238Y36453677D02*
X36447857Y36406058D01*
X37352619Y35453677D02*
X37352619Y36025105D01*
X37352619Y35739391D02*
X36352619Y35739391D01*
X36352619Y35739391D02*
X36495476Y35834629D01*
X36495476Y35834629D02*
X36590714Y35929867D01*
X36590714Y35929867D02*
X36638333Y36025105D01*
X36447857Y35072724D02*
X36400238Y35025105D01*
X36400238Y35025105D02*
X36352619Y34929867D01*
X36352619Y34929867D02*
X36352619Y34691772D01*
X36352619Y34691772D02*
X36400238Y34596534D01*
X36400238Y34596534D02*
X36447857Y34548915D01*
X36447857Y34548915D02*
X36543095Y34501296D01*
X36543095Y34501296D02*
X36638333Y34501296D01*
X36638333Y34501296D02*
X36781190Y34548915D01*
X36781190Y34548915D02*
X37352619Y35120343D01*
X37352619Y35120343D02*
X37352619Y34501296D01*
X47963057Y54182181D02*
X48296390Y54658372D01*
X48534485Y54182181D02*
X48534485Y55182181D01*
X48534485Y55182181D02*
X48153533Y55182181D01*
X48153533Y55182181D02*
X48058295Y55134562D01*
X48058295Y55134562D02*
X48010676Y55086943D01*
X48010676Y55086943D02*
X47963057Y54991705D01*
X47963057Y54991705D02*
X47963057Y54848848D01*
X47963057Y54848848D02*
X48010676Y54753610D01*
X48010676Y54753610D02*
X48058295Y54705991D01*
X48058295Y54705991D02*
X48153533Y54658372D01*
X48153533Y54658372D02*
X48534485Y54658372D01*
X47010676Y54182181D02*
X47582104Y54182181D01*
X47296390Y54182181D02*
X47296390Y55182181D01*
X47296390Y55182181D02*
X47391628Y55039324D01*
X47391628Y55039324D02*
X47486866Y54944086D01*
X47486866Y54944086D02*
X47582104Y54896467D01*
X46534485Y54182181D02*
X46344009Y54182181D01*
X46344009Y54182181D02*
X46248771Y54229800D01*
X46248771Y54229800D02*
X46201152Y54277420D01*
X46201152Y54277420D02*
X46105914Y54420277D01*
X46105914Y54420277D02*
X46058295Y54610753D01*
X46058295Y54610753D02*
X46058295Y54991705D01*
X46058295Y54991705D02*
X46105914Y55086943D01*
X46105914Y55086943D02*
X46153533Y55134562D01*
X46153533Y55134562D02*
X46248771Y55182181D01*
X46248771Y55182181D02*
X46439247Y55182181D01*
X46439247Y55182181D02*
X46534485Y55134562D01*
X46534485Y55134562D02*
X46582104Y55086943D01*
X46582104Y55086943D02*
X46629723Y54991705D01*
X46629723Y54991705D02*
X46629723Y54753610D01*
X46629723Y54753610D02*
X46582104Y54658372D01*
X46582104Y54658372D02*
X46534485Y54610753D01*
X46534485Y54610753D02*
X46439247Y54563134D01*
X46439247Y54563134D02*
X46248771Y54563134D01*
X46248771Y54563134D02*
X46153533Y54610753D01*
X46153533Y54610753D02*
X46105914Y54658372D01*
X46105914Y54658372D02*
X46058295Y54753610D01*
X29222380Y36456858D02*
X29270000Y36504477D01*
X29270000Y36504477D02*
X29317619Y36647334D01*
X29317619Y36647334D02*
X29317619Y36742572D01*
X29317619Y36742572D02*
X29270000Y36885429D01*
X29270000Y36885429D02*
X29174761Y36980667D01*
X29174761Y36980667D02*
X29079523Y37028286D01*
X29079523Y37028286D02*
X28889047Y37075905D01*
X28889047Y37075905D02*
X28746190Y37075905D01*
X28746190Y37075905D02*
X28555714Y37028286D01*
X28555714Y37028286D02*
X28460476Y36980667D01*
X28460476Y36980667D02*
X28365238Y36885429D01*
X28365238Y36885429D02*
X28317619Y36742572D01*
X28317619Y36742572D02*
X28317619Y36647334D01*
X28317619Y36647334D02*
X28365238Y36504477D01*
X28365238Y36504477D02*
X28412857Y36456858D01*
X29317619Y35504477D02*
X29317619Y36075905D01*
X29317619Y35790191D02*
X28317619Y35790191D01*
X28317619Y35790191D02*
X28460476Y35885429D01*
X28460476Y35885429D02*
X28555714Y35980667D01*
X28555714Y35980667D02*
X28603333Y36075905D01*
X28317619Y35171143D02*
X28317619Y34552096D01*
X28317619Y34552096D02*
X28698571Y34885429D01*
X28698571Y34885429D02*
X28698571Y34742572D01*
X28698571Y34742572D02*
X28746190Y34647334D01*
X28746190Y34647334D02*
X28793809Y34599715D01*
X28793809Y34599715D02*
X28889047Y34552096D01*
X28889047Y34552096D02*
X29127142Y34552096D01*
X29127142Y34552096D02*
X29222380Y34599715D01*
X29222380Y34599715D02*
X29270000Y34647334D01*
X29270000Y34647334D02*
X29317619Y34742572D01*
X29317619Y34742572D02*
X29317619Y35028286D01*
X29317619Y35028286D02*
X29270000Y35123524D01*
X29270000Y35123524D02*
X29222380Y35171143D01*
X24992819Y18372058D02*
X24516628Y18705391D01*
X24992819Y18943486D02*
X23992819Y18943486D01*
X23992819Y18943486D02*
X23992819Y18562534D01*
X23992819Y18562534D02*
X24040438Y18467296D01*
X24040438Y18467296D02*
X24088057Y18419677D01*
X24088057Y18419677D02*
X24183295Y18372058D01*
X24183295Y18372058D02*
X24326152Y18372058D01*
X24326152Y18372058D02*
X24421390Y18419677D01*
X24421390Y18419677D02*
X24469009Y18467296D01*
X24469009Y18467296D02*
X24516628Y18562534D01*
X24516628Y18562534D02*
X24516628Y18943486D01*
X23992819Y18038724D02*
X23992819Y17419677D01*
X23992819Y17419677D02*
X24373771Y17753010D01*
X24373771Y17753010D02*
X24373771Y17610153D01*
X24373771Y17610153D02*
X24421390Y17514915D01*
X24421390Y17514915D02*
X24469009Y17467296D01*
X24469009Y17467296D02*
X24564247Y17419677D01*
X24564247Y17419677D02*
X24802342Y17419677D01*
X24802342Y17419677D02*
X24897580Y17467296D01*
X24897580Y17467296D02*
X24945200Y17514915D01*
X24945200Y17514915D02*
X24992819Y17610153D01*
X24992819Y17610153D02*
X24992819Y17895867D01*
X24992819Y17895867D02*
X24945200Y17991105D01*
X24945200Y17991105D02*
X24897580Y18038724D01*
X23992819Y16562534D02*
X23992819Y16753010D01*
X23992819Y16753010D02*
X24040438Y16848248D01*
X24040438Y16848248D02*
X24088057Y16895867D01*
X24088057Y16895867D02*
X24230914Y16991105D01*
X24230914Y16991105D02*
X24421390Y17038724D01*
X24421390Y17038724D02*
X24802342Y17038724D01*
X24802342Y17038724D02*
X24897580Y16991105D01*
X24897580Y16991105D02*
X24945200Y16943486D01*
X24945200Y16943486D02*
X24992819Y16848248D01*
X24992819Y16848248D02*
X24992819Y16657772D01*
X24992819Y16657772D02*
X24945200Y16562534D01*
X24945200Y16562534D02*
X24897580Y16514915D01*
X24897580Y16514915D02*
X24802342Y16467296D01*
X24802342Y16467296D02*
X24564247Y16467296D01*
X24564247Y16467296D02*
X24469009Y16514915D01*
X24469009Y16514915D02*
X24421390Y16562534D01*
X24421390Y16562534D02*
X24373771Y16657772D01*
X24373771Y16657772D02*
X24373771Y16848248D01*
X24373771Y16848248D02*
X24421390Y16943486D01*
X24421390Y16943486D02*
X24469009Y16991105D01*
X24469009Y16991105D02*
X24564247Y17038724D01*
X-27620734Y24276020D02*
X-27573115Y24228400D01*
X-27573115Y24228400D02*
X-27430258Y24180781D01*
X-27430258Y24180781D02*
X-27335020Y24180781D01*
X-27335020Y24180781D02*
X-27192163Y24228400D01*
X-27192163Y24228400D02*
X-27096925Y24323639D01*
X-27096925Y24323639D02*
X-27049306Y24418877D01*
X-27049306Y24418877D02*
X-27001687Y24609353D01*
X-27001687Y24609353D02*
X-27001687Y24752210D01*
X-27001687Y24752210D02*
X-27049306Y24942686D01*
X-27049306Y24942686D02*
X-27096925Y25037924D01*
X-27096925Y25037924D02*
X-27192163Y25133162D01*
X-27192163Y25133162D02*
X-27335020Y25180781D01*
X-27335020Y25180781D02*
X-27430258Y25180781D01*
X-27430258Y25180781D02*
X-27573115Y25133162D01*
X-27573115Y25133162D02*
X-27620734Y25085543D01*
X-27954068Y25180781D02*
X-28620734Y25180781D01*
X-28620734Y25180781D02*
X-28192163Y24180781D01*
X30327380Y21318458D02*
X30375000Y21366077D01*
X30375000Y21366077D02*
X30422619Y21508934D01*
X30422619Y21508934D02*
X30422619Y21604172D01*
X30422619Y21604172D02*
X30375000Y21747029D01*
X30375000Y21747029D02*
X30279761Y21842267D01*
X30279761Y21842267D02*
X30184523Y21889886D01*
X30184523Y21889886D02*
X29994047Y21937505D01*
X29994047Y21937505D02*
X29851190Y21937505D01*
X29851190Y21937505D02*
X29660714Y21889886D01*
X29660714Y21889886D02*
X29565476Y21842267D01*
X29565476Y21842267D02*
X29470238Y21747029D01*
X29470238Y21747029D02*
X29422619Y21604172D01*
X29422619Y21604172D02*
X29422619Y21508934D01*
X29422619Y21508934D02*
X29470238Y21366077D01*
X29470238Y21366077D02*
X29517857Y21318458D01*
X29517857Y20937505D02*
X29470238Y20889886D01*
X29470238Y20889886D02*
X29422619Y20794648D01*
X29422619Y20794648D02*
X29422619Y20556553D01*
X29422619Y20556553D02*
X29470238Y20461315D01*
X29470238Y20461315D02*
X29517857Y20413696D01*
X29517857Y20413696D02*
X29613095Y20366077D01*
X29613095Y20366077D02*
X29708333Y20366077D01*
X29708333Y20366077D02*
X29851190Y20413696D01*
X29851190Y20413696D02*
X30422619Y20985124D01*
X30422619Y20985124D02*
X30422619Y20366077D01*
X29422619Y20032743D02*
X29422619Y19366077D01*
X29422619Y19366077D02*
X30422619Y19794648D01*
X49205057Y59068020D02*
X49252676Y59020400D01*
X49252676Y59020400D02*
X49395533Y58972781D01*
X49395533Y58972781D02*
X49490771Y58972781D01*
X49490771Y58972781D02*
X49633628Y59020400D01*
X49633628Y59020400D02*
X49728866Y59115639D01*
X49728866Y59115639D02*
X49776485Y59210877D01*
X49776485Y59210877D02*
X49824104Y59401353D01*
X49824104Y59401353D02*
X49824104Y59544210D01*
X49824104Y59544210D02*
X49776485Y59734686D01*
X49776485Y59734686D02*
X49728866Y59829924D01*
X49728866Y59829924D02*
X49633628Y59925162D01*
X49633628Y59925162D02*
X49490771Y59972781D01*
X49490771Y59972781D02*
X49395533Y59972781D01*
X49395533Y59972781D02*
X49252676Y59925162D01*
X49252676Y59925162D02*
X49205057Y59877543D01*
X48252676Y58972781D02*
X48824104Y58972781D01*
X48538390Y58972781D02*
X48538390Y59972781D01*
X48538390Y59972781D02*
X48633628Y59829924D01*
X48633628Y59829924D02*
X48728866Y59734686D01*
X48728866Y59734686D02*
X48824104Y59687067D01*
X47395533Y59972781D02*
X47586009Y59972781D01*
X47586009Y59972781D02*
X47681247Y59925162D01*
X47681247Y59925162D02*
X47728866Y59877543D01*
X47728866Y59877543D02*
X47824104Y59734686D01*
X47824104Y59734686D02*
X47871723Y59544210D01*
X47871723Y59544210D02*
X47871723Y59163258D01*
X47871723Y59163258D02*
X47824104Y59068020D01*
X47824104Y59068020D02*
X47776485Y59020400D01*
X47776485Y59020400D02*
X47681247Y58972781D01*
X47681247Y58972781D02*
X47490771Y58972781D01*
X47490771Y58972781D02*
X47395533Y59020400D01*
X47395533Y59020400D02*
X47347914Y59068020D01*
X47347914Y59068020D02*
X47300295Y59163258D01*
X47300295Y59163258D02*
X47300295Y59401353D01*
X47300295Y59401353D02*
X47347914Y59496591D01*
X47347914Y59496591D02*
X47395533Y59544210D01*
X47395533Y59544210D02*
X47490771Y59591829D01*
X47490771Y59591829D02*
X47681247Y59591829D01*
X47681247Y59591829D02*
X47776485Y59544210D01*
X47776485Y59544210D02*
X47824104Y59496591D01*
X47824104Y59496591D02*
X47871723Y59401353D01*
X53090438Y59083143D02*
X53185676Y59130762D01*
X53185676Y59130762D02*
X53280914Y59226000D01*
X53280914Y59226000D02*
X53423771Y59368858D01*
X53423771Y59368858D02*
X53519009Y59416477D01*
X53519009Y59416477D02*
X53614247Y59416477D01*
X53566628Y59178381D02*
X53661866Y59226000D01*
X53661866Y59226000D02*
X53757104Y59321239D01*
X53757104Y59321239D02*
X53804723Y59511715D01*
X53804723Y59511715D02*
X53804723Y59845048D01*
X53804723Y59845048D02*
X53757104Y60035524D01*
X53757104Y60035524D02*
X53661866Y60130762D01*
X53661866Y60130762D02*
X53566628Y60178381D01*
X53566628Y60178381D02*
X53376152Y60178381D01*
X53376152Y60178381D02*
X53280914Y60130762D01*
X53280914Y60130762D02*
X53185676Y60035524D01*
X53185676Y60035524D02*
X53138057Y59845048D01*
X53138057Y59845048D02*
X53138057Y59511715D01*
X53138057Y59511715D02*
X53185676Y59321239D01*
X53185676Y59321239D02*
X53280914Y59226000D01*
X53280914Y59226000D02*
X53376152Y59178381D01*
X53376152Y59178381D02*
X53566628Y59178381D01*
X52185676Y59178381D02*
X52757104Y59178381D01*
X52471390Y59178381D02*
X52471390Y60178381D01*
X52471390Y60178381D02*
X52566628Y60035524D01*
X52566628Y60035524D02*
X52661866Y59940286D01*
X52661866Y59940286D02*
X52757104Y59892667D01*
X52325494Y-3901072D02*
X52325494Y-2901072D01*
X52325494Y-2901072D02*
X52087399Y-2901072D01*
X52087399Y-2901072D02*
X51944542Y-2948691D01*
X51944542Y-2948691D02*
X51849304Y-3043929D01*
X51849304Y-3043929D02*
X51801685Y-3139167D01*
X51801685Y-3139167D02*
X51754066Y-3329643D01*
X51754066Y-3329643D02*
X51754066Y-3472500D01*
X51754066Y-3472500D02*
X51801685Y-3662976D01*
X51801685Y-3662976D02*
X51849304Y-3758214D01*
X51849304Y-3758214D02*
X51944542Y-3853453D01*
X51944542Y-3853453D02*
X52087399Y-3901072D01*
X52087399Y-3901072D02*
X52325494Y-3901072D01*
X51420732Y-2901072D02*
X50801685Y-2901072D01*
X50801685Y-2901072D02*
X51135018Y-3282024D01*
X51135018Y-3282024D02*
X50992161Y-3282024D01*
X50992161Y-3282024D02*
X50896923Y-3329643D01*
X50896923Y-3329643D02*
X50849304Y-3377262D01*
X50849304Y-3377262D02*
X50801685Y-3472500D01*
X50801685Y-3472500D02*
X50801685Y-3710595D01*
X50801685Y-3710595D02*
X50849304Y-3805833D01*
X50849304Y-3805833D02*
X50896923Y-3853453D01*
X50896923Y-3853453D02*
X50992161Y-3901072D01*
X50992161Y-3901072D02*
X51277875Y-3901072D01*
X51277875Y-3901072D02*
X51373113Y-3853453D01*
X51373113Y-3853453D02*
X51420732Y-3805833D01*
X58626119Y58259586D02*
X57626119Y58259586D01*
X57626119Y58259586D02*
X57626119Y58021491D01*
X57626119Y58021491D02*
X57673738Y57878634D01*
X57673738Y57878634D02*
X57768976Y57783396D01*
X57768976Y57783396D02*
X57864214Y57735777D01*
X57864214Y57735777D02*
X58054690Y57688158D01*
X58054690Y57688158D02*
X58197547Y57688158D01*
X58197547Y57688158D02*
X58388023Y57735777D01*
X58388023Y57735777D02*
X58483261Y57783396D01*
X58483261Y57783396D02*
X58578500Y57878634D01*
X58578500Y57878634D02*
X58626119Y58021491D01*
X58626119Y58021491D02*
X58626119Y58259586D01*
X58626119Y56735777D02*
X58626119Y57307205D01*
X58626119Y57021491D02*
X57626119Y57021491D01*
X57626119Y57021491D02*
X57768976Y57116729D01*
X57768976Y57116729D02*
X57864214Y57211967D01*
X57864214Y57211967D02*
X57911833Y57307205D01*
X57721357Y56354824D02*
X57673738Y56307205D01*
X57673738Y56307205D02*
X57626119Y56211967D01*
X57626119Y56211967D02*
X57626119Y55973872D01*
X57626119Y55973872D02*
X57673738Y55878634D01*
X57673738Y55878634D02*
X57721357Y55831015D01*
X57721357Y55831015D02*
X57816595Y55783396D01*
X57816595Y55783396D02*
X57911833Y55783396D01*
X57911833Y55783396D02*
X58054690Y55831015D01*
X58054690Y55831015D02*
X58626119Y56402443D01*
X58626119Y56402443D02*
X58626119Y55783396D01*
X52551819Y8034258D02*
X52075628Y8367591D01*
X52551819Y8605686D02*
X51551819Y8605686D01*
X51551819Y8605686D02*
X51551819Y8224734D01*
X51551819Y8224734D02*
X51599438Y8129496D01*
X51599438Y8129496D02*
X51647057Y8081877D01*
X51647057Y8081877D02*
X51742295Y8034258D01*
X51742295Y8034258D02*
X51885152Y8034258D01*
X51885152Y8034258D02*
X51980390Y8081877D01*
X51980390Y8081877D02*
X52028009Y8129496D01*
X52028009Y8129496D02*
X52075628Y8224734D01*
X52075628Y8224734D02*
X52075628Y8605686D01*
X52551819Y7081877D02*
X52551819Y7653305D01*
X52551819Y7367591D02*
X51551819Y7367591D01*
X51551819Y7367591D02*
X51694676Y7462829D01*
X51694676Y7462829D02*
X51789914Y7558067D01*
X51789914Y7558067D02*
X51837533Y7653305D01*
X51551819Y6748543D02*
X51551819Y6129496D01*
X51551819Y6129496D02*
X51932771Y6462829D01*
X51932771Y6462829D02*
X51932771Y6319972D01*
X51932771Y6319972D02*
X51980390Y6224734D01*
X51980390Y6224734D02*
X52028009Y6177115D01*
X52028009Y6177115D02*
X52123247Y6129496D01*
X52123247Y6129496D02*
X52361342Y6129496D01*
X52361342Y6129496D02*
X52456580Y6177115D01*
X52456580Y6177115D02*
X52504200Y6224734D01*
X52504200Y6224734D02*
X52551819Y6319972D01*
X52551819Y6319972D02*
X52551819Y6605686D01*
X52551819Y6605686D02*
X52504200Y6700924D01*
X52504200Y6700924D02*
X52456580Y6748543D01*
X-24750734Y14426020D02*
X-24703115Y14378400D01*
X-24703115Y14378400D02*
X-24560258Y14330781D01*
X-24560258Y14330781D02*
X-24465020Y14330781D01*
X-24465020Y14330781D02*
X-24322163Y14378400D01*
X-24322163Y14378400D02*
X-24226925Y14473639D01*
X-24226925Y14473639D02*
X-24179306Y14568877D01*
X-24179306Y14568877D02*
X-24131687Y14759353D01*
X-24131687Y14759353D02*
X-24131687Y14902210D01*
X-24131687Y14902210D02*
X-24179306Y15092686D01*
X-24179306Y15092686D02*
X-24226925Y15187924D01*
X-24226925Y15187924D02*
X-24322163Y15283162D01*
X-24322163Y15283162D02*
X-24465020Y15330781D01*
X-24465020Y15330781D02*
X-24560258Y15330781D01*
X-24560258Y15330781D02*
X-24703115Y15283162D01*
X-24703115Y15283162D02*
X-24750734Y15235543D01*
X-25607877Y15330781D02*
X-25417401Y15330781D01*
X-25417401Y15330781D02*
X-25322163Y15283162D01*
X-25322163Y15283162D02*
X-25274544Y15235543D01*
X-25274544Y15235543D02*
X-25179306Y15092686D01*
X-25179306Y15092686D02*
X-25131687Y14902210D01*
X-25131687Y14902210D02*
X-25131687Y14521258D01*
X-25131687Y14521258D02*
X-25179306Y14426020D01*
X-25179306Y14426020D02*
X-25226925Y14378400D01*
X-25226925Y14378400D02*
X-25322163Y14330781D01*
X-25322163Y14330781D02*
X-25512639Y14330781D01*
X-25512639Y14330781D02*
X-25607877Y14378400D01*
X-25607877Y14378400D02*
X-25655496Y14426020D01*
X-25655496Y14426020D02*
X-25703115Y14521258D01*
X-25703115Y14521258D02*
X-25703115Y14759353D01*
X-25703115Y14759353D02*
X-25655496Y14854591D01*
X-25655496Y14854591D02*
X-25607877Y14902210D01*
X-25607877Y14902210D02*
X-25512639Y14949829D01*
X-25512639Y14949829D02*
X-25322163Y14949829D01*
X-25322163Y14949829D02*
X-25226925Y14902210D01*
X-25226925Y14902210D02*
X-25179306Y14854591D01*
X-25179306Y14854591D02*
X-25131687Y14759353D01*
X32228619Y30360858D02*
X31752428Y30694191D01*
X32228619Y30932286D02*
X31228619Y30932286D01*
X31228619Y30932286D02*
X31228619Y30551334D01*
X31228619Y30551334D02*
X31276238Y30456096D01*
X31276238Y30456096D02*
X31323857Y30408477D01*
X31323857Y30408477D02*
X31419095Y30360858D01*
X31419095Y30360858D02*
X31561952Y30360858D01*
X31561952Y30360858D02*
X31657190Y30408477D01*
X31657190Y30408477D02*
X31704809Y30456096D01*
X31704809Y30456096D02*
X31752428Y30551334D01*
X31752428Y30551334D02*
X31752428Y30932286D01*
X31228619Y30027524D02*
X31228619Y29408477D01*
X31228619Y29408477D02*
X31609571Y29741810D01*
X31609571Y29741810D02*
X31609571Y29598953D01*
X31609571Y29598953D02*
X31657190Y29503715D01*
X31657190Y29503715D02*
X31704809Y29456096D01*
X31704809Y29456096D02*
X31800047Y29408477D01*
X31800047Y29408477D02*
X32038142Y29408477D01*
X32038142Y29408477D02*
X32133380Y29456096D01*
X32133380Y29456096D02*
X32181000Y29503715D01*
X32181000Y29503715D02*
X32228619Y29598953D01*
X32228619Y29598953D02*
X32228619Y29884667D01*
X32228619Y29884667D02*
X32181000Y29979905D01*
X32181000Y29979905D02*
X32133380Y30027524D01*
X32228619Y28456096D02*
X32228619Y29027524D01*
X32228619Y28741810D02*
X31228619Y28741810D01*
X31228619Y28741810D02*
X31371476Y28837048D01*
X31371476Y28837048D02*
X31466714Y28932286D01*
X31466714Y28932286D02*
X31514333Y29027524D01*
X40053419Y-2709942D02*
X39577228Y-2376609D01*
X40053419Y-2138514D02*
X39053419Y-2138514D01*
X39053419Y-2138514D02*
X39053419Y-2519466D01*
X39053419Y-2519466D02*
X39101038Y-2614704D01*
X39101038Y-2614704D02*
X39148657Y-2662323D01*
X39148657Y-2662323D02*
X39243895Y-2709942D01*
X39243895Y-2709942D02*
X39386752Y-2709942D01*
X39386752Y-2709942D02*
X39481990Y-2662323D01*
X39481990Y-2662323D02*
X39529609Y-2614704D01*
X39529609Y-2614704D02*
X39577228Y-2519466D01*
X39577228Y-2519466D02*
X39577228Y-2138514D01*
X39148657Y-3090895D02*
X39101038Y-3138514D01*
X39101038Y-3138514D02*
X39053419Y-3233752D01*
X39053419Y-3233752D02*
X39053419Y-3471847D01*
X39053419Y-3471847D02*
X39101038Y-3567085D01*
X39101038Y-3567085D02*
X39148657Y-3614704D01*
X39148657Y-3614704D02*
X39243895Y-3662323D01*
X39243895Y-3662323D02*
X39339133Y-3662323D01*
X39339133Y-3662323D02*
X39481990Y-3614704D01*
X39481990Y-3614704D02*
X40053419Y-3043276D01*
X40053419Y-3043276D02*
X40053419Y-3662323D01*
X40053419Y-4614704D02*
X40053419Y-4043276D01*
X40053419Y-4328990D02*
X39053419Y-4328990D01*
X39053419Y-4328990D02*
X39196276Y-4233752D01*
X39196276Y-4233752D02*
X39291514Y-4138514D01*
X39291514Y-4138514D02*
X39339133Y-4043276D01*
X19540457Y10773581D02*
X19873790Y11249772D01*
X20111885Y10773581D02*
X20111885Y11773581D01*
X20111885Y11773581D02*
X19730933Y11773581D01*
X19730933Y11773581D02*
X19635695Y11725962D01*
X19635695Y11725962D02*
X19588076Y11678343D01*
X19588076Y11678343D02*
X19540457Y11583105D01*
X19540457Y11583105D02*
X19540457Y11440248D01*
X19540457Y11440248D02*
X19588076Y11345010D01*
X19588076Y11345010D02*
X19635695Y11297391D01*
X19635695Y11297391D02*
X19730933Y11249772D01*
X19730933Y11249772D02*
X20111885Y11249772D01*
X18683314Y11440248D02*
X18683314Y10773581D01*
X18921409Y11821200D02*
X19159504Y11106915D01*
X19159504Y11106915D02*
X18540457Y11106915D01*
X18207123Y11678343D02*
X18159504Y11725962D01*
X18159504Y11725962D02*
X18064266Y11773581D01*
X18064266Y11773581D02*
X17826171Y11773581D01*
X17826171Y11773581D02*
X17730933Y11725962D01*
X17730933Y11725962D02*
X17683314Y11678343D01*
X17683314Y11678343D02*
X17635695Y11583105D01*
X17635695Y11583105D02*
X17635695Y11487867D01*
X17635695Y11487867D02*
X17683314Y11345010D01*
X17683314Y11345010D02*
X18254742Y10773581D01*
X18254742Y10773581D02*
X17635695Y10773581D01*
X31389980Y16241058D02*
X31437600Y16288677D01*
X31437600Y16288677D02*
X31485219Y16431534D01*
X31485219Y16431534D02*
X31485219Y16526772D01*
X31485219Y16526772D02*
X31437600Y16669629D01*
X31437600Y16669629D02*
X31342361Y16764867D01*
X31342361Y16764867D02*
X31247123Y16812486D01*
X31247123Y16812486D02*
X31056647Y16860105D01*
X31056647Y16860105D02*
X30913790Y16860105D01*
X30913790Y16860105D02*
X30723314Y16812486D01*
X30723314Y16812486D02*
X30628076Y16764867D01*
X30628076Y16764867D02*
X30532838Y16669629D01*
X30532838Y16669629D02*
X30485219Y16526772D01*
X30485219Y16526772D02*
X30485219Y16431534D01*
X30485219Y16431534D02*
X30532838Y16288677D01*
X30532838Y16288677D02*
X30580457Y16241058D01*
X30580457Y15860105D02*
X30532838Y15812486D01*
X30532838Y15812486D02*
X30485219Y15717248D01*
X30485219Y15717248D02*
X30485219Y15479153D01*
X30485219Y15479153D02*
X30532838Y15383915D01*
X30532838Y15383915D02*
X30580457Y15336296D01*
X30580457Y15336296D02*
X30675695Y15288677D01*
X30675695Y15288677D02*
X30770933Y15288677D01*
X30770933Y15288677D02*
X30913790Y15336296D01*
X30913790Y15336296D02*
X31485219Y15907724D01*
X31485219Y15907724D02*
X31485219Y15288677D01*
X30913790Y14717248D02*
X30866171Y14812486D01*
X30866171Y14812486D02*
X30818552Y14860105D01*
X30818552Y14860105D02*
X30723314Y14907724D01*
X30723314Y14907724D02*
X30675695Y14907724D01*
X30675695Y14907724D02*
X30580457Y14860105D01*
X30580457Y14860105D02*
X30532838Y14812486D01*
X30532838Y14812486D02*
X30485219Y14717248D01*
X30485219Y14717248D02*
X30485219Y14526772D01*
X30485219Y14526772D02*
X30532838Y14431534D01*
X30532838Y14431534D02*
X30580457Y14383915D01*
X30580457Y14383915D02*
X30675695Y14336296D01*
X30675695Y14336296D02*
X30723314Y14336296D01*
X30723314Y14336296D02*
X30818552Y14383915D01*
X30818552Y14383915D02*
X30866171Y14431534D01*
X30866171Y14431534D02*
X30913790Y14526772D01*
X30913790Y14526772D02*
X30913790Y14717248D01*
X30913790Y14717248D02*
X30961409Y14812486D01*
X30961409Y14812486D02*
X31009028Y14860105D01*
X31009028Y14860105D02*
X31104266Y14907724D01*
X31104266Y14907724D02*
X31294742Y14907724D01*
X31294742Y14907724D02*
X31389980Y14860105D01*
X31389980Y14860105D02*
X31437600Y14812486D01*
X31437600Y14812486D02*
X31485219Y14717248D01*
X31485219Y14717248D02*
X31485219Y14526772D01*
X31485219Y14526772D02*
X31437600Y14431534D01*
X31437600Y14431534D02*
X31389980Y14383915D01*
X31389980Y14383915D02*
X31294742Y14336296D01*
X31294742Y14336296D02*
X31104266Y14336296D01*
X31104266Y14336296D02*
X31009028Y14383915D01*
X31009028Y14383915D02*
X30961409Y14431534D01*
X30961409Y14431534D02*
X30913790Y14526772D01*
X44843380Y55506858D02*
X44891000Y55554477D01*
X44891000Y55554477D02*
X44938619Y55697334D01*
X44938619Y55697334D02*
X44938619Y55792572D01*
X44938619Y55792572D02*
X44891000Y55935429D01*
X44891000Y55935429D02*
X44795761Y56030667D01*
X44795761Y56030667D02*
X44700523Y56078286D01*
X44700523Y56078286D02*
X44510047Y56125905D01*
X44510047Y56125905D02*
X44367190Y56125905D01*
X44367190Y56125905D02*
X44176714Y56078286D01*
X44176714Y56078286D02*
X44081476Y56030667D01*
X44081476Y56030667D02*
X43986238Y55935429D01*
X43986238Y55935429D02*
X43938619Y55792572D01*
X43938619Y55792572D02*
X43938619Y55697334D01*
X43938619Y55697334D02*
X43986238Y55554477D01*
X43986238Y55554477D02*
X44033857Y55506858D01*
X44938619Y54554477D02*
X44938619Y55125905D01*
X44938619Y54840191D02*
X43938619Y54840191D01*
X43938619Y54840191D02*
X44081476Y54935429D01*
X44081476Y54935429D02*
X44176714Y55030667D01*
X44176714Y55030667D02*
X44224333Y55125905D01*
X44271952Y53697334D02*
X44938619Y53697334D01*
X43891000Y53935429D02*
X44605285Y54173524D01*
X44605285Y54173524D02*
X44605285Y53554477D01*
X8366457Y10722781D02*
X8699790Y11198972D01*
X8937885Y10722781D02*
X8937885Y11722781D01*
X8937885Y11722781D02*
X8556933Y11722781D01*
X8556933Y11722781D02*
X8461695Y11675162D01*
X8461695Y11675162D02*
X8414076Y11627543D01*
X8414076Y11627543D02*
X8366457Y11532305D01*
X8366457Y11532305D02*
X8366457Y11389448D01*
X8366457Y11389448D02*
X8414076Y11294210D01*
X8414076Y11294210D02*
X8461695Y11246591D01*
X8461695Y11246591D02*
X8556933Y11198972D01*
X8556933Y11198972D02*
X8937885Y11198972D01*
X7509314Y11389448D02*
X7509314Y10722781D01*
X7747409Y11770400D02*
X7985504Y11056115D01*
X7985504Y11056115D02*
X7366457Y11056115D01*
X6461695Y10722781D02*
X7033123Y10722781D01*
X6747409Y10722781D02*
X6747409Y11722781D01*
X6747409Y11722781D02*
X6842647Y11579924D01*
X6842647Y11579924D02*
X6937885Y11484686D01*
X6937885Y11484686D02*
X7033123Y11437067D01*
X51358019Y2759467D02*
X50881828Y3092800D01*
X51358019Y3330895D02*
X50358019Y3330895D01*
X50358019Y3330895D02*
X50358019Y2949943D01*
X50358019Y2949943D02*
X50405638Y2854705D01*
X50405638Y2854705D02*
X50453257Y2807086D01*
X50453257Y2807086D02*
X50548495Y2759467D01*
X50548495Y2759467D02*
X50691352Y2759467D01*
X50691352Y2759467D02*
X50786590Y2807086D01*
X50786590Y2807086D02*
X50834209Y2854705D01*
X50834209Y2854705D02*
X50881828Y2949943D01*
X50881828Y2949943D02*
X50881828Y3330895D01*
X50358019Y2426133D02*
X50358019Y1759467D01*
X50358019Y1759467D02*
X51358019Y2188038D01*
X41858419Y3436858D02*
X41382228Y3770191D01*
X41858419Y4008286D02*
X40858419Y4008286D01*
X40858419Y4008286D02*
X40858419Y3627334D01*
X40858419Y3627334D02*
X40906038Y3532096D01*
X40906038Y3532096D02*
X40953657Y3484477D01*
X40953657Y3484477D02*
X41048895Y3436858D01*
X41048895Y3436858D02*
X41191752Y3436858D01*
X41191752Y3436858D02*
X41286990Y3484477D01*
X41286990Y3484477D02*
X41334609Y3532096D01*
X41334609Y3532096D02*
X41382228Y3627334D01*
X41382228Y3627334D02*
X41382228Y4008286D01*
X40953657Y3055905D02*
X40906038Y3008286D01*
X40906038Y3008286D02*
X40858419Y2913048D01*
X40858419Y2913048D02*
X40858419Y2674953D01*
X40858419Y2674953D02*
X40906038Y2579715D01*
X40906038Y2579715D02*
X40953657Y2532096D01*
X40953657Y2532096D02*
X41048895Y2484477D01*
X41048895Y2484477D02*
X41144133Y2484477D01*
X41144133Y2484477D02*
X41286990Y2532096D01*
X41286990Y2532096D02*
X41858419Y3103524D01*
X41858419Y3103524D02*
X41858419Y2484477D01*
X40858419Y2151143D02*
X40858419Y1532096D01*
X40858419Y1532096D02*
X41239371Y1865429D01*
X41239371Y1865429D02*
X41239371Y1722572D01*
X41239371Y1722572D02*
X41286990Y1627334D01*
X41286990Y1627334D02*
X41334609Y1579715D01*
X41334609Y1579715D02*
X41429847Y1532096D01*
X41429847Y1532096D02*
X41667942Y1532096D01*
X41667942Y1532096D02*
X41763180Y1579715D01*
X41763180Y1579715D02*
X41810800Y1627334D01*
X41810800Y1627334D02*
X41858419Y1722572D01*
X41858419Y1722572D02*
X41858419Y2008286D01*
X41858419Y2008286D02*
X41810800Y2103524D01*
X41810800Y2103524D02*
X41763180Y2151143D01*
X22220580Y16241058D02*
X22268200Y16288677D01*
X22268200Y16288677D02*
X22315819Y16431534D01*
X22315819Y16431534D02*
X22315819Y16526772D01*
X22315819Y16526772D02*
X22268200Y16669629D01*
X22268200Y16669629D02*
X22172961Y16764867D01*
X22172961Y16764867D02*
X22077723Y16812486D01*
X22077723Y16812486D02*
X21887247Y16860105D01*
X21887247Y16860105D02*
X21744390Y16860105D01*
X21744390Y16860105D02*
X21553914Y16812486D01*
X21553914Y16812486D02*
X21458676Y16764867D01*
X21458676Y16764867D02*
X21363438Y16669629D01*
X21363438Y16669629D02*
X21315819Y16526772D01*
X21315819Y16526772D02*
X21315819Y16431534D01*
X21315819Y16431534D02*
X21363438Y16288677D01*
X21363438Y16288677D02*
X21411057Y16241058D01*
X21411057Y15860105D02*
X21363438Y15812486D01*
X21363438Y15812486D02*
X21315819Y15717248D01*
X21315819Y15717248D02*
X21315819Y15479153D01*
X21315819Y15479153D02*
X21363438Y15383915D01*
X21363438Y15383915D02*
X21411057Y15336296D01*
X21411057Y15336296D02*
X21506295Y15288677D01*
X21506295Y15288677D02*
X21601533Y15288677D01*
X21601533Y15288677D02*
X21744390Y15336296D01*
X21744390Y15336296D02*
X22315819Y15907724D01*
X22315819Y15907724D02*
X22315819Y15288677D01*
X21649152Y14431534D02*
X22315819Y14431534D01*
X21268200Y14669629D02*
X21982485Y14907724D01*
X21982485Y14907724D02*
X21982485Y14288677D01*
X47370219Y2782867D02*
X46894028Y3116200D01*
X47370219Y3354295D02*
X46370219Y3354295D01*
X46370219Y3354295D02*
X46370219Y2973343D01*
X46370219Y2973343D02*
X46417838Y2878105D01*
X46417838Y2878105D02*
X46465457Y2830486D01*
X46465457Y2830486D02*
X46560695Y2782867D01*
X46560695Y2782867D02*
X46703552Y2782867D01*
X46703552Y2782867D02*
X46798790Y2830486D01*
X46798790Y2830486D02*
X46846409Y2878105D01*
X46846409Y2878105D02*
X46894028Y2973343D01*
X46894028Y2973343D02*
X46894028Y3354295D01*
X46703552Y1925724D02*
X47370219Y1925724D01*
X46322600Y2163819D02*
X47036885Y2401914D01*
X47036885Y2401914D02*
X47036885Y1782867D01*
X-27620734Y22306020D02*
X-27573115Y22258400D01*
X-27573115Y22258400D02*
X-27430258Y22210781D01*
X-27430258Y22210781D02*
X-27335020Y22210781D01*
X-27335020Y22210781D02*
X-27192163Y22258400D01*
X-27192163Y22258400D02*
X-27096925Y22353639D01*
X-27096925Y22353639D02*
X-27049306Y22448877D01*
X-27049306Y22448877D02*
X-27001687Y22639353D01*
X-27001687Y22639353D02*
X-27001687Y22782210D01*
X-27001687Y22782210D02*
X-27049306Y22972686D01*
X-27049306Y22972686D02*
X-27096925Y23067924D01*
X-27096925Y23067924D02*
X-27192163Y23163162D01*
X-27192163Y23163162D02*
X-27335020Y23210781D01*
X-27335020Y23210781D02*
X-27430258Y23210781D01*
X-27430258Y23210781D02*
X-27573115Y23163162D01*
X-27573115Y23163162D02*
X-27620734Y23115543D01*
X-28192163Y22782210D02*
X-28096925Y22829829D01*
X-28096925Y22829829D02*
X-28049306Y22877448D01*
X-28049306Y22877448D02*
X-28001687Y22972686D01*
X-28001687Y22972686D02*
X-28001687Y23020305D01*
X-28001687Y23020305D02*
X-28049306Y23115543D01*
X-28049306Y23115543D02*
X-28096925Y23163162D01*
X-28096925Y23163162D02*
X-28192163Y23210781D01*
X-28192163Y23210781D02*
X-28382639Y23210781D01*
X-28382639Y23210781D02*
X-28477877Y23163162D01*
X-28477877Y23163162D02*
X-28525496Y23115543D01*
X-28525496Y23115543D02*
X-28573115Y23020305D01*
X-28573115Y23020305D02*
X-28573115Y22972686D01*
X-28573115Y22972686D02*
X-28525496Y22877448D01*
X-28525496Y22877448D02*
X-28477877Y22829829D01*
X-28477877Y22829829D02*
X-28382639Y22782210D01*
X-28382639Y22782210D02*
X-28192163Y22782210D01*
X-28192163Y22782210D02*
X-28096925Y22734591D01*
X-28096925Y22734591D02*
X-28049306Y22686972D01*
X-28049306Y22686972D02*
X-28001687Y22591734D01*
X-28001687Y22591734D02*
X-28001687Y22401258D01*
X-28001687Y22401258D02*
X-28049306Y22306020D01*
X-28049306Y22306020D02*
X-28096925Y22258400D01*
X-28096925Y22258400D02*
X-28192163Y22210781D01*
X-28192163Y22210781D02*
X-28382639Y22210781D01*
X-28382639Y22210781D02*
X-28477877Y22258400D01*
X-28477877Y22258400D02*
X-28525496Y22306020D01*
X-28525496Y22306020D02*
X-28573115Y22401258D01*
X-28573115Y22401258D02*
X-28573115Y22591734D01*
X-28573115Y22591734D02*
X-28525496Y22686972D01*
X-28525496Y22686972D02*
X-28477877Y22734591D01*
X-28477877Y22734591D02*
X-28382639Y22782210D01*
X29104419Y30360858D02*
X28628228Y30694191D01*
X29104419Y30932286D02*
X28104419Y30932286D01*
X28104419Y30932286D02*
X28104419Y30551334D01*
X28104419Y30551334D02*
X28152038Y30456096D01*
X28152038Y30456096D02*
X28199657Y30408477D01*
X28199657Y30408477D02*
X28294895Y30360858D01*
X28294895Y30360858D02*
X28437752Y30360858D01*
X28437752Y30360858D02*
X28532990Y30408477D01*
X28532990Y30408477D02*
X28580609Y30456096D01*
X28580609Y30456096D02*
X28628228Y30551334D01*
X28628228Y30551334D02*
X28628228Y30932286D01*
X28104419Y30027524D02*
X28104419Y29408477D01*
X28104419Y29408477D02*
X28485371Y29741810D01*
X28485371Y29741810D02*
X28485371Y29598953D01*
X28485371Y29598953D02*
X28532990Y29503715D01*
X28532990Y29503715D02*
X28580609Y29456096D01*
X28580609Y29456096D02*
X28675847Y29408477D01*
X28675847Y29408477D02*
X28913942Y29408477D01*
X28913942Y29408477D02*
X29009180Y29456096D01*
X29009180Y29456096D02*
X29056800Y29503715D01*
X29056800Y29503715D02*
X29104419Y29598953D01*
X29104419Y29598953D02*
X29104419Y29884667D01*
X29104419Y29884667D02*
X29056800Y29979905D01*
X29056800Y29979905D02*
X29009180Y30027524D01*
X28104419Y28789429D02*
X28104419Y28694191D01*
X28104419Y28694191D02*
X28152038Y28598953D01*
X28152038Y28598953D02*
X28199657Y28551334D01*
X28199657Y28551334D02*
X28294895Y28503715D01*
X28294895Y28503715D02*
X28485371Y28456096D01*
X28485371Y28456096D02*
X28723466Y28456096D01*
X28723466Y28456096D02*
X28913942Y28503715D01*
X28913942Y28503715D02*
X29009180Y28551334D01*
X29009180Y28551334D02*
X29056800Y28598953D01*
X29056800Y28598953D02*
X29104419Y28694191D01*
X29104419Y28694191D02*
X29104419Y28789429D01*
X29104419Y28789429D02*
X29056800Y28884667D01*
X29056800Y28884667D02*
X29009180Y28932286D01*
X29009180Y28932286D02*
X28913942Y28979905D01*
X28913942Y28979905D02*
X28723466Y29027524D01*
X28723466Y29027524D02*
X28485371Y29027524D01*
X28485371Y29027524D02*
X28294895Y28979905D01*
X28294895Y28979905D02*
X28199657Y28932286D01*
X28199657Y28932286D02*
X28152038Y28884667D01*
X28152038Y28884667D02*
X28104419Y28789429D01*
X49580019Y2757467D02*
X49103828Y3090800D01*
X49580019Y3328895D02*
X48580019Y3328895D01*
X48580019Y3328895D02*
X48580019Y2947943D01*
X48580019Y2947943D02*
X48627638Y2852705D01*
X48627638Y2852705D02*
X48675257Y2805086D01*
X48675257Y2805086D02*
X48770495Y2757467D01*
X48770495Y2757467D02*
X48913352Y2757467D01*
X48913352Y2757467D02*
X49008590Y2805086D01*
X49008590Y2805086D02*
X49056209Y2852705D01*
X49056209Y2852705D02*
X49103828Y2947943D01*
X49103828Y2947943D02*
X49103828Y3328895D01*
X48580019Y1900324D02*
X48580019Y2090800D01*
X48580019Y2090800D02*
X48627638Y2186038D01*
X48627638Y2186038D02*
X48675257Y2233657D01*
X48675257Y2233657D02*
X48818114Y2328895D01*
X48818114Y2328895D02*
X49008590Y2376514D01*
X49008590Y2376514D02*
X49389542Y2376514D01*
X49389542Y2376514D02*
X49484780Y2328895D01*
X49484780Y2328895D02*
X49532400Y2281276D01*
X49532400Y2281276D02*
X49580019Y2186038D01*
X49580019Y2186038D02*
X49580019Y1995562D01*
X49580019Y1995562D02*
X49532400Y1900324D01*
X49532400Y1900324D02*
X49484780Y1852705D01*
X49484780Y1852705D02*
X49389542Y1805086D01*
X49389542Y1805086D02*
X49151447Y1805086D01*
X49151447Y1805086D02*
X49056209Y1852705D01*
X49056209Y1852705D02*
X49008590Y1900324D01*
X49008590Y1900324D02*
X48960971Y1995562D01*
X48960971Y1995562D02*
X48960971Y2186038D01*
X48960971Y2186038D02*
X49008590Y2281276D01*
X49008590Y2281276D02*
X49056209Y2328895D01*
X49056209Y2328895D02*
X49151447Y2376514D01*
X49893457Y12992420D02*
X49941076Y12944800D01*
X49941076Y12944800D02*
X50083933Y12897181D01*
X50083933Y12897181D02*
X50179171Y12897181D01*
X50179171Y12897181D02*
X50322028Y12944800D01*
X50322028Y12944800D02*
X50417266Y13040039D01*
X50417266Y13040039D02*
X50464885Y13135277D01*
X50464885Y13135277D02*
X50512504Y13325753D01*
X50512504Y13325753D02*
X50512504Y13468610D01*
X50512504Y13468610D02*
X50464885Y13659086D01*
X50464885Y13659086D02*
X50417266Y13754324D01*
X50417266Y13754324D02*
X50322028Y13849562D01*
X50322028Y13849562D02*
X50179171Y13897181D01*
X50179171Y13897181D02*
X50083933Y13897181D01*
X50083933Y13897181D02*
X49941076Y13849562D01*
X49941076Y13849562D02*
X49893457Y13801943D01*
X48941076Y12897181D02*
X49512504Y12897181D01*
X49226790Y12897181D02*
X49226790Y13897181D01*
X49226790Y13897181D02*
X49322028Y13754324D01*
X49322028Y13754324D02*
X49417266Y13659086D01*
X49417266Y13659086D02*
X49512504Y13611467D01*
X48322028Y13897181D02*
X48226790Y13897181D01*
X48226790Y13897181D02*
X48131552Y13849562D01*
X48131552Y13849562D02*
X48083933Y13801943D01*
X48083933Y13801943D02*
X48036314Y13706705D01*
X48036314Y13706705D02*
X47988695Y13516229D01*
X47988695Y13516229D02*
X47988695Y13278134D01*
X47988695Y13278134D02*
X48036314Y13087658D01*
X48036314Y13087658D02*
X48083933Y12992420D01*
X48083933Y12992420D02*
X48131552Y12944800D01*
X48131552Y12944800D02*
X48226790Y12897181D01*
X48226790Y12897181D02*
X48322028Y12897181D01*
X48322028Y12897181D02*
X48417266Y12944800D01*
X48417266Y12944800D02*
X48464885Y12992420D01*
X48464885Y12992420D02*
X48512504Y13087658D01*
X48512504Y13087658D02*
X48560123Y13278134D01*
X48560123Y13278134D02*
X48560123Y13516229D01*
X48560123Y13516229D02*
X48512504Y13706705D01*
X48512504Y13706705D02*
X48464885Y13801943D01*
X48464885Y13801943D02*
X48417266Y13849562D01*
X48417266Y13849562D02*
X48322028Y13897181D01*
X40717419Y3436858D02*
X40241228Y3770191D01*
X40717419Y4008286D02*
X39717419Y4008286D01*
X39717419Y4008286D02*
X39717419Y3627334D01*
X39717419Y3627334D02*
X39765038Y3532096D01*
X39765038Y3532096D02*
X39812657Y3484477D01*
X39812657Y3484477D02*
X39907895Y3436858D01*
X39907895Y3436858D02*
X40050752Y3436858D01*
X40050752Y3436858D02*
X40145990Y3484477D01*
X40145990Y3484477D02*
X40193609Y3532096D01*
X40193609Y3532096D02*
X40241228Y3627334D01*
X40241228Y3627334D02*
X40241228Y4008286D01*
X39812657Y3055905D02*
X39765038Y3008286D01*
X39765038Y3008286D02*
X39717419Y2913048D01*
X39717419Y2913048D02*
X39717419Y2674953D01*
X39717419Y2674953D02*
X39765038Y2579715D01*
X39765038Y2579715D02*
X39812657Y2532096D01*
X39812657Y2532096D02*
X39907895Y2484477D01*
X39907895Y2484477D02*
X40003133Y2484477D01*
X40003133Y2484477D02*
X40145990Y2532096D01*
X40145990Y2532096D02*
X40717419Y3103524D01*
X40717419Y3103524D02*
X40717419Y2484477D01*
X39812657Y2103524D02*
X39765038Y2055905D01*
X39765038Y2055905D02*
X39717419Y1960667D01*
X39717419Y1960667D02*
X39717419Y1722572D01*
X39717419Y1722572D02*
X39765038Y1627334D01*
X39765038Y1627334D02*
X39812657Y1579715D01*
X39812657Y1579715D02*
X39907895Y1532096D01*
X39907895Y1532096D02*
X40003133Y1532096D01*
X40003133Y1532096D02*
X40145990Y1579715D01*
X40145990Y1579715D02*
X40717419Y2151143D01*
X40717419Y2151143D02*
X40717419Y1532096D01*
X-24750734Y22306020D02*
X-24703115Y22258400D01*
X-24703115Y22258400D02*
X-24560258Y22210781D01*
X-24560258Y22210781D02*
X-24465020Y22210781D01*
X-24465020Y22210781D02*
X-24322163Y22258400D01*
X-24322163Y22258400D02*
X-24226925Y22353639D01*
X-24226925Y22353639D02*
X-24179306Y22448877D01*
X-24179306Y22448877D02*
X-24131687Y22639353D01*
X-24131687Y22639353D02*
X-24131687Y22782210D01*
X-24131687Y22782210D02*
X-24179306Y22972686D01*
X-24179306Y22972686D02*
X-24226925Y23067924D01*
X-24226925Y23067924D02*
X-24322163Y23163162D01*
X-24322163Y23163162D02*
X-24465020Y23210781D01*
X-24465020Y23210781D02*
X-24560258Y23210781D01*
X-24560258Y23210781D02*
X-24703115Y23163162D01*
X-24703115Y23163162D02*
X-24750734Y23115543D01*
X-25131687Y23115543D02*
X-25179306Y23163162D01*
X-25179306Y23163162D02*
X-25274544Y23210781D01*
X-25274544Y23210781D02*
X-25512639Y23210781D01*
X-25512639Y23210781D02*
X-25607877Y23163162D01*
X-25607877Y23163162D02*
X-25655496Y23115543D01*
X-25655496Y23115543D02*
X-25703115Y23020305D01*
X-25703115Y23020305D02*
X-25703115Y22925067D01*
X-25703115Y22925067D02*
X-25655496Y22782210D01*
X-25655496Y22782210D02*
X-25084068Y22210781D01*
X-25084068Y22210781D02*
X-25703115Y22210781D01*
X45897019Y8237458D02*
X45420828Y8570791D01*
X45897019Y8808886D02*
X44897019Y8808886D01*
X44897019Y8808886D02*
X44897019Y8427934D01*
X44897019Y8427934D02*
X44944638Y8332696D01*
X44944638Y8332696D02*
X44992257Y8285077D01*
X44992257Y8285077D02*
X45087495Y8237458D01*
X45087495Y8237458D02*
X45230352Y8237458D01*
X45230352Y8237458D02*
X45325590Y8285077D01*
X45325590Y8285077D02*
X45373209Y8332696D01*
X45373209Y8332696D02*
X45420828Y8427934D01*
X45420828Y8427934D02*
X45420828Y8808886D01*
X45897019Y7285077D02*
X45897019Y7856505D01*
X45897019Y7570791D02*
X44897019Y7570791D01*
X44897019Y7570791D02*
X45039876Y7666029D01*
X45039876Y7666029D02*
X45135114Y7761267D01*
X45135114Y7761267D02*
X45182733Y7856505D01*
X44897019Y6380315D02*
X44897019Y6856505D01*
X44897019Y6856505D02*
X45373209Y6904124D01*
X45373209Y6904124D02*
X45325590Y6856505D01*
X45325590Y6856505D02*
X45277971Y6761267D01*
X45277971Y6761267D02*
X45277971Y6523172D01*
X45277971Y6523172D02*
X45325590Y6427934D01*
X45325590Y6427934D02*
X45373209Y6380315D01*
X45373209Y6380315D02*
X45468447Y6332696D01*
X45468447Y6332696D02*
X45706542Y6332696D01*
X45706542Y6332696D02*
X45801780Y6380315D01*
X45801780Y6380315D02*
X45849400Y6427934D01*
X45849400Y6427934D02*
X45897019Y6523172D01*
X45897019Y6523172D02*
X45897019Y6761267D01*
X45897019Y6761267D02*
X45849400Y6856505D01*
X45849400Y6856505D02*
X45801780Y6904124D01*
X51588019Y15900305D02*
X52397542Y15900305D01*
X52397542Y15900305D02*
X52492780Y15852686D01*
X52492780Y15852686D02*
X52540400Y15805067D01*
X52540400Y15805067D02*
X52588019Y15709829D01*
X52588019Y15709829D02*
X52588019Y15519353D01*
X52588019Y15519353D02*
X52540400Y15424115D01*
X52540400Y15424115D02*
X52492780Y15376496D01*
X52492780Y15376496D02*
X52397542Y15328877D01*
X52397542Y15328877D02*
X51588019Y15328877D01*
X51683257Y14900305D02*
X51635638Y14852686D01*
X51635638Y14852686D02*
X51588019Y14757448D01*
X51588019Y14757448D02*
X51588019Y14519353D01*
X51588019Y14519353D02*
X51635638Y14424115D01*
X51635638Y14424115D02*
X51683257Y14376496D01*
X51683257Y14376496D02*
X51778495Y14328877D01*
X51778495Y14328877D02*
X51873733Y14328877D01*
X51873733Y14328877D02*
X52016590Y14376496D01*
X52016590Y14376496D02*
X52588019Y14947924D01*
X52588019Y14947924D02*
X52588019Y14328877D01*
X27232099Y42664586D02*
X27939206Y43371693D01*
X26558665Y43472708D02*
X26558665Y43405365D01*
X26558665Y43405365D02*
X26626008Y43270678D01*
X26626008Y43270678D02*
X26693352Y43203334D01*
X26693352Y43203334D02*
X26828039Y43135991D01*
X26828039Y43135991D02*
X26962726Y43135991D01*
X26962726Y43135991D02*
X27063741Y43169662D01*
X27063741Y43169662D02*
X27232100Y43270678D01*
X27232100Y43270678D02*
X27333115Y43371693D01*
X27333115Y43371693D02*
X27434130Y43540052D01*
X27434130Y43540052D02*
X27467802Y43641067D01*
X27467802Y43641067D02*
X27467802Y43775754D01*
X27467802Y43775754D02*
X27400458Y43910441D01*
X27400458Y43910441D02*
X27333115Y43977784D01*
X27333115Y43977784D02*
X27198428Y44045128D01*
X27198428Y44045128D02*
X27131084Y44045128D01*
X25817886Y44078800D02*
X26221947Y43674739D01*
X26019917Y43876769D02*
X26727023Y44583876D01*
X26727023Y44583876D02*
X26693352Y44415517D01*
X26693352Y44415517D02*
X26693352Y44280830D01*
X26693352Y44280830D02*
X26727023Y44179815D01*
X86099590Y36278772D02*
X86099590Y35802581D01*
X86432923Y36802581D02*
X86099590Y36278772D01*
X86099590Y36278772D02*
X85766257Y36802581D01*
X84909114Y35802581D02*
X85480542Y35802581D01*
X85194828Y35802581D02*
X85194828Y36802581D01*
X85194828Y36802581D02*
X85290066Y36659724D01*
X85290066Y36659724D02*
X85385304Y36564486D01*
X85385304Y36564486D02*
X85480542Y36516867D01*
X-33520143Y15971781D02*
X-33186810Y16447972D01*
X-32948715Y15971781D02*
X-32948715Y16971781D01*
X-32948715Y16971781D02*
X-33329667Y16971781D01*
X-33329667Y16971781D02*
X-33424905Y16924162D01*
X-33424905Y16924162D02*
X-33472524Y16876543D01*
X-33472524Y16876543D02*
X-33520143Y16781305D01*
X-33520143Y16781305D02*
X-33520143Y16638448D01*
X-33520143Y16638448D02*
X-33472524Y16543210D01*
X-33472524Y16543210D02*
X-33424905Y16495591D01*
X-33424905Y16495591D02*
X-33329667Y16447972D01*
X-33329667Y16447972D02*
X-32948715Y16447972D01*
X-34472524Y15971781D02*
X-33901096Y15971781D01*
X-34186810Y15971781D02*
X-34186810Y16971781D01*
X-34186810Y16971781D02*
X-34091572Y16828924D01*
X-34091572Y16828924D02*
X-33996334Y16733686D01*
X-33996334Y16733686D02*
X-33901096Y16686067D01*
X-34805858Y16971781D02*
X-35472524Y16971781D01*
X-35472524Y16971781D02*
X-35043953Y15971781D01*
X82064780Y33884267D02*
X82112400Y33931886D01*
X82112400Y33931886D02*
X82160019Y34074743D01*
X82160019Y34074743D02*
X82160019Y34169981D01*
X82160019Y34169981D02*
X82112400Y34312838D01*
X82112400Y34312838D02*
X82017161Y34408076D01*
X82017161Y34408076D02*
X81921923Y34455695D01*
X81921923Y34455695D02*
X81731447Y34503314D01*
X81731447Y34503314D02*
X81588590Y34503314D01*
X81588590Y34503314D02*
X81398114Y34455695D01*
X81398114Y34455695D02*
X81302876Y34408076D01*
X81302876Y34408076D02*
X81207638Y34312838D01*
X81207638Y34312838D02*
X81160019Y34169981D01*
X81160019Y34169981D02*
X81160019Y34074743D01*
X81160019Y34074743D02*
X81207638Y33931886D01*
X81207638Y33931886D02*
X81255257Y33884267D01*
X82160019Y32931886D02*
X82160019Y33503314D01*
X82160019Y33217600D02*
X81160019Y33217600D01*
X81160019Y33217600D02*
X81302876Y33312838D01*
X81302876Y33312838D02*
X81398114Y33408076D01*
X81398114Y33408076D02*
X81445733Y33503314D01*
X16785419Y30360858D02*
X16309228Y30694191D01*
X16785419Y30932286D02*
X15785419Y30932286D01*
X15785419Y30932286D02*
X15785419Y30551334D01*
X15785419Y30551334D02*
X15833038Y30456096D01*
X15833038Y30456096D02*
X15880657Y30408477D01*
X15880657Y30408477D02*
X15975895Y30360858D01*
X15975895Y30360858D02*
X16118752Y30360858D01*
X16118752Y30360858D02*
X16213990Y30408477D01*
X16213990Y30408477D02*
X16261609Y30456096D01*
X16261609Y30456096D02*
X16309228Y30551334D01*
X16309228Y30551334D02*
X16309228Y30932286D01*
X15880657Y29979905D02*
X15833038Y29932286D01*
X15833038Y29932286D02*
X15785419Y29837048D01*
X15785419Y29837048D02*
X15785419Y29598953D01*
X15785419Y29598953D02*
X15833038Y29503715D01*
X15833038Y29503715D02*
X15880657Y29456096D01*
X15880657Y29456096D02*
X15975895Y29408477D01*
X15975895Y29408477D02*
X16071133Y29408477D01*
X16071133Y29408477D02*
X16213990Y29456096D01*
X16213990Y29456096D02*
X16785419Y30027524D01*
X16785419Y30027524D02*
X16785419Y29408477D01*
X15785419Y28551334D02*
X15785419Y28741810D01*
X15785419Y28741810D02*
X15833038Y28837048D01*
X15833038Y28837048D02*
X15880657Y28884667D01*
X15880657Y28884667D02*
X16023514Y28979905D01*
X16023514Y28979905D02*
X16213990Y29027524D01*
X16213990Y29027524D02*
X16594942Y29027524D01*
X16594942Y29027524D02*
X16690180Y28979905D01*
X16690180Y28979905D02*
X16737800Y28932286D01*
X16737800Y28932286D02*
X16785419Y28837048D01*
X16785419Y28837048D02*
X16785419Y28646572D01*
X16785419Y28646572D02*
X16737800Y28551334D01*
X16737800Y28551334D02*
X16690180Y28503715D01*
X16690180Y28503715D02*
X16594942Y28456096D01*
X16594942Y28456096D02*
X16356847Y28456096D01*
X16356847Y28456096D02*
X16261609Y28503715D01*
X16261609Y28503715D02*
X16213990Y28551334D01*
X16213990Y28551334D02*
X16166371Y28646572D01*
X16166371Y28646572D02*
X16166371Y28837048D01*
X16166371Y28837048D02*
X16213990Y28932286D01*
X16213990Y28932286D02*
X16261609Y28979905D01*
X16261609Y28979905D02*
X16356847Y29027524D01*
D11*
%TO.C,C5*%
X-25025236Y15955600D02*
X-24809564Y15955600D01*
X-25025236Y15235600D02*
X-24809564Y15235600D01*
%TO.C,C23*%
X16861200Y15706036D02*
X16861200Y15490364D01*
X17581200Y15706036D02*
X17581200Y15490364D01*
%TO.C,R29*%
X26391600Y29564359D02*
X26391600Y29871641D01*
X27151600Y29564359D02*
X27151600Y29871641D01*
%TO.C,C21*%
X13762400Y15706036D02*
X13762400Y15490364D01*
X14482400Y15706036D02*
X14482400Y15490364D01*
%TO.C,C25*%
X22957200Y15706036D02*
X22957200Y15490364D01*
X23677200Y15706036D02*
X23677200Y15490364D01*
%TO.C,R43*%
X23011159Y10692400D02*
X23318441Y10692400D01*
X23011159Y9932400D02*
X23318441Y9932400D01*
%TO.C,C11*%
X40326364Y12501200D02*
X40542036Y12501200D01*
X40326364Y11781200D02*
X40542036Y11781200D01*
%TO.C,R18*%
X-11530600Y26571641D02*
X-11530600Y26264359D01*
X-10770600Y26571641D02*
X-10770600Y26264359D01*
D12*
%TO.C,D13*%
X38134400Y1009947D02*
X38124400Y1009947D01*
X39904400Y1009947D02*
X39894400Y1009947D01*
X39904400Y379947D02*
X38114400Y379947D01*
X39957817Y93768D02*
G75*
G02*
X38024400Y119947I-963417J256179D01*
G01*
D11*
%TO.C,Y2*%
X30885200Y34328200D02*
X34885200Y34328200D01*
X34885200Y34328200D02*
X34885200Y37628200D01*
%TO.C,U3*%
X41086600Y15989200D02*
X41086600Y15189200D01*
X41086600Y14389200D02*
X41086600Y15189200D01*
X44206600Y15989200D02*
X44206600Y15189200D01*
X44206600Y14389200D02*
X44206600Y15189200D01*
X41136600Y16489200D02*
X40806600Y16249200D01*
X40806600Y16729200D01*
X41136600Y16489200D01*
G36*
X41136600Y16489200D02*
G01*
X40806600Y16249200D01*
X40806600Y16729200D01*
X41136600Y16489200D01*
G37*
D12*
%TO.C,D1*%
X42325400Y1035347D02*
X42315400Y1035347D01*
X44095400Y1035347D02*
X44085400Y1035347D01*
X44095400Y405347D02*
X42305400Y405347D01*
X44148817Y119168D02*
G75*
G02*
X42215400Y145347I-963417J256179D01*
G01*
D11*
%TO.C,R3*%
X43739800Y2820641D02*
X43739800Y2513359D01*
X44499800Y2820641D02*
X44499800Y2513359D01*
%TO.C,R20*%
X49350959Y53821600D02*
X49658241Y53821600D01*
X49350959Y53061600D02*
X49658241Y53061600D01*
%TO.C,R33*%
X13717000Y17882841D02*
X13717000Y17575559D01*
X14477000Y17882841D02*
X14477000Y17575559D01*
%TO.C,R32*%
X10694400Y17882841D02*
X10694400Y17575559D01*
X11454400Y17882841D02*
X11454400Y17575559D01*
%TO.C,IC3*%
X47643300Y57450200D02*
X48443300Y57450200D01*
X47643300Y54330200D02*
X48443300Y54330200D01*
X49243300Y57450200D02*
X48443300Y57450200D01*
X49243300Y54330200D02*
X48443300Y54330200D01*
X49743300Y57400200D02*
X49503300Y57730200D01*
X49983300Y57730200D01*
X49743300Y57400200D01*
G36*
X49743300Y57400200D02*
G01*
X49503300Y57730200D01*
X49983300Y57730200D01*
X49743300Y57400200D01*
G37*
%TO.C,C29*%
X32482200Y15706036D02*
X32482200Y15490364D01*
X33202200Y15706036D02*
X33202200Y15490364D01*
%TO.C,R25*%
X14098000Y29564359D02*
X14098000Y29871641D01*
X14858000Y29564359D02*
X14858000Y29871641D01*
%TO.C,R2*%
X42571400Y2846041D02*
X42571400Y2538759D01*
X43331400Y2846041D02*
X43331400Y2538759D01*
%TO.C,R28*%
X23267400Y29564359D02*
X23267400Y29871641D01*
X24027400Y29564359D02*
X24027400Y29871641D01*
%TO.C,C30*%
X3992200Y23139452D02*
X3992200Y21716948D01*
X5812200Y23139452D02*
X5812200Y21716948D01*
D10*
%TO.C,L1*%
X40138800Y64589400D02*
X47338800Y64589400D01*
X40138800Y63089400D02*
X40138800Y64589400D01*
X40138800Y59389400D02*
X40138800Y57889400D01*
X40138800Y57889400D02*
X47338800Y57889400D01*
X47338800Y63089400D02*
X47338800Y64589400D01*
X47338800Y59389400D02*
X47338800Y57889400D01*
D11*
%TO.C,R44*%
X34136359Y10489200D02*
X34443641Y10489200D01*
X34136359Y9729200D02*
X34443641Y9729200D01*
%TO.C,R37*%
X25959800Y17882841D02*
X25959800Y17575559D01*
X26719800Y17882841D02*
X26719800Y17575559D01*
%TO.C,C22*%
X14736400Y21717052D02*
X14736400Y20294548D01*
X16556400Y21717052D02*
X16556400Y20294548D01*
%TO.C,R11*%
X-32868841Y27373400D02*
X-32561559Y27373400D01*
X-32868841Y26613400D02*
X-32561559Y26613400D01*
%TO.C,C26*%
X25979800Y15706036D02*
X25979800Y15490364D01*
X26699800Y15706036D02*
X26699800Y15490364D01*
%TO.C,C3*%
X88039800Y33685964D02*
X88039800Y33901636D01*
X88759800Y33685964D02*
X88759800Y33901636D01*
%TO.C,R34*%
X16866600Y17882841D02*
X16866600Y17575559D01*
X17626600Y17882841D02*
X17626600Y17575559D01*
%TO.C,R16*%
X-32868841Y17423400D02*
X-32561559Y17423400D01*
X-32868841Y16663400D02*
X-32561559Y16663400D01*
%TO.C,R5*%
X46457600Y2769841D02*
X46457600Y2462559D01*
X47217600Y2769841D02*
X47217600Y2462559D01*
%TO.C,R35*%
X20295600Y17882841D02*
X20295600Y17575559D01*
X21055600Y17882841D02*
X21055600Y17575559D01*
%TO.C,R8*%
X-19221041Y19405600D02*
X-18913759Y19405600D01*
X-19221041Y18645600D02*
X-18913759Y18645600D01*
%TO.C,R9*%
X50521600Y2746441D02*
X50521600Y2439159D01*
X51281600Y2746441D02*
X51281600Y2439159D01*
%TO.C,C9*%
X-27895236Y19895600D02*
X-27679564Y19895600D01*
X-27895236Y19175600D02*
X-27679564Y19175600D01*
%TO.C,C20*%
X10739800Y15706036D02*
X10739800Y15490364D01*
X11459800Y15706036D02*
X11459800Y15490364D01*
%TO.C,R14*%
X40488600Y7390159D02*
X40488600Y7697441D01*
X41248600Y7390159D02*
X41248600Y7697441D01*
%TO.C,R24*%
X11075400Y29564359D02*
X11075400Y29871641D01*
X11835400Y29564359D02*
X11835400Y29871641D01*
D12*
%TO.C,D2*%
X46440200Y1009947D02*
X46430200Y1009947D01*
X48210200Y1009947D02*
X48200200Y1009947D01*
X48210200Y379947D02*
X46420200Y379947D01*
X48263617Y93768D02*
G75*
G02*
X46330200Y119947I-963417J256179D01*
G01*
D11*
%TO.C,C17*%
X-35713036Y21473400D02*
X-35497364Y21473400D01*
X-35713036Y20753400D02*
X-35497364Y20753400D01*
%TO.C,R1*%
X41428400Y2846041D02*
X41428400Y2538759D01*
X42188400Y2846041D02*
X42188400Y2538759D01*
%TO.C,R10*%
X51639200Y2721041D02*
X51639200Y2413759D01*
X52399200Y2721041D02*
X52399200Y2413759D01*
%TO.C,R12*%
X47397400Y7339359D02*
X47397400Y7646641D01*
X48157400Y7339359D02*
X48157400Y7646641D01*
%TO.C,R39*%
X32462200Y17882841D02*
X32462200Y17575559D01*
X33222200Y17882841D02*
X33222200Y17575559D01*
%TO.C,R40*%
X1299800Y23164852D02*
X1299800Y21742348D01*
X3119800Y23164852D02*
X3119800Y21742348D01*
%TO.C,R27*%
X20270200Y29564359D02*
X20270200Y29871641D01*
X21030200Y29564359D02*
X21030200Y29871641D01*
%TO.C,R38*%
X29541200Y17882841D02*
X29541200Y17575559D01*
X30301200Y17882841D02*
X30301200Y17575559D01*
%TO.C,U1*%
X66470942Y23918800D02*
X66965916Y24413775D01*
X66965916Y23423825D02*
X66470942Y23918800D01*
X76031025Y14358716D02*
X76526000Y13863742D01*
X76526000Y33973858D02*
X76031025Y33478884D01*
X76526000Y13863742D02*
X77020975Y14358716D01*
X77020975Y33478884D02*
X76526000Y33973858D01*
X86086084Y24413775D02*
X86581058Y23918800D01*
X86581058Y23918800D02*
X86086084Y23423825D01*
X77464684Y33922593D02*
X76891928Y34014517D01*
X77372760Y34495350D01*
X77464684Y33922593D01*
G36*
X77464684Y33922593D02*
G01*
X76891928Y34014517D01*
X77372760Y34495350D01*
X77464684Y33922593D01*
G37*
%TO.C,C4*%
X-25025236Y17925600D02*
X-24809564Y17925600D01*
X-25025236Y17205600D02*
X-24809564Y17205600D01*
%TO.C,C12*%
X35377800Y35871036D02*
X35377800Y35655364D01*
X36097800Y35871036D02*
X36097800Y35655364D01*
%TO.C,R19*%
X47166559Y53847000D02*
X47473841Y53847000D01*
X47166559Y53087000D02*
X47473841Y53087000D01*
%TO.C,C13*%
X29662800Y35706164D02*
X29662800Y35921836D01*
X30382800Y35706164D02*
X30382800Y35921836D01*
%TO.C,R36*%
X22988000Y17882841D02*
X22988000Y17575559D01*
X23748000Y17882841D02*
X23748000Y17575559D01*
%TO.C,C7*%
X-27895236Y23835600D02*
X-27679564Y23835600D01*
X-27895236Y23115600D02*
X-27679564Y23115600D01*
%TO.C,C27*%
X27207800Y21386852D02*
X27207800Y19964348D01*
X29027800Y21386852D02*
X29027800Y19964348D01*
%TO.C,C16*%
X48454364Y58627600D02*
X48670036Y58627600D01*
X48454364Y57907600D02*
X48670036Y57907600D01*
%TO.C,Q1*%
X52035200Y57683200D02*
X52035200Y58573200D01*
X52050200Y55453200D02*
X52050200Y56343200D01*
X53885200Y58573200D02*
X52035200Y58573200D01*
X53900200Y55453200D02*
X52050200Y55453200D01*
X54275200Y58583200D02*
X54035200Y58913200D01*
X54515200Y58913200D01*
X54275200Y58583200D01*
G36*
X54275200Y58583200D02*
G01*
X54035200Y58913200D01*
X54515200Y58913200D01*
X54275200Y58583200D01*
G37*
D12*
%TO.C,D3*%
X50707400Y933747D02*
X50697400Y933747D01*
X52477400Y933747D02*
X52467400Y933747D01*
X52477400Y303747D02*
X50687400Y303747D01*
X52530817Y17568D02*
G75*
G02*
X50597400Y43747I-963417J256179D01*
G01*
D11*
%TO.C,D12*%
X55471300Y58095300D02*
X55471300Y55435300D01*
X55471300Y55435300D02*
X57171300Y55435300D01*
X57171300Y58095300D02*
X57171300Y55435300D01*
%TO.C,R13*%
X50547000Y7545041D02*
X50547000Y7237759D01*
X51307000Y7545041D02*
X51307000Y7237759D01*
%TO.C,C6*%
X-25025236Y13985600D02*
X-24809564Y13985600D01*
X-25025236Y13265600D02*
X-24809564Y13265600D01*
%TO.C,R31*%
X32563800Y29564359D02*
X32563800Y29871641D01*
X33323800Y29564359D02*
X33323800Y29871641D01*
%TO.C,R21*%
X37567600Y2922241D02*
X37567600Y2614959D01*
X38327600Y2922241D02*
X38327600Y2614959D01*
%TO.C,R42*%
X18743959Y10438400D02*
X19051241Y10438400D01*
X18743959Y9678400D02*
X19051241Y9678400D01*
%TO.C,C28*%
X29510400Y15706036D02*
X29510400Y15490364D01*
X30230400Y15706036D02*
X30230400Y15490364D01*
%TO.C,C14*%
X45283800Y54756164D02*
X45283800Y54971836D01*
X46003800Y54756164D02*
X46003800Y54971836D01*
%TO.C,R41*%
X7569959Y10387600D02*
X7877241Y10387600D01*
X7569959Y9627600D02*
X7877241Y9627600D01*
%TO.C,R7*%
X49353200Y2746441D02*
X49353200Y2439159D01*
X50113200Y2746441D02*
X50113200Y2439159D01*
%TO.C,R23*%
X39853600Y2947641D02*
X39853600Y2640359D01*
X40613600Y2947641D02*
X40613600Y2640359D01*
%TO.C,C24*%
X20341000Y15706036D02*
X20341000Y15490364D01*
X21061000Y15706036D02*
X21061000Y15490364D01*
%TO.C,R4*%
X45365400Y2769841D02*
X45365400Y2462559D01*
X46125400Y2769841D02*
X46125400Y2462559D01*
%TO.C,C8*%
X-27895236Y21865600D02*
X-27679564Y21865600D01*
X-27895236Y21145600D02*
X-27679564Y21145600D01*
%TO.C,R30*%
X29439600Y29564359D02*
X29439600Y29871641D01*
X30199600Y29564359D02*
X30199600Y29871641D01*
%TO.C,R6*%
X47575200Y2744441D02*
X47575200Y2437159D01*
X48335200Y2744441D02*
X48335200Y2437159D01*
%TO.C,C10*%
X49142764Y12552000D02*
X49358436Y12552000D01*
X49142764Y11832000D02*
X49358436Y11832000D01*
%TO.C,R22*%
X38712600Y2947641D02*
X38712600Y2640359D01*
X39472600Y2947641D02*
X39472600Y2640359D01*
%TO.C,C2*%
X-25025236Y21865600D02*
X-24809564Y21865600D01*
X-25025236Y21145600D02*
X-24809564Y21145600D01*
%TO.C,R15*%
X43892200Y7748241D02*
X43892200Y7440959D01*
X44652200Y7748241D02*
X44652200Y7440959D01*
%TO.C,U2*%
X48173200Y15938400D02*
X48173200Y15138400D01*
X48173200Y14338400D02*
X48173200Y15138400D01*
X51293200Y15938400D02*
X51293200Y15138400D01*
X51293200Y14338400D02*
X51293200Y15138400D01*
X51573200Y13598400D02*
X51243200Y13838400D01*
X51573200Y14078400D01*
X51573200Y13598400D01*
G36*
X51573200Y13598400D02*
G01*
X51243200Y13838400D01*
X51573200Y14078400D01*
X51573200Y13598400D01*
G37*
%TO.C,IC1*%
X22741002Y33034504D02*
X22281383Y33494124D01*
X23200621Y33494124D02*
X22741002Y33034504D01*
X29090821Y39384323D02*
X28800907Y39094410D01*
X16221477Y39554029D02*
X16681097Y39094410D01*
X29048394Y39766161D02*
X28800907Y40013648D01*
X16681097Y40013648D02*
X16221477Y39554029D01*
X22281383Y45613934D02*
X22741002Y46073554D01*
X22741002Y46073554D02*
X23200621Y45613934D01*
X29663577Y39617669D02*
X29260527Y39554029D01*
X29324166Y39957080D01*
X29663577Y39617669D01*
G36*
X29663577Y39617669D02*
G01*
X29260527Y39554029D01*
X29324166Y39957080D01*
X29663577Y39617669D01*
G37*
%TO.C,Y1*%
X83623400Y32157400D02*
X87623400Y32157400D01*
X87623400Y32157400D02*
X87623400Y35457400D01*
%TO.C,R17*%
X-34316641Y15636600D02*
X-34009359Y15636600D01*
X-34316641Y14876600D02*
X-34009359Y14876600D01*
%TO.C,C1*%
X82505200Y33609764D02*
X82505200Y33825436D01*
X83225200Y33609764D02*
X83225200Y33825436D01*
%TO.C,R26*%
X17120600Y29564359D02*
X17120600Y29871641D01*
X17880600Y29564359D02*
X17880600Y29871641D01*
%TD*%
%LPC*%
D13*
%TO.C,RJ1*%
X6755800Y2752800D03*
X35255800Y2752800D03*
D14*
X16675800Y5292800D03*
X15655800Y7082800D03*
X14635800Y5292800D03*
X13615800Y7082800D03*
X12595800Y5292800D03*
X11575800Y7082800D03*
X10555800Y5292800D03*
X9535800Y7082800D03*
X19965800Y11892800D03*
X17675800Y11892800D03*
X8535800Y11892800D03*
X6245800Y11892800D03*
X32475800Y5292800D03*
X31455800Y7082800D03*
X30435800Y5292800D03*
X29415800Y7082800D03*
X28395800Y5292800D03*
X27375800Y7082800D03*
X26355800Y5292800D03*
X25335800Y7082800D03*
X35765800Y11892800D03*
X33475800Y11892800D03*
X24335800Y11892800D03*
X22045800Y11892800D03*
D15*
X5005800Y6322800D03*
X37005800Y6322800D03*
%TD*%
D16*
%TO.C,J4*%
X49034000Y4510800D03*
X49034000Y5410800D03*
X49034000Y6320800D03*
X49034000Y7220800D03*
X49034000Y8120800D03*
X49034000Y9470800D03*
X49034000Y10370800D03*
X49784000Y10370800D03*
X49784000Y9470800D03*
X49784000Y8570800D03*
X49784000Y7670800D03*
X49784000Y6760800D03*
X49784000Y5410800D03*
X49784000Y4510800D03*
D17*
X50834000Y9870800D03*
X50834000Y5070800D03*
X47974000Y9870800D03*
X47974000Y5070800D03*
%TD*%
D18*
%TO.C,J6*%
X59486800Y16814800D03*
X64566800Y17830800D03*
X64566800Y15798800D03*
%TD*%
D16*
%TO.C,J5*%
X42150600Y4601400D03*
X42150600Y5501400D03*
X42150600Y6411400D03*
X42150600Y7311400D03*
X42150600Y8211400D03*
X42150600Y9561400D03*
X42150600Y10461400D03*
X42900600Y10461400D03*
X42900600Y9561400D03*
X42900600Y8661400D03*
X42900600Y7761400D03*
X42900600Y6851400D03*
X42900600Y5501400D03*
X42900600Y4601400D03*
D17*
X43950600Y9961400D03*
X43950600Y5161400D03*
X41090600Y9961400D03*
X41090600Y5161400D03*
%TD*%
D19*
%TO.C,SW3*%
X96121600Y5258000D03*
X84421600Y5258000D03*
D20*
X87771600Y4008000D03*
X92771600Y4008000D03*
X90271600Y4008000D03*
X87771600Y6508000D03*
X92771600Y6508000D03*
%TD*%
D21*
%TO.C,J1*%
X59906600Y42400000D03*
X60906600Y42400000D03*
X61906600Y42400000D03*
X62906600Y42400000D03*
X63906600Y42400000D03*
X64906600Y42400000D03*
X65906600Y42400000D03*
X66906600Y42400000D03*
X67906600Y42400000D03*
X68906600Y42400000D03*
X69906600Y42400000D03*
X72906600Y42400000D03*
X73906600Y42400000D03*
X74906600Y42400000D03*
X75906600Y42400000D03*
X76906600Y42400000D03*
X77906600Y42400000D03*
X78906600Y42400000D03*
X79906600Y42400000D03*
X80906600Y42400000D03*
X81906600Y42400000D03*
X82906600Y42400000D03*
X83906600Y42400000D03*
X84906600Y42400000D03*
X85906600Y42400000D03*
X86906600Y42400000D03*
X87906600Y42400000D03*
X88906600Y42400000D03*
X89906600Y42400000D03*
X90906600Y42400000D03*
X91906600Y42400000D03*
X92906600Y42400000D03*
%TD*%
D22*
%TO.C,U4*%
X3033400Y41630600D03*
X5573400Y41630600D03*
X8113400Y41630600D03*
X10653400Y41630600D03*
X46253400Y41630600D03*
X48793400Y41630600D03*
X51333400Y41630600D03*
%TD*%
D23*
%TO.C,C5*%
X-24437400Y15595600D03*
X-25397400Y15595600D03*
%TD*%
D24*
%TO.C,C23*%
X17221200Y15118200D03*
X17221200Y16078200D03*
%TD*%
D25*
%TO.C,R29*%
X26771600Y30228000D03*
X26771600Y29208000D03*
%TD*%
D24*
%TO.C,C21*%
X14122400Y15118200D03*
X14122400Y16078200D03*
%TD*%
%TO.C,C25*%
X23317200Y15118200D03*
X23317200Y16078200D03*
%TD*%
D26*
%TO.C,R43*%
X23674800Y10312400D03*
X22654800Y10312400D03*
%TD*%
D23*
%TO.C,C11*%
X40914200Y12141200D03*
X39954200Y12141200D03*
%TD*%
D27*
%TO.C,R18*%
X-11150600Y25908000D03*
X-11150600Y26928000D03*
%TD*%
D28*
%TO.C,D13*%
X40414400Y629947D03*
X37614400Y629947D03*
D29*
X38614400Y1029947D03*
X39414400Y1029947D03*
%TD*%
D30*
%TO.C,Y2*%
X33985200Y35128200D03*
X31785200Y35128200D03*
X31785200Y36828200D03*
X33985200Y36828200D03*
%TD*%
D31*
%TO.C,U3*%
X41696600Y16326700D03*
X42646600Y16326700D03*
X43596600Y16326700D03*
X43596600Y14051700D03*
X42646600Y14051700D03*
X41696600Y14051700D03*
%TD*%
D28*
%TO.C,D1*%
X44605400Y655347D03*
X41805400Y655347D03*
D29*
X42805400Y1055347D03*
X43605400Y1055347D03*
%TD*%
D27*
%TO.C,R3*%
X44119800Y2157000D03*
X44119800Y3177000D03*
%TD*%
D26*
%TO.C,R20*%
X50014600Y53441600D03*
X48994600Y53441600D03*
%TD*%
D27*
%TO.C,R33*%
X14097000Y17219200D03*
X14097000Y18239200D03*
%TD*%
%TO.C,R32*%
X11074400Y17219200D03*
X11074400Y18239200D03*
%TD*%
D32*
%TO.C,IC3*%
X49580800Y56840200D03*
X49580800Y55890200D03*
X49580800Y54940200D03*
X47305800Y54940200D03*
X47305800Y55890200D03*
X47305800Y56840200D03*
%TD*%
D24*
%TO.C,C29*%
X32842200Y15118200D03*
X32842200Y16078200D03*
%TD*%
D25*
%TO.C,R25*%
X14478000Y30228000D03*
X14478000Y29208000D03*
%TD*%
D27*
%TO.C,R2*%
X42951400Y2182400D03*
X42951400Y3202400D03*
%TD*%
D25*
%TO.C,R28*%
X23647400Y30228000D03*
X23647400Y29208000D03*
%TD*%
D33*
%TO.C,C30*%
X4902200Y20953200D03*
X4902200Y23903200D03*
%TD*%
D34*
%TO.C,L1*%
X46763800Y61239400D03*
X40713800Y61239400D03*
%TD*%
D26*
%TO.C,R44*%
X34800000Y10109200D03*
X33780000Y10109200D03*
%TD*%
D27*
%TO.C,R37*%
X26339800Y17219200D03*
X26339800Y18239200D03*
%TD*%
D33*
%TO.C,C22*%
X15646400Y19530800D03*
X15646400Y22480800D03*
%TD*%
D26*
%TO.C,R11*%
X-32205200Y26993400D03*
X-33225200Y26993400D03*
%TD*%
D24*
%TO.C,C26*%
X26339800Y15118200D03*
X26339800Y16078200D03*
%TD*%
D35*
%TO.C,C3*%
X88399800Y34273800D03*
X88399800Y33313800D03*
%TD*%
D27*
%TO.C,R34*%
X17246600Y17219200D03*
X17246600Y18239200D03*
%TD*%
D26*
%TO.C,R16*%
X-32205200Y17043400D03*
X-33225200Y17043400D03*
%TD*%
D27*
%TO.C,R5*%
X46837600Y2106200D03*
X46837600Y3126200D03*
%TD*%
%TO.C,R35*%
X20675600Y17219200D03*
X20675600Y18239200D03*
%TD*%
D26*
%TO.C,R8*%
X-18557400Y19025600D03*
X-19577400Y19025600D03*
%TD*%
D27*
%TO.C,R9*%
X50901600Y2082800D03*
X50901600Y3102800D03*
%TD*%
D23*
%TO.C,C9*%
X-27307400Y19535600D03*
X-28267400Y19535600D03*
%TD*%
D24*
%TO.C,C20*%
X11099800Y15118200D03*
X11099800Y16078200D03*
%TD*%
D25*
%TO.C,R14*%
X40868600Y8053800D03*
X40868600Y7033800D03*
%TD*%
%TO.C,R24*%
X11455400Y30228000D03*
X11455400Y29208000D03*
%TD*%
D28*
%TO.C,D2*%
X48720200Y629947D03*
X45920200Y629947D03*
D29*
X46920200Y1029947D03*
X47720200Y1029947D03*
%TD*%
D23*
%TO.C,C17*%
X-35125200Y21113400D03*
X-36085200Y21113400D03*
%TD*%
D27*
%TO.C,R1*%
X41808400Y2182400D03*
X41808400Y3202400D03*
%TD*%
%TO.C,R10*%
X52019200Y2057400D03*
X52019200Y3077400D03*
%TD*%
D25*
%TO.C,R12*%
X47777400Y8003000D03*
X47777400Y6983000D03*
%TD*%
D27*
%TO.C,R39*%
X32842200Y17219200D03*
X32842200Y18239200D03*
%TD*%
D33*
%TO.C,R40*%
X2209800Y20978600D03*
X2209800Y23928600D03*
%TD*%
D25*
%TO.C,R27*%
X20650200Y30228000D03*
X20650200Y29208000D03*
%TD*%
D27*
%TO.C,R38*%
X29921200Y17219200D03*
X29921200Y18239200D03*
%TD*%
D36*
%TO.C,U1*%
X77710404Y33588485D03*
X78063957Y33234932D03*
X78417511Y32881378D03*
X78771064Y32527825D03*
X79124617Y32174272D03*
X79478171Y31820718D03*
X79831724Y31467165D03*
X80185278Y31113611D03*
X80538831Y30760058D03*
X80892384Y30406505D03*
X81245938Y30052951D03*
X81599491Y29699398D03*
X81953045Y29345845D03*
X82306598Y28992291D03*
X82660151Y28638738D03*
X83013705Y28285184D03*
X83367258Y27931631D03*
X83720811Y27578078D03*
X84074365Y27224524D03*
X84427918Y26870971D03*
X84781472Y26517417D03*
X85135025Y26163864D03*
X85488578Y25810311D03*
X85842132Y25456757D03*
X86195685Y25103204D03*
D37*
X86195685Y22734396D03*
X85842132Y22380843D03*
X85488578Y22027289D03*
X85135025Y21673736D03*
X84781472Y21320183D03*
X84427918Y20966629D03*
X84074365Y20613076D03*
X83720811Y20259522D03*
X83367258Y19905969D03*
X83013705Y19552416D03*
X82660151Y19198862D03*
X82306598Y18845309D03*
X81953045Y18491755D03*
X81599491Y18138202D03*
X81245938Y17784649D03*
X80892384Y17431095D03*
X80538831Y17077542D03*
X80185278Y16723989D03*
X79831724Y16370435D03*
X79478171Y16016882D03*
X79124617Y15663328D03*
X78771064Y15309775D03*
X78417511Y14956222D03*
X78063957Y14602668D03*
X77710404Y14249115D03*
D36*
X75341596Y14249115D03*
X74988043Y14602668D03*
X74634489Y14956222D03*
X74280936Y15309775D03*
X73927383Y15663328D03*
X73573829Y16016882D03*
X73220276Y16370435D03*
X72866722Y16723989D03*
X72513169Y17077542D03*
X72159616Y17431095D03*
X71806062Y17784649D03*
X71452509Y18138202D03*
X71098955Y18491755D03*
X70745402Y18845309D03*
X70391849Y19198862D03*
X70038295Y19552416D03*
X69684742Y19905969D03*
X69331189Y20259522D03*
X68977635Y20613076D03*
X68624082Y20966629D03*
X68270528Y21320183D03*
X67916975Y21673736D03*
X67563422Y22027289D03*
X67209868Y22380843D03*
X66856315Y22734396D03*
D37*
X66856315Y25103204D03*
X67209868Y25456757D03*
X67563422Y25810311D03*
X67916975Y26163864D03*
X68270528Y26517417D03*
X68624082Y26870971D03*
X68977635Y27224524D03*
X69331189Y27578078D03*
X69684742Y27931631D03*
X70038295Y28285184D03*
X70391849Y28638738D03*
X70745402Y28992291D03*
X71098955Y29345845D03*
X71452509Y29699398D03*
X71806062Y30052951D03*
X72159616Y30406505D03*
X72513169Y30760058D03*
X72866722Y31113611D03*
X73220276Y31467165D03*
X73573829Y31820718D03*
X73927383Y32174272D03*
X74280936Y32527825D03*
X74634489Y32881378D03*
X74988043Y33234932D03*
X75341596Y33588485D03*
%TD*%
D23*
%TO.C,C4*%
X-24437400Y17565600D03*
X-25397400Y17565600D03*
%TD*%
D24*
%TO.C,C12*%
X35737800Y35283200D03*
X35737800Y36243200D03*
%TD*%
D26*
%TO.C,R19*%
X47830200Y53467000D03*
X46810200Y53467000D03*
%TD*%
D35*
%TO.C,C13*%
X30022800Y36294000D03*
X30022800Y35334000D03*
%TD*%
D27*
%TO.C,R36*%
X23368000Y17219200D03*
X23368000Y18239200D03*
%TD*%
D23*
%TO.C,C7*%
X-27307400Y23475600D03*
X-28267400Y23475600D03*
%TD*%
D33*
%TO.C,C27*%
X28117800Y19200600D03*
X28117800Y22150600D03*
%TD*%
D23*
%TO.C,C16*%
X49042200Y58267600D03*
X48082200Y58267600D03*
%TD*%
D38*
%TO.C,Q1*%
X54305200Y57983200D03*
X54305200Y56083200D03*
X51685200Y57033200D03*
%TD*%
D28*
%TO.C,D3*%
X52987400Y553747D03*
X50187400Y553747D03*
D29*
X51187400Y953747D03*
X51987400Y953747D03*
%TD*%
D39*
%TO.C,D12*%
X56321300Y55995300D03*
X56321300Y58095300D03*
%TD*%
D27*
%TO.C,R13*%
X50927000Y6881400D03*
X50927000Y7901400D03*
%TD*%
D23*
%TO.C,C6*%
X-24437400Y13625600D03*
X-25397400Y13625600D03*
%TD*%
D25*
%TO.C,R31*%
X32943800Y30228000D03*
X32943800Y29208000D03*
%TD*%
D27*
%TO.C,R21*%
X37947600Y2258600D03*
X37947600Y3278600D03*
%TD*%
D26*
%TO.C,R42*%
X19407600Y10058400D03*
X18387600Y10058400D03*
%TD*%
D24*
%TO.C,C28*%
X29870400Y15118200D03*
X29870400Y16078200D03*
%TD*%
D35*
%TO.C,C14*%
X45643800Y55344000D03*
X45643800Y54384000D03*
%TD*%
D26*
%TO.C,R41*%
X8233600Y10007600D03*
X7213600Y10007600D03*
%TD*%
D27*
%TO.C,R7*%
X49733200Y2082800D03*
X49733200Y3102800D03*
%TD*%
%TO.C,R23*%
X40233600Y2284000D03*
X40233600Y3304000D03*
%TD*%
D24*
%TO.C,C24*%
X20701000Y15118200D03*
X20701000Y16078200D03*
%TD*%
D27*
%TO.C,R4*%
X45745400Y2106200D03*
X45745400Y3126200D03*
%TD*%
D23*
%TO.C,C8*%
X-27307400Y21505600D03*
X-28267400Y21505600D03*
%TD*%
D25*
%TO.C,R30*%
X29819600Y30228000D03*
X29819600Y29208000D03*
%TD*%
D27*
%TO.C,R6*%
X47955200Y2080800D03*
X47955200Y3100800D03*
%TD*%
D23*
%TO.C,C10*%
X49730600Y12192000D03*
X48770600Y12192000D03*
%TD*%
D27*
%TO.C,R22*%
X39092600Y2284000D03*
X39092600Y3304000D03*
%TD*%
D23*
%TO.C,C2*%
X-24437400Y21505600D03*
X-25397400Y21505600D03*
%TD*%
D27*
%TO.C,R15*%
X44272200Y7084600D03*
X44272200Y8104600D03*
%TD*%
D40*
%TO.C,U2*%
X50683200Y14000900D03*
X49733200Y14000900D03*
X48783200Y14000900D03*
X48783200Y16275900D03*
X49733200Y16275900D03*
X50683200Y16275900D03*
%TD*%
D41*
%TO.C,IC1*%
X28424373Y38961827D03*
X28141530Y38678984D03*
X27858687Y38396142D03*
X27575845Y38113299D03*
X27293002Y37830456D03*
X27010159Y37547614D03*
X26727316Y37264771D03*
X26444474Y36981928D03*
X26161631Y36699085D03*
X25878788Y36416243D03*
X25595946Y36133400D03*
X25313103Y35850557D03*
X25030260Y35567715D03*
X24747417Y35284872D03*
X24464575Y35002029D03*
X24181732Y34719186D03*
X23898889Y34436344D03*
X23616047Y34153501D03*
X23333204Y33870658D03*
D42*
X22148800Y33870658D03*
X21865957Y34153501D03*
X21583115Y34436344D03*
X21300272Y34719186D03*
X21017429Y35002029D03*
X20734587Y35284872D03*
X20451744Y35567715D03*
X20168901Y35850557D03*
X19886058Y36133400D03*
X19603216Y36416243D03*
X19320373Y36699085D03*
X19037530Y36981928D03*
X18754688Y37264771D03*
X18471845Y37547614D03*
X18189002Y37830456D03*
X17906159Y38113299D03*
X17623317Y38396142D03*
X17340474Y38678984D03*
X17057631Y38961827D03*
D41*
X17057631Y40146231D03*
X17340474Y40429074D03*
X17623317Y40711916D03*
X17906159Y40994759D03*
X18189002Y41277602D03*
X18471845Y41560444D03*
X18754688Y41843287D03*
X19037530Y42126130D03*
X19320373Y42408973D03*
X19603216Y42691815D03*
X19886058Y42974658D03*
X20168901Y43257501D03*
X20451744Y43540343D03*
X20734587Y43823186D03*
X21017429Y44106029D03*
X21300272Y44388872D03*
X21583115Y44671714D03*
X21865957Y44954557D03*
X22148800Y45237400D03*
D42*
X23333204Y45237400D03*
X23616047Y44954557D03*
X23898889Y44671714D03*
X24181732Y44388872D03*
X24464575Y44106029D03*
X24747417Y43823186D03*
X25030260Y43540343D03*
X25313103Y43257501D03*
X25595946Y42974658D03*
X25878788Y42691815D03*
X26161631Y42408973D03*
X26444474Y42126130D03*
X26727316Y41843287D03*
X27010159Y41560444D03*
X27293002Y41277602D03*
X27575845Y40994759D03*
X27858687Y40711916D03*
X28141530Y40429074D03*
X28424373Y40146231D03*
D43*
X22741002Y39554029D03*
%TD*%
D30*
%TO.C,Y1*%
X86723400Y32957400D03*
X84523400Y32957400D03*
X84523400Y34657400D03*
X86723400Y34657400D03*
%TD*%
D26*
%TO.C,R17*%
X-33653000Y15256600D03*
X-34673000Y15256600D03*
%TD*%
D35*
%TO.C,C1*%
X82865200Y34197600D03*
X82865200Y33237600D03*
%TD*%
D25*
%TO.C,R26*%
X17500600Y30228000D03*
X17500600Y29208000D03*
%TD*%
%LPD*%
M02*
