%TF.GenerationSoftware,KiCad,Pcbnew,8.0.1*%
%TF.CreationDate,2024-05-07T15:17:13+02:00*%
%TF.ProjectId,WCH-Eth-Base,5743482d-4574-4682-9d42-6173652e6b69,rev?*%
%TF.SameCoordinates,Original*%
%TF.FileFunction,Soldermask,Bot*%
%TF.FilePolarity,Negative*%
%FSLAX46Y46*%
G04 Gerber Fmt 4.6, Leading zero omitted, Abs format (unit mm)*
G04 Created by KiCad (PCBNEW 8.0.1) date 2024-05-07 15:17:13*
%MOMM*%
%LPD*%
G01*
G04 APERTURE LIST*
G04 Aperture macros list*
%AMRoundRect*
0 Rectangle with rounded corners*
0 $1 Rounding radius*
0 $2 $3 $4 $5 $6 $7 $8 $9 X,Y pos of 4 corners*
0 Add a 4 corners polygon primitive as box body*
4,1,4,$2,$3,$4,$5,$6,$7,$8,$9,$2,$3,0*
0 Add four circle primitives for the rounded corners*
1,1,$1+$1,$2,$3*
1,1,$1+$1,$4,$5*
1,1,$1+$1,$6,$7*
1,1,$1+$1,$8,$9*
0 Add four rect primitives between the rounded corners*
20,1,$1+$1,$2,$3,$4,$5,0*
20,1,$1+$1,$4,$5,$6,$7,0*
20,1,$1+$1,$6,$7,$8,$9,0*
20,1,$1+$1,$8,$9,$2,$3,0*%
%AMRotRect*
0 Rectangle, with rotation*
0 The origin of the aperture is its center*
0 $1 length*
0 $2 width*
0 $3 Rotation angle, in degrees counterclockwise*
0 Add horizontal line*
21,1,$1,$2,0,0,$3*%
G04 Aperture macros list end*
%ADD10C,3.300000*%
%ADD11C,1.520000*%
%ADD12C,2.500000*%
%ADD13O,0.550000X0.700000*%
%ADD14O,0.900000X1.900000*%
%ADD15C,0.990600*%
%ADD16O,2.600000X3.000000*%
%ADD17C,1.800000*%
%ADD18R,0.700000X3.000000*%
%ADD19C,1.524000*%
%ADD20RoundRect,0.140000X0.140000X0.170000X-0.140000X0.170000X-0.140000X-0.170000X0.140000X-0.170000X0*%
%ADD21RoundRect,0.140000X0.170000X-0.140000X0.170000X0.140000X-0.170000X0.140000X-0.170000X-0.140000X0*%
%ADD22RoundRect,0.135000X-0.185000X0.135000X-0.185000X-0.135000X0.185000X-0.135000X0.185000X0.135000X0*%
%ADD23RoundRect,0.135000X0.135000X0.185000X-0.135000X0.185000X-0.135000X-0.185000X0.135000X-0.185000X0*%
%ADD24RoundRect,0.135000X0.185000X-0.135000X0.185000X0.135000X-0.185000X0.135000X-0.185000X-0.135000X0*%
%ADD25R,0.550000X0.800000*%
%ADD26R,0.500000X0.500000*%
%ADD27R,1.400000X1.200000*%
%ADD28RoundRect,0.150000X-0.150000X0.512500X-0.150000X-0.512500X0.150000X-0.512500X0.150000X0.512500X0*%
%ADD29RoundRect,0.150000X0.512500X0.150000X-0.512500X0.150000X-0.512500X-0.150000X0.512500X-0.150000X0*%
%ADD30RoundRect,0.250000X0.650000X-0.325000X0.650000X0.325000X-0.650000X0.325000X-0.650000X-0.325000X0*%
%ADD31R,2.350000X3.500000*%
%ADD32RoundRect,0.140000X-0.170000X0.140000X-0.170000X-0.140000X0.170000X-0.140000X0.170000X0.140000X0*%
%ADD33RoundRect,0.075000X0.459619X0.565685X-0.565685X-0.459619X-0.459619X-0.565685X0.565685X0.459619X0*%
%ADD34RoundRect,0.075000X-0.459619X0.565685X-0.565685X0.459619X0.459619X-0.565685X0.565685X-0.459619X0*%
%ADD35RoundRect,0.162500X0.447500X0.162500X-0.447500X0.162500X-0.447500X-0.162500X0.447500X-0.162500X0*%
%ADD36RoundRect,0.112500X0.112500X-0.187500X0.112500X0.187500X-0.112500X0.187500X-0.112500X-0.187500X0*%
%ADD37RoundRect,0.150000X0.150000X-0.512500X0.150000X0.512500X-0.150000X0.512500X-0.150000X-0.512500X0*%
%ADD38RoundRect,0.050000X0.309359X-0.238649X-0.238649X0.309359X-0.309359X0.238649X0.238649X-0.309359X0*%
%ADD39RoundRect,0.050000X0.309359X0.238649X0.238649X0.309359X-0.309359X-0.238649X-0.238649X-0.309359X0*%
%ADD40RotRect,5.810000X6.310000X135.000000*%
G04 APERTURE END LIST*
D10*
%TO.C,RJ1*%
X6755800Y2752800D03*
X35255800Y2752800D03*
D11*
X16675800Y5292800D03*
X15655800Y7082800D03*
X14635800Y5292800D03*
X13615800Y7082800D03*
X12595800Y5292800D03*
X11575800Y7082800D03*
X10555800Y5292800D03*
X9535800Y7082800D03*
X19965800Y11892800D03*
X17675800Y11892800D03*
X8535800Y11892800D03*
X6245800Y11892800D03*
X32475800Y5292800D03*
X31455800Y7082800D03*
X30435800Y5292800D03*
X29415800Y7082800D03*
X28395800Y5292800D03*
X27375800Y7082800D03*
X26355800Y5292800D03*
X25335800Y7082800D03*
X35765800Y11892800D03*
X33475800Y11892800D03*
X24335800Y11892800D03*
X22045800Y11892800D03*
D12*
X5005800Y6322800D03*
X37005800Y6322800D03*
%TD*%
D13*
%TO.C,J4*%
X49034000Y4510800D03*
X49034000Y5410800D03*
X49034000Y6320800D03*
X49034000Y7220800D03*
X49034000Y8120800D03*
X49034000Y9470800D03*
X49034000Y10370800D03*
X49784000Y10370800D03*
X49784000Y9470800D03*
X49784000Y8570800D03*
X49784000Y7670800D03*
X49784000Y6760800D03*
X49784000Y5410800D03*
X49784000Y4510800D03*
D14*
X50834000Y9870800D03*
X50834000Y5070800D03*
X47974000Y9870800D03*
X47974000Y5070800D03*
%TD*%
D15*
%TO.C,J6*%
X59486800Y16814800D03*
X64566800Y17830800D03*
X64566800Y15798800D03*
%TD*%
D13*
%TO.C,J5*%
X42150600Y4601400D03*
X42150600Y5501400D03*
X42150600Y6411400D03*
X42150600Y7311400D03*
X42150600Y8211400D03*
X42150600Y9561400D03*
X42150600Y10461400D03*
X42900600Y10461400D03*
X42900600Y9561400D03*
X42900600Y8661400D03*
X42900600Y7761400D03*
X42900600Y6851400D03*
X42900600Y5501400D03*
X42900600Y4601400D03*
D14*
X43950600Y9961400D03*
X43950600Y5161400D03*
X41090600Y9961400D03*
X41090600Y5161400D03*
%TD*%
D16*
%TO.C,SW3*%
X96121600Y5258000D03*
X84421600Y5258000D03*
D17*
X87771600Y4008000D03*
X92771600Y4008000D03*
X90271600Y4008000D03*
X87771600Y6508000D03*
X92771600Y6508000D03*
%TD*%
D18*
%TO.C,J1*%
X59906600Y42400000D03*
X60906600Y42400000D03*
X61906600Y42400000D03*
X62906600Y42400000D03*
X63906600Y42400000D03*
X64906600Y42400000D03*
X65906600Y42400000D03*
X66906600Y42400000D03*
X67906600Y42400000D03*
X68906600Y42400000D03*
X69906600Y42400000D03*
X72906600Y42400000D03*
X73906600Y42400000D03*
X74906600Y42400000D03*
X75906600Y42400000D03*
X76906600Y42400000D03*
X77906600Y42400000D03*
X78906600Y42400000D03*
X79906600Y42400000D03*
X80906600Y42400000D03*
X81906600Y42400000D03*
X82906600Y42400000D03*
X83906600Y42400000D03*
X84906600Y42400000D03*
X85906600Y42400000D03*
X86906600Y42400000D03*
X87906600Y42400000D03*
X88906600Y42400000D03*
X89906600Y42400000D03*
X90906600Y42400000D03*
X91906600Y42400000D03*
X92906600Y42400000D03*
%TD*%
D19*
%TO.C,U4*%
X3033400Y41630600D03*
X5573400Y41630600D03*
X8113400Y41630600D03*
X10653400Y41630600D03*
X46253400Y41630600D03*
X48793400Y41630600D03*
X51333400Y41630600D03*
%TD*%
D20*
%TO.C,C5*%
X-24437400Y15595600D03*
X-25397400Y15595600D03*
%TD*%
D21*
%TO.C,C23*%
X17221200Y15118200D03*
X17221200Y16078200D03*
%TD*%
D22*
%TO.C,R29*%
X26771600Y30228000D03*
X26771600Y29208000D03*
%TD*%
D21*
%TO.C,C21*%
X14122400Y15118200D03*
X14122400Y16078200D03*
%TD*%
%TO.C,C25*%
X23317200Y15118200D03*
X23317200Y16078200D03*
%TD*%
D23*
%TO.C,R43*%
X23674800Y10312400D03*
X22654800Y10312400D03*
%TD*%
D20*
%TO.C,C11*%
X40914200Y12141200D03*
X39954200Y12141200D03*
%TD*%
D24*
%TO.C,R18*%
X-11150600Y25908000D03*
X-11150600Y26928000D03*
%TD*%
D25*
%TO.C,D13*%
X40414400Y629947D03*
X37614400Y629947D03*
D26*
X38614400Y1029947D03*
X39414400Y1029947D03*
%TD*%
D27*
%TO.C,Y2*%
X33985200Y35128200D03*
X31785200Y35128200D03*
X31785200Y36828200D03*
X33985200Y36828200D03*
%TD*%
D28*
%TO.C,U3*%
X41696600Y16326700D03*
X42646600Y16326700D03*
X43596600Y16326700D03*
X43596600Y14051700D03*
X42646600Y14051700D03*
X41696600Y14051700D03*
%TD*%
D25*
%TO.C,D1*%
X44605400Y655347D03*
X41805400Y655347D03*
D26*
X42805400Y1055347D03*
X43605400Y1055347D03*
%TD*%
D24*
%TO.C,R3*%
X44119800Y2157000D03*
X44119800Y3177000D03*
%TD*%
D23*
%TO.C,R20*%
X50014600Y53441600D03*
X48994600Y53441600D03*
%TD*%
D24*
%TO.C,R33*%
X14097000Y17219200D03*
X14097000Y18239200D03*
%TD*%
%TO.C,R32*%
X11074400Y17219200D03*
X11074400Y18239200D03*
%TD*%
D29*
%TO.C,IC3*%
X49580800Y56840200D03*
X49580800Y55890200D03*
X49580800Y54940200D03*
X47305800Y54940200D03*
X47305800Y55890200D03*
X47305800Y56840200D03*
%TD*%
D21*
%TO.C,C29*%
X32842200Y15118200D03*
X32842200Y16078200D03*
%TD*%
D22*
%TO.C,R25*%
X14478000Y30228000D03*
X14478000Y29208000D03*
%TD*%
D24*
%TO.C,R2*%
X42951400Y2182400D03*
X42951400Y3202400D03*
%TD*%
D22*
%TO.C,R28*%
X23647400Y30228000D03*
X23647400Y29208000D03*
%TD*%
D30*
%TO.C,C30*%
X4902200Y20953200D03*
X4902200Y23903200D03*
%TD*%
D31*
%TO.C,L1*%
X46763800Y61239400D03*
X40713800Y61239400D03*
%TD*%
D23*
%TO.C,R44*%
X34800000Y10109200D03*
X33780000Y10109200D03*
%TD*%
D24*
%TO.C,R37*%
X26339800Y17219200D03*
X26339800Y18239200D03*
%TD*%
D30*
%TO.C,C22*%
X15646400Y19530800D03*
X15646400Y22480800D03*
%TD*%
D23*
%TO.C,R11*%
X-32205200Y26993400D03*
X-33225200Y26993400D03*
%TD*%
D21*
%TO.C,C26*%
X26339800Y15118200D03*
X26339800Y16078200D03*
%TD*%
D32*
%TO.C,C3*%
X88399800Y34273800D03*
X88399800Y33313800D03*
%TD*%
D24*
%TO.C,R34*%
X17246600Y17219200D03*
X17246600Y18239200D03*
%TD*%
D23*
%TO.C,R16*%
X-32205200Y17043400D03*
X-33225200Y17043400D03*
%TD*%
D24*
%TO.C,R5*%
X46837600Y2106200D03*
X46837600Y3126200D03*
%TD*%
%TO.C,R35*%
X20675600Y17219200D03*
X20675600Y18239200D03*
%TD*%
D23*
%TO.C,R8*%
X-18557400Y19025600D03*
X-19577400Y19025600D03*
%TD*%
D24*
%TO.C,R9*%
X50901600Y2082800D03*
X50901600Y3102800D03*
%TD*%
D20*
%TO.C,C9*%
X-27307400Y19535600D03*
X-28267400Y19535600D03*
%TD*%
D21*
%TO.C,C20*%
X11099800Y15118200D03*
X11099800Y16078200D03*
%TD*%
D22*
%TO.C,R14*%
X40868600Y8053800D03*
X40868600Y7033800D03*
%TD*%
%TO.C,R24*%
X11455400Y30228000D03*
X11455400Y29208000D03*
%TD*%
D25*
%TO.C,D2*%
X48720200Y629947D03*
X45920200Y629947D03*
D26*
X46920200Y1029947D03*
X47720200Y1029947D03*
%TD*%
D20*
%TO.C,C17*%
X-35125200Y21113400D03*
X-36085200Y21113400D03*
%TD*%
D24*
%TO.C,R1*%
X41808400Y2182400D03*
X41808400Y3202400D03*
%TD*%
%TO.C,R10*%
X52019200Y2057400D03*
X52019200Y3077400D03*
%TD*%
D22*
%TO.C,R12*%
X47777400Y8003000D03*
X47777400Y6983000D03*
%TD*%
D24*
%TO.C,R39*%
X32842200Y17219200D03*
X32842200Y18239200D03*
%TD*%
D30*
%TO.C,R40*%
X2209800Y20978600D03*
X2209800Y23928600D03*
%TD*%
D22*
%TO.C,R27*%
X20650200Y30228000D03*
X20650200Y29208000D03*
%TD*%
D24*
%TO.C,R38*%
X29921200Y17219200D03*
X29921200Y18239200D03*
%TD*%
D33*
%TO.C,U1*%
X77710404Y33588485D03*
X78063957Y33234932D03*
X78417511Y32881378D03*
X78771064Y32527825D03*
X79124617Y32174272D03*
X79478171Y31820718D03*
X79831724Y31467165D03*
X80185278Y31113611D03*
X80538831Y30760058D03*
X80892384Y30406505D03*
X81245938Y30052951D03*
X81599491Y29699398D03*
X81953045Y29345845D03*
X82306598Y28992291D03*
X82660151Y28638738D03*
X83013705Y28285184D03*
X83367258Y27931631D03*
X83720811Y27578078D03*
X84074365Y27224524D03*
X84427918Y26870971D03*
X84781472Y26517417D03*
X85135025Y26163864D03*
X85488578Y25810311D03*
X85842132Y25456757D03*
X86195685Y25103204D03*
D34*
X86195685Y22734396D03*
X85842132Y22380843D03*
X85488578Y22027289D03*
X85135025Y21673736D03*
X84781472Y21320183D03*
X84427918Y20966629D03*
X84074365Y20613076D03*
X83720811Y20259522D03*
X83367258Y19905969D03*
X83013705Y19552416D03*
X82660151Y19198862D03*
X82306598Y18845309D03*
X81953045Y18491755D03*
X81599491Y18138202D03*
X81245938Y17784649D03*
X80892384Y17431095D03*
X80538831Y17077542D03*
X80185278Y16723989D03*
X79831724Y16370435D03*
X79478171Y16016882D03*
X79124617Y15663328D03*
X78771064Y15309775D03*
X78417511Y14956222D03*
X78063957Y14602668D03*
X77710404Y14249115D03*
D33*
X75341596Y14249115D03*
X74988043Y14602668D03*
X74634489Y14956222D03*
X74280936Y15309775D03*
X73927383Y15663328D03*
X73573829Y16016882D03*
X73220276Y16370435D03*
X72866722Y16723989D03*
X72513169Y17077542D03*
X72159616Y17431095D03*
X71806062Y17784649D03*
X71452509Y18138202D03*
X71098955Y18491755D03*
X70745402Y18845309D03*
X70391849Y19198862D03*
X70038295Y19552416D03*
X69684742Y19905969D03*
X69331189Y20259522D03*
X68977635Y20613076D03*
X68624082Y20966629D03*
X68270528Y21320183D03*
X67916975Y21673736D03*
X67563422Y22027289D03*
X67209868Y22380843D03*
X66856315Y22734396D03*
D34*
X66856315Y25103204D03*
X67209868Y25456757D03*
X67563422Y25810311D03*
X67916975Y26163864D03*
X68270528Y26517417D03*
X68624082Y26870971D03*
X68977635Y27224524D03*
X69331189Y27578078D03*
X69684742Y27931631D03*
X70038295Y28285184D03*
X70391849Y28638738D03*
X70745402Y28992291D03*
X71098955Y29345845D03*
X71452509Y29699398D03*
X71806062Y30052951D03*
X72159616Y30406505D03*
X72513169Y30760058D03*
X72866722Y31113611D03*
X73220276Y31467165D03*
X73573829Y31820718D03*
X73927383Y32174272D03*
X74280936Y32527825D03*
X74634489Y32881378D03*
X74988043Y33234932D03*
X75341596Y33588485D03*
%TD*%
D20*
%TO.C,C4*%
X-24437400Y17565600D03*
X-25397400Y17565600D03*
%TD*%
D21*
%TO.C,C12*%
X35737800Y35283200D03*
X35737800Y36243200D03*
%TD*%
D23*
%TO.C,R19*%
X47830200Y53467000D03*
X46810200Y53467000D03*
%TD*%
D32*
%TO.C,C13*%
X30022800Y36294000D03*
X30022800Y35334000D03*
%TD*%
D24*
%TO.C,R36*%
X23368000Y17219200D03*
X23368000Y18239200D03*
%TD*%
D20*
%TO.C,C7*%
X-27307400Y23475600D03*
X-28267400Y23475600D03*
%TD*%
D30*
%TO.C,C27*%
X28117800Y19200600D03*
X28117800Y22150600D03*
%TD*%
D20*
%TO.C,C16*%
X49042200Y58267600D03*
X48082200Y58267600D03*
%TD*%
D35*
%TO.C,Q1*%
X54305200Y57983200D03*
X54305200Y56083200D03*
X51685200Y57033200D03*
%TD*%
D25*
%TO.C,D3*%
X52987400Y553747D03*
X50187400Y553747D03*
D26*
X51187400Y953747D03*
X51987400Y953747D03*
%TD*%
D36*
%TO.C,D12*%
X56321300Y55995300D03*
X56321300Y58095300D03*
%TD*%
D24*
%TO.C,R13*%
X50927000Y6881400D03*
X50927000Y7901400D03*
%TD*%
D20*
%TO.C,C6*%
X-24437400Y13625600D03*
X-25397400Y13625600D03*
%TD*%
D22*
%TO.C,R31*%
X32943800Y30228000D03*
X32943800Y29208000D03*
%TD*%
D24*
%TO.C,R21*%
X37947600Y2258600D03*
X37947600Y3278600D03*
%TD*%
D23*
%TO.C,R42*%
X19407600Y10058400D03*
X18387600Y10058400D03*
%TD*%
D21*
%TO.C,C28*%
X29870400Y15118200D03*
X29870400Y16078200D03*
%TD*%
D32*
%TO.C,C14*%
X45643800Y55344000D03*
X45643800Y54384000D03*
%TD*%
D23*
%TO.C,R41*%
X8233600Y10007600D03*
X7213600Y10007600D03*
%TD*%
D24*
%TO.C,R7*%
X49733200Y2082800D03*
X49733200Y3102800D03*
%TD*%
%TO.C,R23*%
X40233600Y2284000D03*
X40233600Y3304000D03*
%TD*%
D21*
%TO.C,C24*%
X20701000Y15118200D03*
X20701000Y16078200D03*
%TD*%
D24*
%TO.C,R4*%
X45745400Y2106200D03*
X45745400Y3126200D03*
%TD*%
D20*
%TO.C,C8*%
X-27307400Y21505600D03*
X-28267400Y21505600D03*
%TD*%
D22*
%TO.C,R30*%
X29819600Y30228000D03*
X29819600Y29208000D03*
%TD*%
D24*
%TO.C,R6*%
X47955200Y2080800D03*
X47955200Y3100800D03*
%TD*%
D20*
%TO.C,C10*%
X49730600Y12192000D03*
X48770600Y12192000D03*
%TD*%
D24*
%TO.C,R22*%
X39092600Y2284000D03*
X39092600Y3304000D03*
%TD*%
D20*
%TO.C,C2*%
X-24437400Y21505600D03*
X-25397400Y21505600D03*
%TD*%
D24*
%TO.C,R15*%
X44272200Y7084600D03*
X44272200Y8104600D03*
%TD*%
D37*
%TO.C,U2*%
X50683200Y14000900D03*
X49733200Y14000900D03*
X48783200Y14000900D03*
X48783200Y16275900D03*
X49733200Y16275900D03*
X50683200Y16275900D03*
%TD*%
D38*
%TO.C,IC1*%
X28424373Y38961827D03*
X28141530Y38678984D03*
X27858687Y38396142D03*
X27575845Y38113299D03*
X27293002Y37830456D03*
X27010159Y37547614D03*
X26727316Y37264771D03*
X26444474Y36981928D03*
X26161631Y36699085D03*
X25878788Y36416243D03*
X25595946Y36133400D03*
X25313103Y35850557D03*
X25030260Y35567715D03*
X24747417Y35284872D03*
X24464575Y35002029D03*
X24181732Y34719186D03*
X23898889Y34436344D03*
X23616047Y34153501D03*
X23333204Y33870658D03*
D39*
X22148800Y33870658D03*
X21865957Y34153501D03*
X21583115Y34436344D03*
X21300272Y34719186D03*
X21017429Y35002029D03*
X20734587Y35284872D03*
X20451744Y35567715D03*
X20168901Y35850557D03*
X19886058Y36133400D03*
X19603216Y36416243D03*
X19320373Y36699085D03*
X19037530Y36981928D03*
X18754688Y37264771D03*
X18471845Y37547614D03*
X18189002Y37830456D03*
X17906159Y38113299D03*
X17623317Y38396142D03*
X17340474Y38678984D03*
X17057631Y38961827D03*
D38*
X17057631Y40146231D03*
X17340474Y40429074D03*
X17623317Y40711916D03*
X17906159Y40994759D03*
X18189002Y41277602D03*
X18471845Y41560444D03*
X18754688Y41843287D03*
X19037530Y42126130D03*
X19320373Y42408973D03*
X19603216Y42691815D03*
X19886058Y42974658D03*
X20168901Y43257501D03*
X20451744Y43540343D03*
X20734587Y43823186D03*
X21017429Y44106029D03*
X21300272Y44388872D03*
X21583115Y44671714D03*
X21865957Y44954557D03*
X22148800Y45237400D03*
D39*
X23333204Y45237400D03*
X23616047Y44954557D03*
X23898889Y44671714D03*
X24181732Y44388872D03*
X24464575Y44106029D03*
X24747417Y43823186D03*
X25030260Y43540343D03*
X25313103Y43257501D03*
X25595946Y42974658D03*
X25878788Y42691815D03*
X26161631Y42408973D03*
X26444474Y42126130D03*
X26727316Y41843287D03*
X27010159Y41560444D03*
X27293002Y41277602D03*
X27575845Y40994759D03*
X27858687Y40711916D03*
X28141530Y40429074D03*
X28424373Y40146231D03*
D40*
X22741002Y39554029D03*
%TD*%
D27*
%TO.C,Y1*%
X86723400Y32957400D03*
X84523400Y32957400D03*
X84523400Y34657400D03*
X86723400Y34657400D03*
%TD*%
D23*
%TO.C,R17*%
X-33653000Y15256600D03*
X-34673000Y15256600D03*
%TD*%
D32*
%TO.C,C1*%
X82865200Y34197600D03*
X82865200Y33237600D03*
%TD*%
D22*
%TO.C,R26*%
X17500600Y30228000D03*
X17500600Y29208000D03*
%TD*%
M02*
