%TF.GenerationSoftware,KiCad,Pcbnew,8.0.1*%
%TF.CreationDate,2024-05-07T15:17:13+02:00*%
%TF.ProjectId,WCH-Eth-Base,5743482d-4574-4682-9d42-6173652e6b69,rev?*%
%TF.SameCoordinates,Original*%
%TF.FileFunction,Profile,NP*%
%FSLAX46Y46*%
G04 Gerber Fmt 4.6, Leading zero omitted, Abs format (unit mm)*
G04 Created by KiCad (PCBNEW 8.0.1) date 2024-05-07 15:17:13*
%MOMM*%
%LPD*%
G01*
G04 APERTURE LIST*
%TA.AperFunction,Profile*%
%ADD10C,0.100000*%
%TD*%
G04 APERTURE END LIST*
D10*
X95406600Y50000000D02*
X97406600Y50000000D01*
X0Y48000000D02*
G75*
G02*
X2000000Y50000000I2000000J0D01*
G01*
X97900000Y50000000D02*
G75*
G02*
X99900000Y48000000I0J-2000000D01*
G01*
X99900000Y48000000D02*
X99900000Y2000000D01*
X0Y2000000D02*
X0Y48000000D01*
X99900000Y2000000D02*
G75*
G02*
X97900000Y0I-2000000J0D01*
G01*
X97900000Y0D02*
X2000000Y0D01*
X2000000Y0D02*
G75*
G02*
X0Y2000000I0J2000000D01*
G01*
X57406600Y50000000D02*
X54406600Y50000000D01*
X2000000Y50000000D02*
X54406600Y50000000D01*
X97406600Y50000000D02*
X97900000Y50000000D01*
%TO.C,J1*%
X57906600Y49500000D02*
X57906600Y43500000D01*
X58906600Y43500000D02*
X58906600Y44400000D01*
X59406600Y44900000D02*
X93406600Y44900000D01*
X93906600Y44400000D02*
X93906600Y43500000D01*
X94906600Y43500000D02*
X94906600Y49500000D01*
X94906600Y43500000D02*
X94906600Y43500000D01*
X57406600Y50000000D02*
G75*
G02*
X57906600Y49500000I-1J-500001D01*
G01*
X58406600Y43000000D02*
G75*
G02*
X57906600Y43500000I1J500001D01*
G01*
X58906600Y44400000D02*
G75*
G02*
X59406600Y44900000I500001J-1D01*
G01*
X58906600Y43500000D02*
G75*
G02*
X58406600Y43000000I-500001J1D01*
G01*
X93406600Y44900000D02*
G75*
G02*
X93906600Y44400000I0J-500000D01*
G01*
X94406600Y43000000D02*
G75*
G02*
X93906600Y43500000I0J500000D01*
G01*
X94906600Y49500000D02*
G75*
G02*
X95406600Y50000000I500000J0D01*
G01*
X94906600Y43500000D02*
G75*
G02*
X94406600Y43000000I-500000J0D01*
G01*
%TD*%
M02*
