%TF.GenerationSoftware,KiCad,Pcbnew,8.0.1*%
%TF.CreationDate,2024-05-07T15:17:13+02:00*%
%TF.ProjectId,WCH-Eth-Base,5743482d-4574-4682-9d42-6173652e6b69,rev?*%
%TF.SameCoordinates,Original*%
%TF.FileFunction,Copper,L1,Top*%
%TF.FilePolarity,Positive*%
%FSLAX46Y46*%
G04 Gerber Fmt 4.6, Leading zero omitted, Abs format (unit mm)*
G04 Created by KiCad (PCBNEW 8.0.1) date 2024-05-07 15:17:13*
%MOMM*%
%LPD*%
G01*
G04 APERTURE LIST*
G04 Aperture macros list*
%AMRoundRect*
0 Rectangle with rounded corners*
0 $1 Rounding radius*
0 $2 $3 $4 $5 $6 $7 $8 $9 X,Y pos of 4 corners*
0 Add a 4 corners polygon primitive as box body*
4,1,4,$2,$3,$4,$5,$6,$7,$8,$9,$2,$3,0*
0 Add four circle primitives for the rounded corners*
1,1,$1+$1,$2,$3*
1,1,$1+$1,$4,$5*
1,1,$1+$1,$6,$7*
1,1,$1+$1,$8,$9*
0 Add four rect primitives between the rounded corners*
20,1,$1+$1,$2,$3,$4,$5,0*
20,1,$1+$1,$4,$5,$6,$7,0*
20,1,$1+$1,$6,$7,$8,$9,0*
20,1,$1+$1,$8,$9,$2,$3,0*%
G04 Aperture macros list end*
%TA.AperFunction,SMDPad,CuDef*%
%ADD10R,1.000000X1.700000*%
%TD*%
%TA.AperFunction,ComponentPad*%
%ADD11C,3.300000*%
%TD*%
%TA.AperFunction,ComponentPad*%
%ADD12C,1.520000*%
%TD*%
%TA.AperFunction,ComponentPad*%
%ADD13C,2.500000*%
%TD*%
%TA.AperFunction,ComponentPad*%
%ADD14O,0.550000X0.700000*%
%TD*%
%TA.AperFunction,ComponentPad*%
%ADD15O,0.900000X1.900000*%
%TD*%
%TA.AperFunction,SMDPad,CuDef*%
%ADD16O,0.640000X2.300000*%
%TD*%
%TA.AperFunction,ConnectorPad*%
%ADD17C,0.787400*%
%TD*%
%TA.AperFunction,SMDPad,CuDef*%
%ADD18RoundRect,0.250000X-1.250000X-0.550000X1.250000X-0.550000X1.250000X0.550000X-1.250000X0.550000X0*%
%TD*%
%TA.AperFunction,ComponentPad*%
%ADD19O,2.600000X3.000000*%
%TD*%
%TA.AperFunction,ComponentPad*%
%ADD20C,1.800000*%
%TD*%
%TA.AperFunction,SMDPad,CuDef*%
%ADD21R,0.700000X3.000000*%
%TD*%
%TA.AperFunction,ComponentPad*%
%ADD22C,1.524000*%
%TD*%
%TA.AperFunction,ViaPad*%
%ADD23C,0.600000*%
%TD*%
G04 APERTURE END LIST*
D10*
%TO.P,SW1,1,1*%
%TO.N,GND*%
X59770400Y6402800D03*
%TO.P,SW1,2,2*%
%TO.N,nRst*%
X59770400Y13002800D03*
%TO.P,SW1,3*%
%TO.N,N/C*%
X63470400Y6402800D03*
%TO.P,SW1,4*%
X63470400Y13002800D03*
%TD*%
D11*
%TO.P,RJ1,*%
%TO.N,*%
X6755800Y2752800D03*
X35255800Y2752800D03*
D12*
%TO.P,RJ1,1,1*%
%TO.N,Eth0_BI_DA+*%
X16675800Y5292800D03*
%TO.P,RJ1,2,2*%
%TO.N,Eth0_BI_DA-*%
X15655800Y7082800D03*
%TO.P,RJ1,3,3*%
%TO.N,Eth0_BI_DB+*%
X14635800Y5292800D03*
%TO.P,RJ1,4,4*%
%TO.N,Eth0_BI_DC+*%
X13615800Y7082800D03*
%TO.P,RJ1,5,5*%
%TO.N,Eth0_BI_DC-*%
X12595800Y5292800D03*
%TO.P,RJ1,6,6*%
%TO.N,Eth0_BI_DB-*%
X11575800Y7082800D03*
%TO.P,RJ1,7,7*%
%TO.N,Eth0_BI_DD+*%
X10555800Y5292800D03*
%TO.P,RJ1,8,8*%
%TO.N,Eth0_BI_DD-*%
X9535800Y7082800D03*
%TO.P,RJ1,9,L-*%
%TO.N,Eth1_LedL*%
X19965800Y11892800D03*
%TO.P,RJ1,10,L+*%
%TO.N,Net-(R42-Pad2)*%
X17675800Y11892800D03*
%TO.P,RJ1,11,R-*%
%TO.N,Eth1_LedR*%
X8535800Y11892800D03*
%TO.P,RJ1,12,R+*%
%TO.N,Net-(R41-Pad2)*%
X6245800Y11892800D03*
%TO.P,RJ1,13,13*%
%TO.N,Eth1_BI_DA+*%
X32475800Y5292800D03*
%TO.P,RJ1,14,14*%
%TO.N,Eth1_BI_DA-*%
X31455800Y7082800D03*
%TO.P,RJ1,15,15*%
%TO.N,Eth1_BI_DB+*%
X30435800Y5292800D03*
%TO.P,RJ1,16,16*%
%TO.N,Eth1_BI_DC+*%
X29415800Y7082800D03*
%TO.P,RJ1,17,17*%
%TO.N,Eth1_BI_DC-*%
X28395800Y5292800D03*
%TO.P,RJ1,18,18*%
%TO.N,Eth1_BI_DB-*%
X27375800Y7082800D03*
%TO.P,RJ1,19,19*%
%TO.N,Eth1_BI_DD+*%
X26355800Y5292800D03*
%TO.P,RJ1,20,20*%
%TO.N,Eth1_BI_DD-*%
X25335800Y7082800D03*
%TO.P,RJ1,21,L-*%
%TO.N,Eth0_LedL*%
X35765800Y11892800D03*
%TO.P,RJ1,22,L+*%
%TO.N,Net-(R44-Pad2)*%
X33475800Y11892800D03*
%TO.P,RJ1,23,R-*%
%TO.N,Eth0_LedR*%
X24335800Y11892800D03*
%TO.P,RJ1,24,R+*%
%TO.N,Net-(R43-Pad2)*%
X22045800Y11892800D03*
D13*
%TO.P,RJ1,25,SHELL*%
%TO.N,Earth*%
X5005800Y6322800D03*
%TO.P,RJ1,26,SHELL*%
X37005800Y6322800D03*
%TD*%
D14*
%TO.P,J4,A1,GND*%
%TO.N,GND*%
X49034000Y4510800D03*
%TO.P,J4,A4,VBUS*%
%TO.N,Net-(D10-A)*%
X49034000Y5410800D03*
%TO.P,J4,A5,CC1*%
%TO.N,Net-(J4-CC1)*%
X49034000Y6320800D03*
%TO.P,J4,A6,D+*%
%TO.N,Net-(J4-D+-PadA6)*%
X49034000Y7220800D03*
%TO.P,J4,A7,D-*%
%TO.N,Net-(J4-D--PadA7)*%
X49034000Y8120800D03*
%TO.P,J4,A9,VBUS*%
%TO.N,Net-(D10-A)*%
X49034000Y9470800D03*
%TO.P,J4,A12,GND*%
%TO.N,GND*%
X49034000Y10370800D03*
%TO.P,J4,B1,GND*%
X49784000Y10370800D03*
%TO.P,J4,B4,VBUS*%
%TO.N,Net-(D10-A)*%
X49784000Y9470800D03*
%TO.P,J4,B5,CC2*%
%TO.N,Net-(J4-CC2)*%
X49784000Y8570800D03*
%TO.P,J4,B6,D+*%
%TO.N,Net-(J4-D+-PadA6)*%
X49784000Y7670800D03*
%TO.P,J4,B7,D-*%
%TO.N,Net-(J4-D--PadA7)*%
X49784000Y6760800D03*
%TO.P,J4,B9,VBUS*%
%TO.N,Net-(D10-A)*%
X49784000Y5410800D03*
%TO.P,J4,B12,GND*%
%TO.N,GND*%
X49784000Y4510800D03*
D15*
%TO.P,J4,SH1*%
%TO.N,N/C*%
X50834000Y9870800D03*
X50834000Y5070800D03*
%TO.P,J4,SH2*%
X47974000Y9870800D03*
X47974000Y5070800D03*
%TD*%
D16*
%TO.P,L2,1,1*%
%TO.N,Net-(L2-Pad1)*%
X32827400Y29992400D03*
%TO.P,L2,2,2*%
%TO.N,P1MDIAP*%
X31807400Y29992400D03*
%TO.P,L2,3,3*%
%TO.N,P1MDIAN*%
X30787400Y29992400D03*
%TO.P,L2,4,4*%
%TO.N,Net-(L2-Pad4)*%
X29767400Y29992400D03*
%TO.P,L2,5,5*%
%TO.N,P1MDIBP*%
X28747400Y29992400D03*
%TO.P,L2,6,6*%
%TO.N,P1MDIBN*%
X27727400Y29992400D03*
%TO.P,L2,7,7*%
%TO.N,Net-(L2-Pad7)*%
X26707400Y29992400D03*
%TO.P,L2,8,8*%
%TO.N,P1MDICP*%
X25687400Y29992400D03*
%TO.P,L2,9,9*%
%TO.N,P1MDICN*%
X24667400Y29992400D03*
%TO.P,L2,10,10*%
%TO.N,Net-(L2-Pad10)*%
X23647400Y29992400D03*
%TO.P,L2,11,11*%
%TO.N,P1MDIDP*%
X22627400Y29992400D03*
%TO.P,L2,12,12*%
%TO.N,P1MDIDN*%
X21607400Y29992400D03*
%TO.P,L2,13,13*%
%TO.N,Net-(L2-Pad13)*%
X20587400Y29992400D03*
%TO.P,L2,14,14*%
%TO.N,P2MDIAP*%
X19567400Y29992400D03*
%TO.P,L2,15,15*%
%TO.N,P2MDIAN*%
X18547400Y29992400D03*
%TO.P,L2,16,16*%
%TO.N,Net-(L2-Pad16)*%
X17527400Y29992400D03*
%TO.P,L2,17,17*%
%TO.N,P2MDIBP*%
X16507400Y29992400D03*
%TO.P,L2,18,18*%
%TO.N,P2MDIBN*%
X15487400Y29992400D03*
%TO.P,L2,19,19*%
%TO.N,Net-(L2-Pad19)*%
X14467400Y29992400D03*
%TO.P,L2,20,20*%
%TO.N,P2MDICP*%
X13447400Y29992400D03*
%TO.P,L2,21,21*%
%TO.N,P2MDICN*%
X12427400Y29992400D03*
%TO.P,L2,22,22*%
%TO.N,Net-(L2-Pad22)*%
X11407400Y29992400D03*
%TO.P,L2,23,23*%
%TO.N,P2MDIDP*%
X10387400Y29992400D03*
%TO.P,L2,24,24*%
%TO.N,P2MDIDN*%
X9367400Y29992400D03*
%TO.P,L2,25,25*%
%TO.N,Eth0_BI_DD-*%
X9367400Y15392400D03*
%TO.P,L2,26,26*%
%TO.N,Eth0_BI_DD+*%
X10387400Y15392400D03*
%TO.P,L2,27,27*%
%TO.N,Net-(C20-Pad1)*%
X11407400Y15392400D03*
%TO.P,L2,28,28*%
%TO.N,Eth0_BI_DC-*%
X12427400Y15392400D03*
%TO.P,L2,29,29*%
%TO.N,Eth0_BI_DC+*%
X13447400Y15392400D03*
%TO.P,L2,30,30*%
%TO.N,Net-(C21-Pad1)*%
X14467400Y15392400D03*
%TO.P,L2,31,31*%
%TO.N,Eth0_BI_DB-*%
X15487400Y15392400D03*
%TO.P,L2,32,32*%
%TO.N,Eth0_BI_DB+*%
X16507400Y15392400D03*
%TO.P,L2,33,33*%
%TO.N,Net-(C23-Pad1)*%
X17527400Y15392400D03*
%TO.P,L2,34,34*%
%TO.N,Eth0_BI_DA-*%
X18547400Y15392400D03*
%TO.P,L2,35,35*%
%TO.N,Eth0_BI_DA+*%
X19567400Y15392400D03*
%TO.P,L2,36,36*%
%TO.N,Net-(C24-Pad1)*%
X20587400Y15392400D03*
%TO.P,L2,37,37*%
%TO.N,Eth1_BI_DD-*%
X21607400Y15392400D03*
%TO.P,L2,38,38*%
%TO.N,Eth1_BI_DD+*%
X22627400Y15392400D03*
%TO.P,L2,39,39*%
%TO.N,Net-(C25-Pad1)*%
X23647400Y15392400D03*
%TO.P,L2,40,40*%
%TO.N,Eth1_BI_DC-*%
X24667400Y15392400D03*
%TO.P,L2,41,41*%
%TO.N,Eth1_BI_DC+*%
X25687400Y15392400D03*
%TO.P,L2,42,42*%
%TO.N,Net-(C26-Pad1)*%
X26707400Y15392400D03*
%TO.P,L2,43,43*%
%TO.N,Eth1_BI_DB-*%
X27727400Y15392400D03*
%TO.P,L2,44,44*%
%TO.N,Eth1_BI_DB+*%
X28747400Y15392400D03*
%TO.P,L2,45,45*%
%TO.N,Net-(C28-Pad1)*%
X29767400Y15392400D03*
%TO.P,L2,46,46*%
%TO.N,Eth1_BI_DA-*%
X30787400Y15392400D03*
%TO.P,L2,47,47*%
%TO.N,Eth1_BI_DA+*%
X31807400Y15392400D03*
%TO.P,L2,48,48*%
%TO.N,Net-(C29-Pad1)*%
X32827400Y15392400D03*
%TD*%
D17*
%TO.P,J6,1,VCC*%
%TO.N,+3.3V*%
X60756800Y16179800D03*
%TO.P,J6,2,SWDIO*%
%TO.N,SWDIO*%
X60756800Y17449800D03*
%TO.P,J6,3,~{RESET}*%
%TO.N,nRst*%
X62026800Y16179800D03*
%TO.P,J6,4,SWCLK*%
%TO.N,SWCLK*%
X62026800Y17449800D03*
%TO.P,J6,5,GND*%
%TO.N,GND*%
X63296800Y16179800D03*
%TO.P,J6,6,SWO*%
%TO.N,unconnected-(J6-SWO-Pad6)*%
X63296800Y17449800D03*
%TD*%
D14*
%TO.P,J5,A1,GND*%
%TO.N,GND*%
X42150600Y4601400D03*
%TO.P,J5,A4,VBUS*%
%TO.N,Net-(D11-A)*%
X42150600Y5501400D03*
%TO.P,J5,A5,CC1*%
%TO.N,Net-(J5-CC1)*%
X42150600Y6411400D03*
%TO.P,J5,A6,D+*%
%TO.N,Net-(J5-D+-PadA6)*%
X42150600Y7311400D03*
%TO.P,J5,A7,D-*%
%TO.N,Net-(J5-D--PadA7)*%
X42150600Y8211400D03*
%TO.P,J5,A9,VBUS*%
%TO.N,Net-(D11-A)*%
X42150600Y9561400D03*
%TO.P,J5,A12,GND*%
%TO.N,GND*%
X42150600Y10461400D03*
%TO.P,J5,B1,GND*%
X42900600Y10461400D03*
%TO.P,J5,B4,VBUS*%
%TO.N,Net-(D11-A)*%
X42900600Y9561400D03*
%TO.P,J5,B5,CC2*%
%TO.N,Net-(J5-CC2)*%
X42900600Y8661400D03*
%TO.P,J5,B6,D+*%
%TO.N,Net-(J5-D+-PadA6)*%
X42900600Y7761400D03*
%TO.P,J5,B7,D-*%
%TO.N,Net-(J5-D--PadA7)*%
X42900600Y6851400D03*
%TO.P,J5,B9,VBUS*%
%TO.N,Net-(D11-A)*%
X42900600Y5501400D03*
%TO.P,J5,B12,GND*%
%TO.N,GND*%
X42900600Y4601400D03*
D15*
%TO.P,J5,SH1*%
%TO.N,N/C*%
X43950600Y9961400D03*
X43950600Y5161400D03*
%TO.P,J5,SH2*%
X41090600Y9961400D03*
X41090600Y5161400D03*
%TD*%
D18*
%TO.P,C18,1*%
%TO.N,+3.3V*%
X50718000Y21183600D03*
%TO.P,C18,2*%
%TO.N,GND*%
X55118000Y21183600D03*
%TD*%
D19*
%TO.P,SW3,*%
%TO.N,*%
X96121600Y5258000D03*
X84421600Y5258000D03*
D20*
%TO.P,SW3,A,A*%
%TO.N,EncoderA*%
X87771600Y4008000D03*
%TO.P,SW3,B,B*%
%TO.N,EncoderB*%
X92771600Y4008000D03*
%TO.P,SW3,C,C*%
%TO.N,GND*%
X90271600Y4008000D03*
%TO.P,SW3,S1,S1*%
%TO.N,EncoderS1*%
X87771600Y6508000D03*
%TO.P,SW3,S2,S2*%
%TO.N,GND*%
X92771600Y6508000D03*
%TD*%
D21*
%TO.P,J1,1,Pin_1*%
%TO.N,GND*%
X59906600Y42400000D03*
%TO.P,J1,2,Pin_2*%
X60906600Y42400000D03*
%TO.P,J1,3,Pin_3*%
X61906600Y42400000D03*
%TO.P,J1,4,Pin_4*%
X62906600Y42400000D03*
%TO.P,J1,5,Pin_5*%
%TO.N,unconnected-(J1-Pin_5-Pad5)*%
X63906600Y42400000D03*
%TO.P,J1,6,Pin_6*%
%TO.N,unconnected-(J1-Pin_6-Pad6)*%
X64906600Y42400000D03*
%TO.P,J1,7,Pin_7*%
%TO.N,unconnected-(J1-Pin_7-Pad7)*%
X65906600Y42400000D03*
%TO.P,J1,8,Pin_8*%
%TO.N,unconnected-(J1-Pin_8-Pad8)*%
X66906600Y42400000D03*
%TO.P,J1,9,Pin_9*%
%TO.N,unconnected-(J1-Pin_9-Pad9)*%
X67906600Y42400000D03*
%TO.P,J1,10,Pin_10*%
%TO.N,unconnected-(J1-Pin_10-Pad10)*%
X68906600Y42400000D03*
%TO.P,J1,11,Pin_11*%
%TO.N,unconnected-(J1-Pin_11-Pad11)*%
X69906600Y42400000D03*
%TO.P,J1,12,Pin_12*%
%TO.N,unconnected-(J1-Pin_12-Pad12)*%
X72906600Y42400000D03*
%TO.P,J1,13,Pin_13*%
%TO.N,unconnected-(J1-Pin_13-Pad13)*%
X73906600Y42400000D03*
%TO.P,J1,14,Pin_14*%
%TO.N,unconnected-(J1-Pin_14-Pad14)*%
X74906600Y42400000D03*
%TO.P,J1,15,Pin_15*%
%TO.N,PE0*%
X75906600Y42400000D03*
%TO.P,J1,16,Pin_16*%
%TO.N,PE1*%
X76906600Y42400000D03*
%TO.P,J1,17,Pin_17*%
%TO.N,PE2*%
X77906600Y42400000D03*
%TO.P,J1,18,Pin_18*%
%TO.N,PE3*%
X78906600Y42400000D03*
%TO.P,J1,19,Pin_19*%
%TO.N,PE4*%
X79906600Y42400000D03*
%TO.P,J1,20,Pin_20*%
%TO.N,PE5*%
X80906600Y42400000D03*
%TO.P,J1,21,Pin_21*%
%TO.N,PE6*%
X81906600Y42400000D03*
%TO.P,J1,22,Pin_22*%
%TO.N,PE7*%
X82906600Y42400000D03*
%TO.P,J1,23,Pin_23*%
%TO.N,PE8*%
X83906600Y42400000D03*
%TO.P,J1,24,Pin_24*%
%TO.N,PE9*%
X84906600Y42400000D03*
%TO.P,J1,25,Pin_25*%
%TO.N,PE10*%
X85906600Y42400000D03*
%TO.P,J1,26,Pin_26*%
%TO.N,PE11*%
X86906600Y42400000D03*
%TO.P,J1,27,Pin_27*%
%TO.N,PE12*%
X87906600Y42400000D03*
%TO.P,J1,28,Pin_28*%
%TO.N,PE13*%
X88906600Y42400000D03*
%TO.P,J1,29,Pin_29*%
%TO.N,PE14*%
X89906600Y42400000D03*
%TO.P,J1,30,Pin_30*%
%TO.N,PE15*%
X90906600Y42400000D03*
%TO.P,J1,31,Pin_31*%
%TO.N,GND*%
X91906600Y42400000D03*
%TO.P,J1,32,Pin_32*%
X92906600Y42400000D03*
%TD*%
D22*
%TO.P,U4,1,B1*%
%TO.N,Net-(C20-Pad1)*%
X3033400Y41630600D03*
%TO.P,U4,2,B1*%
%TO.N,Net-(C21-Pad1)*%
X5573400Y41630600D03*
%TO.P,U4,3,B2*%
%TO.N,Net-(C23-Pad1)*%
X8113400Y41630600D03*
%TO.P,U4,4,B2*%
%TO.N,Net-(C24-Pad1)*%
X10653400Y41630600D03*
%TO.P,U4,5,V-*%
%TO.N,GND*%
X46253400Y41630600D03*
%TO.P,U4,6,V+*%
%TO.N,+12V*%
X48793400Y41630600D03*
%TO.P,U4,7,Adj*%
%TO.N,unconnected-(U4-Adj-Pad7)*%
X51333400Y41630600D03*
%TD*%
D10*
%TO.P,SW2,1,1*%
%TO.N,+3.3V*%
X66120400Y6402800D03*
%TO.P,SW2,2,2*%
%TO.N,Net-(U1-BOOT0)*%
X66120400Y13002800D03*
%TO.P,SW2,3*%
%TO.N,N/C*%
X69820400Y6402800D03*
%TO.P,SW2,4*%
X69820400Y13002800D03*
%TD*%
D18*
%TO.P,C19,1*%
%TO.N,+3.3V*%
X50473800Y33705800D03*
%TO.P,C19,2*%
%TO.N,GND*%
X54873800Y33705800D03*
%TD*%
%TO.P,C15,1*%
%TO.N,Net-(D12-K)*%
X50641800Y27381200D03*
%TO.P,C15,2*%
%TO.N,GND*%
X55041800Y27381200D03*
%TD*%
D23*
%TO.N,+3.3V*%
X35712400Y10160000D03*
X20243800Y10210800D03*
X24460200Y10134600D03*
%TD*%
M02*
