%TF.GenerationSoftware,KiCad,Pcbnew,8.0.1*%
%TF.CreationDate,2024-05-07T15:17:13+02:00*%
%TF.ProjectId,WCH-Eth-Base,5743482d-4574-4682-9d42-6173652e6b69,rev?*%
%TF.SameCoordinates,Original*%
%TF.FileFunction,Legend,Top*%
%TF.FilePolarity,Positive*%
%FSLAX46Y46*%
G04 Gerber Fmt 4.6, Leading zero omitted, Abs format (unit mm)*
G04 Created by KiCad (PCBNEW 8.0.1) date 2024-05-07 15:17:13*
%MOMM*%
%LPD*%
G01*
G04 APERTURE LIST*
G04 Aperture macros list*
%AMRoundRect*
0 Rectangle with rounded corners*
0 $1 Rounding radius*
0 $2 $3 $4 $5 $6 $7 $8 $9 X,Y pos of 4 corners*
0 Add a 4 corners polygon primitive as box body*
4,1,4,$2,$3,$4,$5,$6,$7,$8,$9,$2,$3,0*
0 Add four circle primitives for the rounded corners*
1,1,$1+$1,$2,$3*
1,1,$1+$1,$4,$5*
1,1,$1+$1,$6,$7*
1,1,$1+$1,$8,$9*
0 Add four rect primitives between the rounded corners*
20,1,$1+$1,$2,$3,$4,$5,0*
20,1,$1+$1,$4,$5,$6,$7,0*
20,1,$1+$1,$6,$7,$8,$9,0*
20,1,$1+$1,$8,$9,$2,$3,0*%
G04 Aperture macros list end*
%ADD10C,0.150000*%
%ADD11C,0.250000*%
%ADD12C,0.400000*%
%ADD13C,0.120000*%
%ADD14C,0.100000*%
%ADD15R,1.000000X1.700000*%
%ADD16C,3.300000*%
%ADD17C,1.520000*%
%ADD18C,2.500000*%
%ADD19O,0.550000X0.700000*%
%ADD20O,0.900000X1.900000*%
%ADD21O,0.640000X2.300000*%
%ADD22C,0.990600*%
%ADD23C,0.787400*%
%ADD24RoundRect,0.250000X-1.250000X-0.550000X1.250000X-0.550000X1.250000X0.550000X-1.250000X0.550000X0*%
%ADD25O,2.600000X3.000000*%
%ADD26C,1.800000*%
%ADD27R,0.700000X3.000000*%
%ADD28C,1.524000*%
G04 APERTURE END LIST*
D10*
X56177600Y8369468D02*
X56225219Y8512325D01*
X56225219Y8512325D02*
X56225219Y8750420D01*
X56225219Y8750420D02*
X56177600Y8845658D01*
X56177600Y8845658D02*
X56129980Y8893277D01*
X56129980Y8893277D02*
X56034742Y8940896D01*
X56034742Y8940896D02*
X55939504Y8940896D01*
X55939504Y8940896D02*
X55844266Y8893277D01*
X55844266Y8893277D02*
X55796647Y8845658D01*
X55796647Y8845658D02*
X55749028Y8750420D01*
X55749028Y8750420D02*
X55701409Y8559944D01*
X55701409Y8559944D02*
X55653790Y8464706D01*
X55653790Y8464706D02*
X55606171Y8417087D01*
X55606171Y8417087D02*
X55510933Y8369468D01*
X55510933Y8369468D02*
X55415695Y8369468D01*
X55415695Y8369468D02*
X55320457Y8417087D01*
X55320457Y8417087D02*
X55272838Y8464706D01*
X55272838Y8464706D02*
X55225219Y8559944D01*
X55225219Y8559944D02*
X55225219Y8798039D01*
X55225219Y8798039D02*
X55272838Y8940896D01*
X55225219Y9274230D02*
X56225219Y9512325D01*
X56225219Y9512325D02*
X55510933Y9702801D01*
X55510933Y9702801D02*
X56225219Y9893277D01*
X56225219Y9893277D02*
X55225219Y10131372D01*
X56225219Y11036134D02*
X56225219Y10464706D01*
X56225219Y10750420D02*
X55225219Y10750420D01*
X55225219Y10750420D02*
X55368076Y10655182D01*
X55368076Y10655182D02*
X55463314Y10559944D01*
X55463314Y10559944D02*
X55510933Y10464706D01*
X20458180Y15437981D02*
X20124847Y15914172D01*
X19886752Y15437981D02*
X19886752Y16437981D01*
X19886752Y16437981D02*
X20267704Y16437981D01*
X20267704Y16437981D02*
X20362942Y16390362D01*
X20362942Y16390362D02*
X20410561Y16342743D01*
X20410561Y16342743D02*
X20458180Y16247505D01*
X20458180Y16247505D02*
X20458180Y16104648D01*
X20458180Y16104648D02*
X20410561Y16009410D01*
X20410561Y16009410D02*
X20362942Y15961791D01*
X20362942Y15961791D02*
X20267704Y15914172D01*
X20267704Y15914172D02*
X19886752Y15914172D01*
X21172466Y16437981D02*
X21172466Y15723696D01*
X21172466Y15723696D02*
X21124847Y15580839D01*
X21124847Y15580839D02*
X21029609Y15485600D01*
X21029609Y15485600D02*
X20886752Y15437981D01*
X20886752Y15437981D02*
X20791514Y15437981D01*
X22172466Y15437981D02*
X21601038Y15437981D01*
X21886752Y15437981D02*
X21886752Y16437981D01*
X21886752Y16437981D02*
X21791514Y16295124D01*
X21791514Y16295124D02*
X21696276Y16199886D01*
X21696276Y16199886D02*
X21601038Y16152267D01*
X20930733Y10937581D02*
X20454543Y10937581D01*
X20454543Y10937581D02*
X20454543Y11937581D01*
X21216448Y11842343D02*
X21264067Y11889962D01*
X21264067Y11889962D02*
X21359305Y11937581D01*
X21359305Y11937581D02*
X21597400Y11937581D01*
X21597400Y11937581D02*
X21692638Y11889962D01*
X21692638Y11889962D02*
X21740257Y11842343D01*
X21740257Y11842343D02*
X21787876Y11747105D01*
X21787876Y11747105D02*
X21787876Y11651867D01*
X21787876Y11651867D02*
X21740257Y11509010D01*
X21740257Y11509010D02*
X21168829Y10937581D01*
X21168829Y10937581D02*
X21787876Y10937581D01*
X61693466Y14659981D02*
X61693466Y13945696D01*
X61693466Y13945696D02*
X61645847Y13802839D01*
X61645847Y13802839D02*
X61550609Y13707600D01*
X61550609Y13707600D02*
X61407752Y13659981D01*
X61407752Y13659981D02*
X61312514Y13659981D01*
X62598228Y14659981D02*
X62407752Y14659981D01*
X62407752Y14659981D02*
X62312514Y14612362D01*
X62312514Y14612362D02*
X62264895Y14564743D01*
X62264895Y14564743D02*
X62169657Y14421886D01*
X62169657Y14421886D02*
X62122038Y14231410D01*
X62122038Y14231410D02*
X62122038Y13850458D01*
X62122038Y13850458D02*
X62169657Y13755220D01*
X62169657Y13755220D02*
X62217276Y13707600D01*
X62217276Y13707600D02*
X62312514Y13659981D01*
X62312514Y13659981D02*
X62502990Y13659981D01*
X62502990Y13659981D02*
X62598228Y13707600D01*
X62598228Y13707600D02*
X62645847Y13755220D01*
X62645847Y13755220D02*
X62693466Y13850458D01*
X62693466Y13850458D02*
X62693466Y14088553D01*
X62693466Y14088553D02*
X62645847Y14183791D01*
X62645847Y14183791D02*
X62598228Y14231410D01*
X62598228Y14231410D02*
X62502990Y14279029D01*
X62502990Y14279029D02*
X62312514Y14279029D01*
X62312514Y14279029D02*
X62217276Y14231410D01*
X62217276Y14231410D02*
X62169657Y14183791D01*
X62169657Y14183791D02*
X62122038Y14088553D01*
X42187266Y15006581D02*
X42187266Y14292296D01*
X42187266Y14292296D02*
X42139647Y14149439D01*
X42139647Y14149439D02*
X42044409Y14054200D01*
X42044409Y14054200D02*
X41901552Y14006581D01*
X41901552Y14006581D02*
X41806314Y14006581D01*
X43139647Y15006581D02*
X42663457Y15006581D01*
X42663457Y15006581D02*
X42615838Y14530391D01*
X42615838Y14530391D02*
X42663457Y14578010D01*
X42663457Y14578010D02*
X42758695Y14625629D01*
X42758695Y14625629D02*
X42996790Y14625629D01*
X42996790Y14625629D02*
X43092028Y14578010D01*
X43092028Y14578010D02*
X43139647Y14530391D01*
X43139647Y14530391D02*
X43187266Y14435153D01*
X43187266Y14435153D02*
X43187266Y14197058D01*
X43187266Y14197058D02*
X43139647Y14101820D01*
X43139647Y14101820D02*
X43092028Y14054200D01*
X43092028Y14054200D02*
X42996790Y14006581D01*
X42996790Y14006581D02*
X42758695Y14006581D01*
X42758695Y14006581D02*
X42663457Y14054200D01*
X42663457Y14054200D02*
X42615838Y14101820D01*
X52275142Y24524020D02*
X52227523Y24476400D01*
X52227523Y24476400D02*
X52084666Y24428781D01*
X52084666Y24428781D02*
X51989428Y24428781D01*
X51989428Y24428781D02*
X51846571Y24476400D01*
X51846571Y24476400D02*
X51751333Y24571639D01*
X51751333Y24571639D02*
X51703714Y24666877D01*
X51703714Y24666877D02*
X51656095Y24857353D01*
X51656095Y24857353D02*
X51656095Y25000210D01*
X51656095Y25000210D02*
X51703714Y25190686D01*
X51703714Y25190686D02*
X51751333Y25285924D01*
X51751333Y25285924D02*
X51846571Y25381162D01*
X51846571Y25381162D02*
X51989428Y25428781D01*
X51989428Y25428781D02*
X52084666Y25428781D01*
X52084666Y25428781D02*
X52227523Y25381162D01*
X52227523Y25381162D02*
X52275142Y25333543D01*
X53227523Y24428781D02*
X52656095Y24428781D01*
X52941809Y24428781D02*
X52941809Y25428781D01*
X52941809Y25428781D02*
X52846571Y25285924D01*
X52846571Y25285924D02*
X52751333Y25190686D01*
X52751333Y25190686D02*
X52656095Y25143067D01*
X53798952Y25000210D02*
X53703714Y25047829D01*
X53703714Y25047829D02*
X53656095Y25095448D01*
X53656095Y25095448D02*
X53608476Y25190686D01*
X53608476Y25190686D02*
X53608476Y25238305D01*
X53608476Y25238305D02*
X53656095Y25333543D01*
X53656095Y25333543D02*
X53703714Y25381162D01*
X53703714Y25381162D02*
X53798952Y25428781D01*
X53798952Y25428781D02*
X53989428Y25428781D01*
X53989428Y25428781D02*
X54084666Y25381162D01*
X54084666Y25381162D02*
X54132285Y25333543D01*
X54132285Y25333543D02*
X54179904Y25238305D01*
X54179904Y25238305D02*
X54179904Y25190686D01*
X54179904Y25190686D02*
X54132285Y25095448D01*
X54132285Y25095448D02*
X54084666Y25047829D01*
X54084666Y25047829D02*
X53989428Y25000210D01*
X53989428Y25000210D02*
X53798952Y25000210D01*
X53798952Y25000210D02*
X53703714Y24952591D01*
X53703714Y24952591D02*
X53656095Y24904972D01*
X53656095Y24904972D02*
X53608476Y24809734D01*
X53608476Y24809734D02*
X53608476Y24619258D01*
X53608476Y24619258D02*
X53656095Y24524020D01*
X53656095Y24524020D02*
X53703714Y24476400D01*
X53703714Y24476400D02*
X53798952Y24428781D01*
X53798952Y24428781D02*
X53989428Y24428781D01*
X53989428Y24428781D02*
X54084666Y24476400D01*
X54084666Y24476400D02*
X54132285Y24524020D01*
X54132285Y24524020D02*
X54179904Y24619258D01*
X54179904Y24619258D02*
X54179904Y24809734D01*
X54179904Y24809734D02*
X54132285Y24904972D01*
X54132285Y24904972D02*
X54084666Y24952591D01*
X54084666Y24952591D02*
X53989428Y25000210D01*
X76073266Y46945181D02*
X76073266Y46230896D01*
X76073266Y46230896D02*
X76025647Y46088039D01*
X76025647Y46088039D02*
X75930409Y45992800D01*
X75930409Y45992800D02*
X75787552Y45945181D01*
X75787552Y45945181D02*
X75692314Y45945181D01*
X77073266Y45945181D02*
X76501838Y45945181D01*
X76787552Y45945181D02*
X76787552Y46945181D01*
X76787552Y46945181D02*
X76692314Y46802324D01*
X76692314Y46802324D02*
X76597076Y46707086D01*
X76597076Y46707086D02*
X76501838Y46659467D01*
X27798495Y43651781D02*
X27798495Y42842258D01*
X27798495Y42842258D02*
X27846114Y42747020D01*
X27846114Y42747020D02*
X27893733Y42699400D01*
X27893733Y42699400D02*
X27988971Y42651781D01*
X27988971Y42651781D02*
X28179447Y42651781D01*
X28179447Y42651781D02*
X28274685Y42699400D01*
X28274685Y42699400D02*
X28322304Y42747020D01*
X28322304Y42747020D02*
X28369923Y42842258D01*
X28369923Y42842258D02*
X28369923Y43651781D01*
X29274685Y43318448D02*
X29274685Y42651781D01*
X29036590Y43699400D02*
X28798495Y42985115D01*
X28798495Y42985115D02*
X29417542Y42985115D01*
X62527600Y8369468D02*
X62575219Y8512325D01*
X62575219Y8512325D02*
X62575219Y8750420D01*
X62575219Y8750420D02*
X62527600Y8845658D01*
X62527600Y8845658D02*
X62479980Y8893277D01*
X62479980Y8893277D02*
X62384742Y8940896D01*
X62384742Y8940896D02*
X62289504Y8940896D01*
X62289504Y8940896D02*
X62194266Y8893277D01*
X62194266Y8893277D02*
X62146647Y8845658D01*
X62146647Y8845658D02*
X62099028Y8750420D01*
X62099028Y8750420D02*
X62051409Y8559944D01*
X62051409Y8559944D02*
X62003790Y8464706D01*
X62003790Y8464706D02*
X61956171Y8417087D01*
X61956171Y8417087D02*
X61860933Y8369468D01*
X61860933Y8369468D02*
X61765695Y8369468D01*
X61765695Y8369468D02*
X61670457Y8417087D01*
X61670457Y8417087D02*
X61622838Y8464706D01*
X61622838Y8464706D02*
X61575219Y8559944D01*
X61575219Y8559944D02*
X61575219Y8798039D01*
X61575219Y8798039D02*
X61622838Y8940896D01*
X61575219Y9274230D02*
X62575219Y9512325D01*
X62575219Y9512325D02*
X61860933Y9702801D01*
X61860933Y9702801D02*
X62575219Y9893277D01*
X62575219Y9893277D02*
X61575219Y10131372D01*
X61670457Y10464706D02*
X61622838Y10512325D01*
X61622838Y10512325D02*
X61575219Y10607563D01*
X61575219Y10607563D02*
X61575219Y10845658D01*
X61575219Y10845658D02*
X61622838Y10940896D01*
X61622838Y10940896D02*
X61670457Y10988515D01*
X61670457Y10988515D02*
X61765695Y11036134D01*
X61765695Y11036134D02*
X61860933Y11036134D01*
X61860933Y11036134D02*
X62003790Y10988515D01*
X62003790Y10988515D02*
X62575219Y10417087D01*
X62575219Y10417087D02*
X62575219Y11036134D01*
X52030942Y37046220D02*
X51983323Y36998600D01*
X51983323Y36998600D02*
X51840466Y36950981D01*
X51840466Y36950981D02*
X51745228Y36950981D01*
X51745228Y36950981D02*
X51602371Y36998600D01*
X51602371Y36998600D02*
X51507133Y37093839D01*
X51507133Y37093839D02*
X51459514Y37189077D01*
X51459514Y37189077D02*
X51411895Y37379553D01*
X51411895Y37379553D02*
X51411895Y37522410D01*
X51411895Y37522410D02*
X51459514Y37712886D01*
X51459514Y37712886D02*
X51507133Y37808124D01*
X51507133Y37808124D02*
X51602371Y37903362D01*
X51602371Y37903362D02*
X51745228Y37950981D01*
X51745228Y37950981D02*
X51840466Y37950981D01*
X51840466Y37950981D02*
X51983323Y37903362D01*
X51983323Y37903362D02*
X52030942Y37855743D01*
X52983323Y36950981D02*
X52411895Y36950981D01*
X52697609Y36950981D02*
X52697609Y37950981D01*
X52697609Y37950981D02*
X52602371Y37808124D01*
X52602371Y37808124D02*
X52507133Y37712886D01*
X52507133Y37712886D02*
X52411895Y37665267D01*
X53459514Y36950981D02*
X53649990Y36950981D01*
X53649990Y36950981D02*
X53745228Y36998600D01*
X53745228Y36998600D02*
X53792847Y37046220D01*
X53792847Y37046220D02*
X53888085Y37189077D01*
X53888085Y37189077D02*
X53935704Y37379553D01*
X53935704Y37379553D02*
X53935704Y37760505D01*
X53935704Y37760505D02*
X53888085Y37855743D01*
X53888085Y37855743D02*
X53840466Y37903362D01*
X53840466Y37903362D02*
X53745228Y37950981D01*
X53745228Y37950981D02*
X53554752Y37950981D01*
X53554752Y37950981D02*
X53459514Y37903362D01*
X53459514Y37903362D02*
X53411895Y37855743D01*
X53411895Y37855743D02*
X53364276Y37760505D01*
X53364276Y37760505D02*
X53364276Y37522410D01*
X53364276Y37522410D02*
X53411895Y37427172D01*
X53411895Y37427172D02*
X53459514Y37379553D01*
X53459514Y37379553D02*
X53554752Y37331934D01*
X53554752Y37331934D02*
X53745228Y37331934D01*
X53745228Y37331934D02*
X53840466Y37379553D01*
X53840466Y37379553D02*
X53888085Y37427172D01*
X53888085Y37427172D02*
X53935704Y37522410D01*
X52198942Y30721620D02*
X52151323Y30674000D01*
X52151323Y30674000D02*
X52008466Y30626381D01*
X52008466Y30626381D02*
X51913228Y30626381D01*
X51913228Y30626381D02*
X51770371Y30674000D01*
X51770371Y30674000D02*
X51675133Y30769239D01*
X51675133Y30769239D02*
X51627514Y30864477D01*
X51627514Y30864477D02*
X51579895Y31054953D01*
X51579895Y31054953D02*
X51579895Y31197810D01*
X51579895Y31197810D02*
X51627514Y31388286D01*
X51627514Y31388286D02*
X51675133Y31483524D01*
X51675133Y31483524D02*
X51770371Y31578762D01*
X51770371Y31578762D02*
X51913228Y31626381D01*
X51913228Y31626381D02*
X52008466Y31626381D01*
X52008466Y31626381D02*
X52151323Y31578762D01*
X52151323Y31578762D02*
X52198942Y31531143D01*
X53151323Y30626381D02*
X52579895Y30626381D01*
X52865609Y30626381D02*
X52865609Y31626381D01*
X52865609Y31626381D02*
X52770371Y31483524D01*
X52770371Y31483524D02*
X52675133Y31388286D01*
X52675133Y31388286D02*
X52579895Y31340667D01*
X54056085Y31626381D02*
X53579895Y31626381D01*
X53579895Y31626381D02*
X53532276Y31150191D01*
X53532276Y31150191D02*
X53579895Y31197810D01*
X53579895Y31197810D02*
X53675133Y31245429D01*
X53675133Y31245429D02*
X53913228Y31245429D01*
X53913228Y31245429D02*
X54008466Y31197810D01*
X54008466Y31197810D02*
X54056085Y31150191D01*
X54056085Y31150191D02*
X54103704Y31054953D01*
X54103704Y31054953D02*
X54103704Y30816858D01*
X54103704Y30816858D02*
X54056085Y30721620D01*
X54056085Y30721620D02*
X54008466Y30674000D01*
X54008466Y30674000D02*
X53913228Y30626381D01*
X53913228Y30626381D02*
X53675133Y30626381D01*
X53675133Y30626381D02*
X53579895Y30674000D01*
X53579895Y30674000D02*
X53532276Y30721620D01*
D11*
%TO.C,SW1*%
X59070400Y10982800D02*
X59960400Y11872800D01*
X59070400Y8422800D02*
X59070400Y10982800D01*
X59070400Y8422800D02*
X59960400Y7532800D01*
X59820400Y10602800D02*
X60720400Y11502800D01*
X59820400Y8702800D02*
X59820400Y10602800D01*
X60450400Y12252800D02*
X62790400Y12252800D01*
X60450400Y7152800D02*
X62790400Y7152800D01*
X60620400Y7902800D02*
X59820400Y8702800D01*
X60720400Y11502800D02*
X62520400Y11502800D01*
X62520400Y11502800D02*
X63520400Y10502800D01*
X62620400Y7902800D02*
X60620400Y7902800D01*
X63280400Y11872800D02*
X64170400Y10982800D01*
X63280400Y7532800D02*
X64170400Y8422800D01*
X63520400Y10502800D02*
X63520400Y8802800D01*
X63520400Y8802800D02*
X62620400Y7902800D01*
X64170400Y8422800D02*
X64170400Y10982800D01*
X62900400Y9702800D02*
G75*
G02*
X60340400Y9702800I-1280000J0D01*
G01*
X60340400Y9702800D02*
G75*
G02*
X62900400Y9702800I1280000J0D01*
G01*
%TO.C,RJ1*%
X4925800Y7792800D02*
X4925800Y13162800D01*
X4925800Y2992800D02*
X4925800Y4832800D01*
X4925800Y-2647200D02*
X4925800Y2512800D01*
X37075800Y13162800D02*
X5005800Y13162800D01*
X37075800Y7792800D02*
X37075800Y13162800D01*
X37075800Y2992800D02*
X37075800Y4832800D01*
X37075800Y-2647200D02*
X4925800Y-2647200D01*
X37075800Y-2647200D02*
X37075800Y2512800D01*
%TO.C,J4*%
X47554000Y11510800D02*
X47554000Y10960800D01*
X47554000Y11510800D02*
X51254000Y11510800D01*
X47804000Y6220800D02*
X47804000Y8700800D01*
X47804000Y3910800D02*
X47804000Y-2489200D01*
X47804000Y-2489200D02*
X51004000Y-2489200D01*
X51004000Y6220800D02*
X51004000Y8700800D01*
X51004000Y-2489200D02*
X51004000Y3910800D01*
X51254000Y11510800D02*
X51254000Y10960800D01*
%TO.C,L2*%
X7197400Y28842400D02*
X8827400Y28842400D01*
X7197400Y16542400D02*
X7197400Y28842400D01*
X8827400Y16542400D02*
X7197400Y16542400D01*
X33367400Y28842400D02*
X34997400Y28842400D01*
X34997400Y28842400D02*
X34997400Y23202400D01*
X34997400Y16542400D02*
X33367400Y16542400D01*
X34997400Y16542400D02*
X34997400Y22182400D01*
X34997400Y22182400D02*
G75*
G02*
X34997400Y23202400I0J510000D01*
G01*
D12*
X34197400Y29792400D02*
G75*
G02*
X33797400Y29792400I-200000J0D01*
G01*
X33797400Y29792400D02*
G75*
G02*
X34197400Y29792400I200000J0D01*
G01*
X34397400Y28092400D02*
G75*
G02*
X33997400Y28092400I-200000J0D01*
G01*
X33997400Y28092400D02*
G75*
G02*
X34397400Y28092400I200000J0D01*
G01*
D13*
%TO.C,J6*%
X60121800Y15544800D02*
X60121800Y16179800D01*
X60756800Y15544800D02*
X60121800Y15544800D01*
D11*
%TO.C,J5*%
X40670600Y11601400D02*
X40670600Y11051400D01*
X40670600Y11601400D02*
X44370600Y11601400D01*
X40920600Y6311400D02*
X40920600Y8791400D01*
X40920600Y4001400D02*
X40920600Y-2398600D01*
X40920600Y-2398600D02*
X44120600Y-2398600D01*
X44120600Y6311400D02*
X44120600Y8791400D01*
X44120600Y-2398600D02*
X44120600Y4001400D01*
X44370600Y11601400D02*
X44370600Y11051400D01*
D13*
%TO.C,C18*%
X49293000Y22868600D02*
X49918000Y22868600D01*
X49605500Y23181100D02*
X49605500Y22556100D01*
X50158000Y22879163D02*
X50158000Y22243600D01*
X50158000Y22879163D02*
X51222437Y23943600D01*
X50158000Y19488037D02*
X50158000Y20123600D01*
X50158000Y19488037D02*
X51222437Y18423600D01*
X51222437Y23943600D02*
X55678000Y23943600D01*
X51222437Y18423600D02*
X55678000Y18423600D01*
X55678000Y23943600D02*
X55678000Y22243600D01*
X55678000Y18423600D02*
X55678000Y20123600D01*
D14*
%TO.C,J1*%
X56916600Y55200000D02*
X56916600Y38600000D01*
X56916600Y38600000D02*
X58916600Y38600000D01*
X58916600Y45200000D02*
X93916600Y45200000D01*
X58916600Y38600000D02*
X58916600Y45200000D01*
X93916600Y45200000D02*
X93916600Y38600000D01*
X93916600Y38600000D02*
X95916600Y38600000D01*
X95916600Y55200000D02*
X56916600Y55200000D01*
X95916600Y38600000D02*
X95916600Y55200000D01*
D11*
%TO.C,SW2*%
X65420400Y10982800D02*
X66310400Y11872800D01*
X65420400Y8422800D02*
X65420400Y10982800D01*
X65420400Y8422800D02*
X66310400Y7532800D01*
X66170400Y10602800D02*
X67070400Y11502800D01*
X66170400Y8702800D02*
X66170400Y10602800D01*
X66800400Y12252800D02*
X69140400Y12252800D01*
X66800400Y7152800D02*
X69140400Y7152800D01*
X66970400Y7902800D02*
X66170400Y8702800D01*
X67070400Y11502800D02*
X68870400Y11502800D01*
X68870400Y11502800D02*
X69870400Y10502800D01*
X68970400Y7902800D02*
X66970400Y7902800D01*
X69630400Y11872800D02*
X70520400Y10982800D01*
X69630400Y7532800D02*
X70520400Y8422800D01*
X69870400Y10502800D02*
X69870400Y8802800D01*
X69870400Y8802800D02*
X68970400Y7902800D01*
X70520400Y8422800D02*
X70520400Y10982800D01*
X69250400Y9702800D02*
G75*
G02*
X66690400Y9702800I-1280000J0D01*
G01*
X66690400Y9702800D02*
G75*
G02*
X69250400Y9702800I1280000J0D01*
G01*
D13*
%TO.C,C19*%
X49048800Y35390800D02*
X49673800Y35390800D01*
X49361300Y35703300D02*
X49361300Y35078300D01*
X49913800Y35401363D02*
X49913800Y34765800D01*
X49913800Y35401363D02*
X50978237Y36465800D01*
X49913800Y32010237D02*
X49913800Y32645800D01*
X49913800Y32010237D02*
X50978237Y30945800D01*
X50978237Y36465800D02*
X55433800Y36465800D01*
X50978237Y30945800D02*
X55433800Y30945800D01*
X55433800Y36465800D02*
X55433800Y34765800D01*
X55433800Y30945800D02*
X55433800Y32645800D01*
%TO.C,C15*%
X49216800Y29066200D02*
X49841800Y29066200D01*
X49529300Y29378700D02*
X49529300Y28753700D01*
X50081800Y29076763D02*
X50081800Y28441200D01*
X50081800Y29076763D02*
X51146237Y30141200D01*
X50081800Y25685637D02*
X50081800Y26321200D01*
X50081800Y25685637D02*
X51146237Y24621200D01*
X51146237Y30141200D02*
X55601800Y30141200D01*
X51146237Y24621200D02*
X55601800Y24621200D01*
X55601800Y30141200D02*
X55601800Y28441200D01*
X55601800Y24621200D02*
X55601800Y26321200D01*
%TD*%
%LPC*%
D15*
%TO.C,SW1*%
X59770400Y6402800D03*
X59770400Y13002800D03*
X63470400Y6402800D03*
X63470400Y13002800D03*
%TD*%
D16*
%TO.C,RJ1*%
X6755800Y2752800D03*
X35255800Y2752800D03*
D17*
X16675800Y5292800D03*
X15655800Y7082800D03*
X14635800Y5292800D03*
X13615800Y7082800D03*
X12595800Y5292800D03*
X11575800Y7082800D03*
X10555800Y5292800D03*
X9535800Y7082800D03*
X19965800Y11892800D03*
X17675800Y11892800D03*
X8535800Y11892800D03*
X6245800Y11892800D03*
X32475800Y5292800D03*
X31455800Y7082800D03*
X30435800Y5292800D03*
X29415800Y7082800D03*
X28395800Y5292800D03*
X27375800Y7082800D03*
X26355800Y5292800D03*
X25335800Y7082800D03*
X35765800Y11892800D03*
X33475800Y11892800D03*
X24335800Y11892800D03*
X22045800Y11892800D03*
D18*
X5005800Y6322800D03*
X37005800Y6322800D03*
%TD*%
D19*
%TO.C,J4*%
X49034000Y4510800D03*
X49034000Y5410800D03*
X49034000Y6320800D03*
X49034000Y7220800D03*
X49034000Y8120800D03*
X49034000Y9470800D03*
X49034000Y10370800D03*
X49784000Y10370800D03*
X49784000Y9470800D03*
X49784000Y8570800D03*
X49784000Y7670800D03*
X49784000Y6760800D03*
X49784000Y5410800D03*
X49784000Y4510800D03*
D20*
X50834000Y9870800D03*
X50834000Y5070800D03*
X47974000Y9870800D03*
X47974000Y5070800D03*
%TD*%
D21*
%TO.C,L2*%
X32827400Y29992400D03*
X31807400Y29992400D03*
X30787400Y29992400D03*
X29767400Y29992400D03*
X28747400Y29992400D03*
X27727400Y29992400D03*
X26707400Y29992400D03*
X25687400Y29992400D03*
X24667400Y29992400D03*
X23647400Y29992400D03*
X22627400Y29992400D03*
X21607400Y29992400D03*
X20587400Y29992400D03*
X19567400Y29992400D03*
X18547400Y29992400D03*
X17527400Y29992400D03*
X16507400Y29992400D03*
X15487400Y29992400D03*
X14467400Y29992400D03*
X13447400Y29992400D03*
X12427400Y29992400D03*
X11407400Y29992400D03*
X10387400Y29992400D03*
X9367400Y29992400D03*
X9367400Y15392400D03*
X10387400Y15392400D03*
X11407400Y15392400D03*
X12427400Y15392400D03*
X13447400Y15392400D03*
X14467400Y15392400D03*
X15487400Y15392400D03*
X16507400Y15392400D03*
X17527400Y15392400D03*
X18547400Y15392400D03*
X19567400Y15392400D03*
X20587400Y15392400D03*
X21607400Y15392400D03*
X22627400Y15392400D03*
X23647400Y15392400D03*
X24667400Y15392400D03*
X25687400Y15392400D03*
X26707400Y15392400D03*
X27727400Y15392400D03*
X28747400Y15392400D03*
X29767400Y15392400D03*
X30787400Y15392400D03*
X31807400Y15392400D03*
X32827400Y15392400D03*
%TD*%
D22*
%TO.C,J6*%
X59486800Y16814800D03*
X64566800Y17830800D03*
X64566800Y15798800D03*
D23*
X60756800Y16179800D03*
X60756800Y17449800D03*
X62026800Y16179800D03*
X62026800Y17449800D03*
X63296800Y16179800D03*
X63296800Y17449800D03*
%TD*%
D19*
%TO.C,J5*%
X42150600Y4601400D03*
X42150600Y5501400D03*
X42150600Y6411400D03*
X42150600Y7311400D03*
X42150600Y8211400D03*
X42150600Y9561400D03*
X42150600Y10461400D03*
X42900600Y10461400D03*
X42900600Y9561400D03*
X42900600Y8661400D03*
X42900600Y7761400D03*
X42900600Y6851400D03*
X42900600Y5501400D03*
X42900600Y4601400D03*
D20*
X43950600Y9961400D03*
X43950600Y5161400D03*
X41090600Y9961400D03*
X41090600Y5161400D03*
%TD*%
D24*
%TO.C,C18*%
X50718000Y21183600D03*
X55118000Y21183600D03*
%TD*%
D25*
%TO.C,SW3*%
X96121600Y5258000D03*
X84421600Y5258000D03*
D26*
X87771600Y4008000D03*
X92771600Y4008000D03*
X90271600Y4008000D03*
X87771600Y6508000D03*
X92771600Y6508000D03*
%TD*%
D27*
%TO.C,J1*%
X59906600Y42400000D03*
X60906600Y42400000D03*
X61906600Y42400000D03*
X62906600Y42400000D03*
X63906600Y42400000D03*
X64906600Y42400000D03*
X65906600Y42400000D03*
X66906600Y42400000D03*
X67906600Y42400000D03*
X68906600Y42400000D03*
X69906600Y42400000D03*
X72906600Y42400000D03*
X73906600Y42400000D03*
X74906600Y42400000D03*
X75906600Y42400000D03*
X76906600Y42400000D03*
X77906600Y42400000D03*
X78906600Y42400000D03*
X79906600Y42400000D03*
X80906600Y42400000D03*
X81906600Y42400000D03*
X82906600Y42400000D03*
X83906600Y42400000D03*
X84906600Y42400000D03*
X85906600Y42400000D03*
X86906600Y42400000D03*
X87906600Y42400000D03*
X88906600Y42400000D03*
X89906600Y42400000D03*
X90906600Y42400000D03*
X91906600Y42400000D03*
X92906600Y42400000D03*
%TD*%
D28*
%TO.C,U4*%
X3033400Y41630600D03*
X5573400Y41630600D03*
X8113400Y41630600D03*
X10653400Y41630600D03*
X46253400Y41630600D03*
X48793400Y41630600D03*
X51333400Y41630600D03*
%TD*%
D15*
%TO.C,SW2*%
X66120400Y6402800D03*
X66120400Y13002800D03*
X69820400Y6402800D03*
X69820400Y13002800D03*
%TD*%
D24*
%TO.C,C19*%
X50473800Y33705800D03*
X54873800Y33705800D03*
%TD*%
%TO.C,C15*%
X50641800Y27381200D03*
X55041800Y27381200D03*
%TD*%
%LPD*%
M02*
