M48
; DRILL file {KiCad 8.0.1} date 2024-05-07T15:17:13+0200
; FORMAT={-:-/ absolute / inch / decimal}
; #@! TF.CreationDate,2024-05-07T15:17:13+02:00
; #@! TF.GenerationSoftware,Kicad,Pcbnew,8.0.1
; #@! TF.FileFunction,Plated,1,6,PTH
FMAT,2
INCH
; #@! TA.AperFunction,Plated,PTH,ViaDrill
T1C0.0118
; #@! TA.AperFunction,Plated,PTH,ComponentDrill
T2C0.0138
; #@! TA.AperFunction,Plated,PTH,ComponentDrill
T3C0.0197
; #@! TA.AperFunction,Plated,PTH,ComponentDrill
T4C0.0300
; #@! TA.AperFunction,Plated,PTH,ComponentDrill
T5C0.0350
; #@! TA.AperFunction,Plated,PTH,ComponentDrill
T6C0.0394
; #@! TA.AperFunction,Plated,PTH,ComponentDrill
T7C0.0709
; #@! TA.AperFunction,Plated,PTH,ComponentDrill
T8C0.0709
; #@! TA.AperFunction,Plated,PTH,ComponentDrill
T9C0.1299
%
G90
G05
T1
X0.797Y0.402
X0.963Y0.399
X1.406Y0.4
T4
X0.1194Y1.639
X0.2194Y1.639
X0.3194Y1.639
X0.4194Y1.639
X1.821Y1.639
X1.921Y1.639
X2.021Y1.639
T5
X0.2459Y0.4682
X0.3361Y0.4682
X0.3754Y0.2789
X0.4156Y0.2084
X0.4557Y0.2789
X0.4959Y0.2084
X0.5361Y0.2789
X0.5762Y0.2084
X0.6164Y0.2789
X0.6565Y0.2084
X0.6959Y0.4682
X0.7861Y0.4682
X0.8679Y0.4682
X0.9581Y0.4682
X0.9975Y0.2789
X1.0376Y0.2084
X1.0778Y0.2789
X1.1179Y0.2084
X1.1581Y0.2789
X1.1983Y0.2084
X1.2384Y0.2789
X1.2786Y0.2084
X1.3179Y0.4682
X1.4081Y0.4682
T6
X3.4556Y0.2562
X3.4556Y0.1578
X3.554Y0.1578
X3.6524Y0.2562
X3.6524Y0.1578
T7
X0.1971Y0.2489
X1.4569Y0.2489
T9
X0.266Y0.1084
X1.388Y0.1084
T2
G00X1.6595Y0.4105
M15
G01X1.6595Y0.4132
M16
G05
G00X1.6595Y0.3751
M15
G01X1.6595Y0.3778
M16
G05
G00X1.6595Y0.3219
M15
G01X1.6595Y0.3247
M16
G05
G00X1.6595Y0.2865
M15
G01X1.6595Y0.2892
M16
G05
G00X1.6595Y0.251
M15
G01X1.6595Y0.2538
M16
G05
G00X1.6595Y0.2152
M15
G01X1.6595Y0.218
M16
G05
G00X1.6595Y0.1798
M15
G01X1.6595Y0.1825
M16
G05
G00X1.689Y0.4105
M15
G01X1.689Y0.4132
M16
G05
G00X1.689Y0.3751
M15
G01X1.689Y0.3778
M16
G05
G00X1.689Y0.3396
M15
G01X1.689Y0.3424
M16
G05
G00X1.689Y0.3042
M15
G01X1.689Y0.3069
M16
G05
G00X1.689Y0.2684
M15
G01X1.689Y0.2711
M16
G05
G00X1.689Y0.2152
M15
G01X1.689Y0.218
M16
G05
G00X1.689Y0.1798
M15
G01X1.689Y0.1825
M16
G05
G00X1.9305Y0.4069
M15
G01X1.9305Y0.4097
M16
G05
G00X1.9305Y0.3715
M15
G01X1.9305Y0.3742
M16
G05
G00X1.9305Y0.3183
M15
G01X1.9305Y0.3211
M16
G05
G00X1.9305Y0.2829
M15
G01X1.9305Y0.2857
M16
G05
G00X1.9305Y0.2475
M15
G01X1.9305Y0.2502
M16
G05
G00X1.9305Y0.2116
M15
G01X1.9305Y0.2144
M16
G05
G00X1.9305Y0.1762
M15
G01X1.9305Y0.179
M16
G05
G00X1.96Y0.4069
M15
G01X1.96Y0.4097
M16
G05
G00X1.96Y0.3715
M15
G01X1.96Y0.3742
M16
G05
G00X1.96Y0.3361
M15
G01X1.96Y0.3388
M16
G05
G00X1.96Y0.3006
M15
G01X1.96Y0.3034
M16
G05
G00X1.96Y0.2648
M15
G01X1.96Y0.2676
M16
G05
G00X1.96Y0.2116
M15
G01X1.96Y0.2144
M16
G05
G00X1.96Y0.1762
M15
G01X1.96Y0.179
M16
G05
T3
G00X1.6177Y0.4119
M15
G01X1.6177Y0.3725
M16
G05
G00X1.6177Y0.2229
M15
G01X1.6177Y0.1835
M16
G05
G00X1.7303Y0.4119
M15
G01X1.7303Y0.3725
M16
G05
G00X1.7303Y0.2229
M15
G01X1.7303Y0.1835
M16
G05
G00X1.8887Y0.4083
M15
G01X1.8887Y0.3689
M16
G05
G00X1.8887Y0.2193
M15
G01X1.8887Y0.18
M16
G05
G00X2.0013Y0.4083
M15
G01X2.0013Y0.3689
M16
G05
G00X2.0013Y0.2193
M15
G01X2.0013Y0.18
M16
G05
T8
G00X3.3237Y0.2129
M15
G01X3.3237Y0.2011
M16
G05
G00X3.7843Y0.2129
M15
G01X3.7843Y0.2011
M16
G05
M30
