%TF.GenerationSoftware,KiCad,Pcbnew,8.0.1*%
%TF.CreationDate,2024-05-07T15:17:13+02:00*%
%TF.ProjectId,WCH-Eth-Base,5743482d-4574-4682-9d42-6173652e6b69,rev?*%
%TF.SameCoordinates,Original*%
%TF.FileFunction,Other,Comment*%
%FSLAX46Y46*%
G04 Gerber Fmt 4.6, Leading zero omitted, Abs format (unit mm)*
G04 Created by KiCad (PCBNEW 8.0.1) date 2024-05-07 15:17:13*
%MOMM*%
%LPD*%
G01*
G04 APERTURE LIST*
%ADD10C,0.070000*%
%ADD11C,1.500000*%
%ADD12C,0.500000*%
G04 APERTURE END LIST*
D10*
X60788704Y16633393D02*
X60788704Y17033393D01*
X61017275Y16633393D02*
X60845846Y16861964D01*
X61017275Y17033393D02*
X60788704Y16804821D01*
X61188704Y16842917D02*
X61322037Y16842917D01*
X61379180Y16633393D02*
X61188704Y16633393D01*
X61188704Y16633393D02*
X61188704Y17033393D01*
X61188704Y17033393D02*
X61379180Y17033393D01*
X61550609Y16842917D02*
X61683942Y16842917D01*
X61741085Y16633393D02*
X61550609Y16633393D01*
X61550609Y16633393D02*
X61550609Y17033393D01*
X61550609Y17033393D02*
X61741085Y17033393D01*
X61912514Y16633393D02*
X61912514Y17033393D01*
X61912514Y17033393D02*
X62064895Y17033393D01*
X62064895Y17033393D02*
X62102990Y17014345D01*
X62102990Y17014345D02*
X62122037Y16995298D01*
X62122037Y16995298D02*
X62141085Y16957202D01*
X62141085Y16957202D02*
X62141085Y16900060D01*
X62141085Y16900060D02*
X62122037Y16861964D01*
X62122037Y16861964D02*
X62102990Y16842917D01*
X62102990Y16842917D02*
X62064895Y16823869D01*
X62064895Y16823869D02*
X61912514Y16823869D01*
X62388704Y17033393D02*
X62464895Y17033393D01*
X62464895Y17033393D02*
X62502990Y17014345D01*
X62502990Y17014345D02*
X62541085Y16976250D01*
X62541085Y16976250D02*
X62560133Y16900060D01*
X62560133Y16900060D02*
X62560133Y16766726D01*
X62560133Y16766726D02*
X62541085Y16690536D01*
X62541085Y16690536D02*
X62502990Y16652440D01*
X62502990Y16652440D02*
X62464895Y16633393D01*
X62464895Y16633393D02*
X62388704Y16633393D01*
X62388704Y16633393D02*
X62350609Y16652440D01*
X62350609Y16652440D02*
X62312514Y16690536D01*
X62312514Y16690536D02*
X62293466Y16766726D01*
X62293466Y16766726D02*
X62293466Y16900060D01*
X62293466Y16900060D02*
X62312514Y16976250D01*
X62312514Y16976250D02*
X62350609Y17014345D01*
X62350609Y17014345D02*
X62388704Y17033393D01*
X62731562Y17033393D02*
X62731562Y16709583D01*
X62731562Y16709583D02*
X62750609Y16671488D01*
X62750609Y16671488D02*
X62769657Y16652440D01*
X62769657Y16652440D02*
X62807752Y16633393D01*
X62807752Y16633393D02*
X62883943Y16633393D01*
X62883943Y16633393D02*
X62922038Y16652440D01*
X62922038Y16652440D02*
X62941085Y16671488D01*
X62941085Y16671488D02*
X62960133Y16709583D01*
X62960133Y16709583D02*
X62960133Y17033393D01*
X63093467Y17033393D02*
X63322038Y17033393D01*
X63207752Y16633393D02*
X63207752Y17033393D01*
D11*
%TO.C,RJ1*%
X7505800Y2752800D02*
G75*
G02*
X6005800Y2752800I-750000J0D01*
G01*
X6005800Y2752800D02*
G75*
G02*
X7505800Y2752800I750000J0D01*
G01*
X36005800Y2752800D02*
G75*
G02*
X34505800Y2752800I-750000J0D01*
G01*
X34505800Y2752800D02*
G75*
G02*
X36005800Y2752800I750000J0D01*
G01*
D12*
%TO.C,L2*%
X33247400Y29892400D02*
G75*
G02*
X32747400Y29892400I-250000J0D01*
G01*
X32747400Y29892400D02*
G75*
G02*
X33247400Y29892400I250000J0D01*
G01*
%TD*%
M02*
