%TF.GenerationSoftware,KiCad,Pcbnew,8.0.1*%
%TF.CreationDate,2024-05-07T15:17:13+02:00*%
%TF.ProjectId,WCH-Eth-Base,5743482d-4574-4682-9d42-6173652e6b69,rev?*%
%TF.SameCoordinates,Original*%
%TF.FileFunction,Copper,L4,Inr*%
%TF.FilePolarity,Positive*%
%FSLAX46Y46*%
G04 Gerber Fmt 4.6, Leading zero omitted, Abs format (unit mm)*
G04 Created by KiCad (PCBNEW 8.0.1) date 2024-05-07 15:17:13*
%MOMM*%
%LPD*%
G01*
G04 APERTURE LIST*
%TA.AperFunction,ComponentPad*%
%ADD10C,3.300000*%
%TD*%
%TA.AperFunction,ComponentPad*%
%ADD11C,1.520000*%
%TD*%
%TA.AperFunction,ComponentPad*%
%ADD12C,2.500000*%
%TD*%
%TA.AperFunction,ComponentPad*%
%ADD13O,0.550000X0.700000*%
%TD*%
%TA.AperFunction,ComponentPad*%
%ADD14O,0.900000X1.900000*%
%TD*%
%TA.AperFunction,ComponentPad*%
%ADD15O,2.600000X3.000000*%
%TD*%
%TA.AperFunction,ComponentPad*%
%ADD16C,1.800000*%
%TD*%
%TA.AperFunction,ComponentPad*%
%ADD17C,1.524000*%
%TD*%
%TA.AperFunction,ViaPad*%
%ADD18C,0.600000*%
%TD*%
G04 APERTURE END LIST*
D10*
%TO.N,*%
%TO.C,RJ1*%
X6755800Y2752800D03*
X35255800Y2752800D03*
D11*
%TO.N,Eth0_BI_DA+*%
X16675800Y5292800D03*
%TO.N,Eth0_BI_DA-*%
X15655800Y7082800D03*
%TO.N,Eth0_BI_DB+*%
X14635800Y5292800D03*
%TO.N,Eth0_BI_DC+*%
X13615800Y7082800D03*
%TO.N,Eth0_BI_DC-*%
X12595800Y5292800D03*
%TO.N,Eth0_BI_DB-*%
X11575800Y7082800D03*
%TO.N,Eth0_BI_DD+*%
X10555800Y5292800D03*
%TO.N,Eth0_BI_DD-*%
X9535800Y7082800D03*
%TO.N,Eth1_LedL*%
X19965800Y11892800D03*
%TO.N,Net-(R42-Pad2)*%
X17675800Y11892800D03*
%TO.N,Eth1_LedR*%
X8535800Y11892800D03*
%TO.N,Net-(R41-Pad2)*%
X6245800Y11892800D03*
%TO.N,Eth1_BI_DA+*%
X32475800Y5292800D03*
%TO.N,Eth1_BI_DA-*%
X31455800Y7082800D03*
%TO.N,Eth1_BI_DB+*%
X30435800Y5292800D03*
%TO.N,Eth1_BI_DC+*%
X29415800Y7082800D03*
%TO.N,Eth1_BI_DC-*%
X28395800Y5292800D03*
%TO.N,Eth1_BI_DB-*%
X27375800Y7082800D03*
%TO.N,Eth1_BI_DD+*%
X26355800Y5292800D03*
%TO.N,Eth1_BI_DD-*%
X25335800Y7082800D03*
%TO.N,Eth0_LedL*%
X35765800Y11892800D03*
%TO.N,Net-(R44-Pad2)*%
X33475800Y11892800D03*
%TO.N,Eth0_LedR*%
X24335800Y11892800D03*
%TO.N,Net-(R43-Pad2)*%
X22045800Y11892800D03*
D12*
%TO.N,Earth*%
X5005800Y6322800D03*
X37005800Y6322800D03*
%TD*%
D13*
%TO.N,GND*%
%TO.C,J4*%
X49034000Y4510800D03*
%TO.N,Net-(D10-A)*%
X49034000Y5410800D03*
%TO.N,Net-(J4-CC1)*%
X49034000Y6320800D03*
%TO.N,Net-(J4-D+-PadA6)*%
X49034000Y7220800D03*
%TO.N,Net-(J4-D--PadA7)*%
X49034000Y8120800D03*
%TO.N,Net-(D10-A)*%
X49034000Y9470800D03*
%TO.N,GND*%
X49034000Y10370800D03*
X49784000Y10370800D03*
%TO.N,Net-(D10-A)*%
X49784000Y9470800D03*
%TO.N,Net-(J4-CC2)*%
X49784000Y8570800D03*
%TO.N,Net-(J4-D+-PadA6)*%
X49784000Y7670800D03*
%TO.N,Net-(J4-D--PadA7)*%
X49784000Y6760800D03*
%TO.N,Net-(D10-A)*%
X49784000Y5410800D03*
%TO.N,GND*%
X49784000Y4510800D03*
D14*
%TO.N,N/C*%
X50834000Y9870800D03*
X50834000Y5070800D03*
X47974000Y9870800D03*
X47974000Y5070800D03*
%TD*%
D13*
%TO.N,GND*%
%TO.C,J5*%
X42150600Y4601400D03*
%TO.N,Net-(D11-A)*%
X42150600Y5501400D03*
%TO.N,Net-(J5-CC1)*%
X42150600Y6411400D03*
%TO.N,Net-(J5-D+-PadA6)*%
X42150600Y7311400D03*
%TO.N,Net-(J5-D--PadA7)*%
X42150600Y8211400D03*
%TO.N,Net-(D11-A)*%
X42150600Y9561400D03*
%TO.N,GND*%
X42150600Y10461400D03*
X42900600Y10461400D03*
%TO.N,Net-(D11-A)*%
X42900600Y9561400D03*
%TO.N,Net-(J5-CC2)*%
X42900600Y8661400D03*
%TO.N,Net-(J5-D+-PadA6)*%
X42900600Y7761400D03*
%TO.N,Net-(J5-D--PadA7)*%
X42900600Y6851400D03*
%TO.N,Net-(D11-A)*%
X42900600Y5501400D03*
%TO.N,GND*%
X42900600Y4601400D03*
D14*
%TO.N,N/C*%
X43950600Y9961400D03*
X43950600Y5161400D03*
X41090600Y9961400D03*
X41090600Y5161400D03*
%TD*%
D15*
%TO.N,*%
%TO.C,SW3*%
X96121600Y5258000D03*
X84421600Y5258000D03*
D16*
%TO.N,EncoderA*%
X87771600Y4008000D03*
%TO.N,EncoderB*%
X92771600Y4008000D03*
%TO.N,GND*%
X90271600Y4008000D03*
%TO.N,EncoderS1*%
X87771600Y6508000D03*
%TO.N,GND*%
X92771600Y6508000D03*
%TD*%
D17*
%TO.N,Net-(C20-Pad1)*%
%TO.C,U4*%
X3033400Y41630600D03*
%TO.N,Net-(C21-Pad1)*%
X5573400Y41630600D03*
%TO.N,Net-(C23-Pad1)*%
X8113400Y41630600D03*
%TO.N,Net-(C24-Pad1)*%
X10653400Y41630600D03*
%TO.N,GND*%
X46253400Y41630600D03*
%TO.N,+12V*%
X48793400Y41630600D03*
%TO.N,unconnected-(U4-Adj-Pad7)*%
X51333400Y41630600D03*
%TD*%
D18*
%TO.N,+3.3V*%
X35712400Y10160000D03*
X20243800Y10210800D03*
X24460200Y10134600D03*
%TD*%
M02*
